<svg width="515" height="507" viewBox="0 0 515 507" fill="none" xmlns="http://www.w3.org/2000/svg">
<path d="M126.656 458.771V436.371H130.944L144.16 452.499H142.08V436.371H147.2V458.771H142.944L129.696 442.643H131.776V458.771H126.656ZM160.34 459.027C158.505 459.027 156.873 458.643 155.444 457.875C154.036 457.107 152.916 456.062 152.084 454.739C151.273 453.395 150.868 451.87 150.868 450.163C150.868 448.435 151.273 446.91 152.084 445.587C152.916 444.243 154.036 443.198 155.444 442.451C156.873 441.683 158.505 441.299 160.34 441.299C162.153 441.299 163.774 441.683 165.204 442.451C166.633 443.198 167.753 444.233 168.564 445.555C169.374 446.878 169.78 448.414 169.78 450.163C169.78 451.87 169.374 453.395 168.564 454.739C167.753 456.062 166.633 457.107 165.204 457.875C163.774 458.643 162.153 459.027 160.34 459.027ZM160.34 454.931C161.172 454.931 161.918 454.739 162.58 454.355C163.241 453.971 163.764 453.427 164.148 452.723C164.532 451.998 164.724 451.145 164.724 450.163C164.724 449.161 164.532 448.307 164.148 447.603C163.764 446.899 163.241 446.355 162.58 445.971C161.918 445.587 161.172 445.395 160.34 445.395C159.508 445.395 158.761 445.587 158.1 445.971C157.438 446.355 156.905 446.899 156.5 447.603C156.116 448.307 155.924 449.161 155.924 450.163C155.924 451.145 156.116 451.998 156.5 452.723C156.905 453.427 157.438 453.971 158.1 454.355C158.761 454.739 159.508 454.931 160.34 454.931ZM182.531 458.771V436.371H192.707C195.139 436.371 197.283 436.841 199.139 437.779C200.995 438.697 202.446 439.987 203.491 441.651C204.536 443.315 205.059 445.289 205.059 447.571C205.059 449.833 204.536 451.806 203.491 453.491C202.446 455.155 200.995 456.457 199.139 457.395C197.283 458.313 195.139 458.771 192.707 458.771H182.531ZM187.715 454.515H192.451C193.944 454.515 195.235 454.238 196.323 453.683C197.432 453.107 198.286 452.297 198.883 451.251C199.502 450.206 199.811 448.979 199.811 447.571C199.811 446.142 199.502 444.915 198.883 443.891C198.286 442.846 197.432 442.046 196.323 441.491C195.235 440.915 193.944 440.627 192.451 440.627H187.715V454.515ZM219.177 458.771V455.411L218.857 454.675V448.659C218.857 447.593 218.526 446.761 217.865 446.163C217.225 445.566 216.233 445.267 214.889 445.267C213.971 445.267 213.065 445.417 212.169 445.715C211.294 445.993 210.547 446.377 209.929 446.867L208.137 443.379C209.075 442.718 210.206 442.206 211.529 441.843C212.851 441.481 214.195 441.299 215.561 441.299C218.185 441.299 220.222 441.918 221.673 443.155C223.123 444.393 223.849 446.323 223.849 448.947V458.771H219.177ZM213.929 459.027C212.585 459.027 211.433 458.803 210.473 458.355C209.513 457.886 208.777 457.257 208.265 456.467C207.753 455.678 207.497 454.793 207.497 453.811C207.497 452.787 207.742 451.891 208.233 451.123C208.745 450.355 209.545 449.758 210.633 449.331C211.721 448.883 213.139 448.659 214.889 448.659H219.465V451.571H215.433C214.259 451.571 213.449 451.763 213.001 452.147C212.574 452.531 212.361 453.011 212.361 453.587C212.361 454.227 212.606 454.739 213.097 455.123C213.609 455.486 214.302 455.667 215.177 455.667C216.009 455.667 216.755 455.475 217.417 455.091C218.078 454.686 218.558 454.099 218.857 453.331L219.625 455.635C219.262 456.745 218.601 457.587 217.641 458.163C216.681 458.739 215.443 459.027 213.929 459.027ZM235.407 459.027C233.38 459.027 231.801 458.515 230.671 457.491C229.54 456.446 228.975 454.899 228.975 452.851V437.747H233.967V452.787C233.967 453.513 234.159 454.078 234.543 454.483C234.927 454.867 235.449 455.059 236.111 455.059C236.9 455.059 237.572 454.846 238.127 454.419L239.471 457.939C238.959 458.302 238.34 458.579 237.615 458.771C236.911 458.942 236.175 459.027 235.407 459.027ZM226.319 445.779V441.939H238.255V445.779H226.319ZM252.833 458.771V455.411L252.513 454.675V448.659C252.513 447.593 252.182 446.761 251.521 446.163C250.881 445.566 249.889 445.267 248.545 445.267C247.627 445.267 246.721 445.417 245.825 445.715C244.95 445.993 244.203 446.377 243.585 446.867L241.793 443.379C242.731 442.718 243.862 442.206 245.185 441.843C246.507 441.481 247.851 441.299 249.217 441.299C251.841 441.299 253.878 441.918 255.329 443.155C256.779 444.393 257.505 446.323 257.505 448.947V458.771H252.833ZM247.585 459.027C246.241 459.027 245.089 458.803 244.129 458.355C243.169 457.886 242.433 457.257 241.921 456.467C241.409 455.678 241.153 454.793 241.153 453.811C241.153 452.787 241.398 451.891 241.889 451.123C242.401 450.355 243.201 449.758 244.289 449.331C245.377 448.883 246.795 448.659 248.545 448.659H253.121V451.571H249.089C247.915 451.571 247.105 451.763 246.657 452.147C246.23 452.531 246.017 453.011 246.017 453.587C246.017 454.227 246.262 454.739 246.753 455.123C247.265 455.486 247.958 455.667 248.833 455.667C249.665 455.667 250.411 455.475 251.073 455.091C251.734 454.686 252.214 454.099 252.513 453.331L253.281 455.635C252.918 456.745 252.257 457.587 251.297 458.163C250.337 458.739 249.099 459.027 247.585 459.027ZM276.237 446.451H286.989V450.611H276.237V446.451ZM276.621 458.771H271.437V436.371H288.365V440.531H276.621V458.771ZM299.309 459.027C297.474 459.027 295.842 458.643 294.413 457.875C293.005 457.107 291.885 456.062 291.053 454.739C290.242 453.395 289.837 451.87 289.837 450.163C289.837 448.435 290.242 446.91 291.053 445.587C291.885 444.243 293.005 443.198 294.413 442.451C295.842 441.683 297.474 441.299 299.309 441.299C301.122 441.299 302.743 441.683 304.173 442.451C305.602 443.198 306.722 444.233 307.533 445.555C308.343 446.878 308.749 448.414 308.749 450.163C308.749 451.87 308.343 453.395 307.533 454.739C306.722 456.062 305.602 457.107 304.173 457.875C302.743 458.643 301.122 459.027 299.309 459.027ZM299.309 454.931C300.141 454.931 300.887 454.739 301.549 454.355C302.21 453.971 302.733 453.427 303.117 452.723C303.501 451.998 303.693 451.145 303.693 450.163C303.693 449.161 303.501 448.307 303.117 447.603C302.733 446.899 302.21 446.355 301.549 445.971C300.887 445.587 300.141 445.395 299.309 445.395C298.477 445.395 297.73 445.587 297.069 445.971C296.407 446.355 295.874 446.899 295.469 447.603C295.085 448.307 294.893 449.161 294.893 450.163C294.893 451.145 295.085 451.998 295.469 452.723C295.874 453.427 296.407 453.971 297.069 454.355C297.73 454.739 298.477 454.931 299.309 454.931ZM319.349 459.027C317.92 459.027 316.64 458.75 315.509 458.195C314.4 457.641 313.536 456.798 312.917 455.667C312.299 454.515 311.989 453.054 311.989 451.283V441.555H316.981V450.547C316.981 451.977 317.28 453.033 317.877 453.715C318.496 454.377 319.36 454.707 320.469 454.707C321.237 454.707 321.92 454.547 322.517 454.227C323.115 453.886 323.584 453.374 323.925 452.691C324.267 451.987 324.437 451.113 324.437 450.067V441.555H329.429V458.771H324.693V454.035L325.557 455.411C324.981 456.606 324.128 457.513 322.997 458.131C321.888 458.729 320.672 459.027 319.349 459.027ZM344.518 441.299C345.883 441.299 347.099 441.577 348.166 442.131C349.254 442.665 350.107 443.497 350.726 444.627C351.345 445.737 351.654 447.166 351.654 448.915V458.771H346.662V449.683C346.662 448.297 346.353 447.273 345.734 446.611C345.137 445.95 344.283 445.619 343.174 445.619C342.385 445.619 341.67 445.79 341.03 446.131C340.411 446.451 339.921 446.953 339.558 447.635C339.217 448.318 339.046 449.193 339.046 450.259V458.771H334.054V441.555H338.822V446.323L337.926 444.883C338.545 443.731 339.43 442.846 340.582 442.227C341.734 441.609 343.046 441.299 344.518 441.299ZM363.696 459.027C362.075 459.027 360.613 458.665 359.312 457.939C358.011 457.193 356.976 456.158 356.208 454.835C355.461 453.513 355.088 451.955 355.088 450.163C355.088 448.35 355.461 446.782 356.208 445.459C356.976 444.137 358.011 443.113 359.312 442.387C360.613 441.662 362.075 441.299 363.696 441.299C365.147 441.299 366.416 441.619 367.504 442.259C368.592 442.899 369.435 443.87 370.032 445.171C370.629 446.473 370.928 448.137 370.928 450.163C370.928 452.169 370.64 453.833 370.064 455.155C369.488 456.457 368.656 457.427 367.568 458.067C366.501 458.707 365.211 459.027 363.696 459.027ZM364.56 454.931C365.371 454.931 366.107 454.739 366.768 454.355C367.429 453.971 367.952 453.427 368.336 452.723C368.741 451.998 368.944 451.145 368.944 450.163C368.944 449.161 368.741 448.307 368.336 447.603C367.952 446.899 367.429 446.355 366.768 445.971C366.107 445.587 365.371 445.395 364.56 445.395C363.728 445.395 362.981 445.587 362.32 445.971C361.659 446.355 361.125 446.899 360.72 447.603C360.336 448.307 360.144 449.161 360.144 450.163C360.144 451.145 360.336 451.998 360.72 452.723C361.125 453.427 361.659 453.971 362.32 454.355C362.981 454.739 363.728 454.931 364.56 454.931ZM369.072 458.771V455.251L369.168 450.131L368.848 445.043V435.027H373.84V458.771H369.072Z" fill="#1B1B1B"/>
<path opacity="0.5" d="M35.62 501.771V496.571L35.96 497.491L30.02 487.771H31.6L36.82 496.311H35.98L41.2 487.771H42.68L36.74 497.491L37.08 496.571V501.771H35.62ZM47.7639 501.871C46.7506 501.871 45.8372 501.645 45.0239 501.191C44.2239 500.725 43.5906 500.091 43.1239 499.291C42.6572 498.478 42.4239 497.551 42.4239 496.511C42.4239 495.458 42.6572 494.531 43.1239 493.731C43.5906 492.931 44.2239 492.305 45.0239 491.851C45.8239 491.398 46.7372 491.171 47.7639 491.171C48.8039 491.171 49.7239 491.398 50.5239 491.851C51.3372 492.305 51.9706 492.931 52.4239 493.731C52.8906 494.531 53.1239 495.458 53.1239 496.511C53.1239 497.551 52.8906 498.478 52.4239 499.291C51.9706 500.091 51.3372 500.725 50.5239 501.191C49.7106 501.645 48.7906 501.871 47.7639 501.871ZM47.7639 500.611C48.5239 500.611 49.1972 500.445 49.7839 500.111C50.3706 499.765 50.8306 499.285 51.1639 498.671C51.5106 498.045 51.6839 497.325 51.6839 496.511C51.6839 495.685 51.5106 494.965 51.1639 494.351C50.8306 493.738 50.3706 493.265 49.7839 492.931C49.1972 492.585 48.5306 492.411 47.7839 492.411C47.0372 492.411 46.3706 492.585 45.7839 492.931C45.1972 493.265 44.7306 493.738 44.3839 494.351C44.0372 494.965 43.8639 495.685 43.8639 496.511C43.8639 497.325 44.0372 498.045 44.3839 498.671C44.7306 499.285 45.1972 499.765 45.7839 500.111C46.3706 500.445 47.0306 500.611 47.7639 500.611ZM60.363 501.871C59.4696 501.871 58.6896 501.705 58.023 501.371C57.3563 501.038 56.8363 500.538 56.463 499.871C56.103 499.205 55.923 498.371 55.923 497.371V491.271H57.343V497.211C57.343 498.331 57.6163 499.178 58.163 499.751C58.723 500.311 59.503 500.591 60.503 500.591C61.2363 500.591 61.8696 500.445 62.403 500.151C62.9496 499.845 63.363 499.405 63.643 498.831C63.9363 498.258 64.083 497.571 64.083 496.771V491.271H65.503V501.771H64.143V498.891L64.363 499.411C64.0296 500.185 63.5096 500.791 62.803 501.231C62.1096 501.658 61.2963 501.871 60.363 501.871ZM78.8748 501.871C77.8748 501.871 76.9748 501.645 76.1748 501.191C75.3882 500.738 74.7682 500.111 74.3148 499.311C73.8615 498.498 73.6348 497.565 73.6348 496.511C73.6348 495.445 73.8615 494.511 74.3148 493.711C74.7682 492.911 75.3882 492.291 76.1748 491.851C76.9748 491.398 77.8748 491.171 78.8748 491.171C79.7948 491.171 80.6148 491.378 81.3348 491.791C82.0682 492.205 82.6482 492.811 83.0748 493.611C83.5148 494.398 83.7348 495.365 83.7348 496.511C83.7348 497.645 83.5215 498.611 83.0948 499.411C82.6682 500.211 82.0882 500.825 81.3548 501.251C80.6348 501.665 79.8082 501.871 78.8748 501.871ZM78.9748 500.611C79.7215 500.611 80.3882 500.445 80.9748 500.111C81.5748 499.765 82.0415 499.285 82.3748 498.671C82.7215 498.045 82.8948 497.325 82.8948 496.511C82.8948 495.685 82.7215 494.965 82.3748 494.351C82.0415 493.738 81.5748 493.265 80.9748 492.931C80.3882 492.585 79.7215 492.411 78.9748 492.411C78.2415 492.411 77.5815 492.585 76.9948 492.931C76.4082 493.265 75.9415 493.738 75.5948 494.351C75.2482 494.965 75.0748 495.685 75.0748 496.511C75.0748 497.325 75.2482 498.045 75.5948 498.671C75.9415 499.285 76.4082 499.765 76.9948 500.111C77.5815 500.445 78.2415 500.611 78.9748 500.611ZM82.9348 501.771V498.611L83.0748 496.491L82.8748 494.371V486.931H84.2948V501.771H82.9348ZM92.5295 501.871C91.5162 501.871 90.6029 501.645 89.7895 501.191C88.9895 500.725 88.3562 500.091 87.8895 499.291C87.4229 498.478 87.1895 497.551 87.1895 496.511C87.1895 495.458 87.4229 494.531 87.8895 493.731C88.3562 492.931 88.9895 492.305 89.7895 491.851C90.5895 491.398 91.5029 491.171 92.5295 491.171C93.5695 491.171 94.4895 491.398 95.2895 491.851C96.1029 492.305 96.7362 492.931 97.1895 493.731C97.6562 494.531 97.8895 495.458 97.8895 496.511C97.8895 497.551 97.6562 498.478 97.1895 499.291C96.7362 500.091 96.1029 500.725 95.2895 501.191C94.4762 501.645 93.5562 501.871 92.5295 501.871ZM92.5295 500.611C93.2895 500.611 93.9629 500.445 94.5495 500.111C95.1362 499.765 95.5962 499.285 95.9295 498.671C96.2762 498.045 96.4495 497.325 96.4495 496.511C96.4495 495.685 96.2762 494.965 95.9295 494.351C95.5962 493.738 95.1362 493.265 94.5495 492.931C93.9629 492.585 93.2962 492.411 92.5495 492.411C91.8029 492.411 91.1362 492.585 90.5495 492.931C89.9629 493.265 89.4962 493.738 89.1495 494.351C88.8029 494.965 88.6295 495.685 88.6295 496.511C88.6295 497.325 88.8029 498.045 89.1495 498.671C89.4962 499.285 89.9629 499.765 90.5495 500.111C91.1362 500.445 91.7962 500.611 92.5295 500.611ZM111.383 491.171C112.236 491.171 112.983 491.338 113.623 491.671C114.276 491.991 114.783 492.485 115.143 493.151C115.516 493.818 115.703 494.658 115.703 495.671V501.771H114.283V495.811C114.283 494.705 114.003 493.871 113.443 493.311C112.896 492.738 112.123 492.451 111.123 492.451C110.376 492.451 109.723 492.605 109.163 492.911C108.616 493.205 108.19 493.638 107.883 494.211C107.59 494.771 107.443 495.451 107.443 496.251V501.771H106.023V491.271H107.383V494.151L107.163 493.611C107.496 492.851 108.03 492.258 108.763 491.831C109.496 491.391 110.37 491.171 111.383 491.171ZM123.819 501.871C122.805 501.871 121.892 501.645 121.079 501.191C120.279 500.725 119.645 500.091 119.179 499.291C118.712 498.478 118.479 497.551 118.479 496.511C118.479 495.458 118.712 494.531 119.179 493.731C119.645 492.931 120.279 492.305 121.079 491.851C121.879 491.398 122.792 491.171 123.819 491.171C124.859 491.171 125.779 491.398 126.579 491.851C127.392 492.305 128.025 492.931 128.479 493.731C128.945 494.531 129.179 495.458 129.179 496.511C129.179 497.551 128.945 498.478 128.479 499.291C128.025 500.091 127.392 500.725 126.579 501.191C125.765 501.645 124.845 501.871 123.819 501.871ZM123.819 500.611C124.579 500.611 125.252 500.445 125.839 500.111C126.425 499.765 126.885 499.285 127.219 498.671C127.565 498.045 127.739 497.325 127.739 496.511C127.739 495.685 127.565 494.965 127.219 494.351C126.885 493.738 126.425 493.265 125.839 492.931C125.252 492.585 124.585 492.411 123.839 492.411C123.092 492.411 122.425 492.585 121.839 492.931C121.252 493.265 120.785 493.738 120.439 494.351C120.092 494.965 119.919 495.685 119.919 496.511C119.919 497.325 120.092 498.045 120.439 498.671C120.785 499.285 121.252 499.765 121.839 500.111C122.425 500.445 123.085 500.611 123.819 500.611ZM135.398 501.871C134.411 501.871 133.651 501.605 133.118 501.071C132.584 500.538 132.318 499.785 132.318 498.811V488.951H133.738V498.731C133.738 499.345 133.891 499.818 134.198 500.151C134.518 500.485 134.971 500.651 135.558 500.651C136.184 500.651 136.704 500.471 137.118 500.111L137.618 501.131C137.338 501.385 136.998 501.571 136.598 501.691C136.211 501.811 135.811 501.871 135.398 501.871ZM130.438 492.451V491.271H136.938V492.451H130.438ZM150.797 491.171C151.65 491.171 152.397 491.338 153.037 491.671C153.69 491.991 154.197 492.485 154.557 493.151C154.93 493.818 155.117 494.658 155.117 495.671V501.771H153.697V495.811C153.697 494.705 153.417 493.871 152.857 493.311C152.31 492.738 151.537 492.451 150.537 492.451C149.79 492.451 149.137 492.605 148.577 492.911C148.03 493.205 147.604 493.638 147.297 494.211C147.004 494.771 146.857 495.451 146.857 496.251V501.771H145.437V486.931H146.857V494.151L146.577 493.611C146.91 492.851 147.444 492.258 148.177 491.831C148.91 491.391 149.784 491.171 150.797 491.171ZM165.533 501.771V499.451L165.473 499.071V495.191C165.473 494.298 165.219 493.611 164.713 493.131C164.219 492.651 163.479 492.411 162.493 492.411C161.813 492.411 161.166 492.525 160.553 492.751C159.939 492.978 159.419 493.278 158.993 493.651L158.353 492.591C158.886 492.138 159.526 491.791 160.273 491.551C161.019 491.298 161.806 491.171 162.633 491.171C163.993 491.171 165.039 491.511 165.773 492.191C166.519 492.858 166.893 493.878 166.893 495.251V501.771H165.533ZM161.913 501.871C161.126 501.871 160.439 501.745 159.853 501.491C159.279 501.225 158.839 500.865 158.533 500.411C158.226 499.945 158.073 499.411 158.073 498.811C158.073 498.265 158.199 497.771 158.453 497.331C158.719 496.878 159.146 496.518 159.733 496.251C160.333 495.971 161.133 495.831 162.133 495.831H165.753V496.891H162.173C161.159 496.891 160.453 497.071 160.053 497.431C159.666 497.791 159.473 498.238 159.473 498.771C159.473 499.371 159.706 499.851 160.173 500.211C160.639 500.571 161.293 500.751 162.133 500.751C162.933 500.751 163.619 500.571 164.193 500.211C164.779 499.838 165.206 499.305 165.473 498.611L165.793 499.591C165.526 500.285 165.059 500.838 164.393 501.251C163.739 501.665 162.913 501.871 161.913 501.871ZM173.254 501.771L168.594 491.271H170.074L174.354 501.011H173.654L177.994 491.271H179.394L174.714 501.771H173.254ZM185.561 501.871C184.468 501.871 183.508 501.645 182.681 501.191C181.854 500.725 181.208 500.091 180.741 499.291C180.274 498.478 180.041 497.551 180.041 496.511C180.041 495.471 180.261 494.551 180.701 493.751C181.154 492.951 181.768 492.325 182.541 491.871C183.328 491.405 184.208 491.171 185.181 491.171C186.168 491.171 187.041 491.398 187.801 491.851C188.574 492.291 189.181 492.918 189.621 493.731C190.061 494.531 190.281 495.458 190.281 496.511C190.281 496.578 190.274 496.651 190.261 496.731C190.261 496.798 190.261 496.871 190.261 496.951H181.121V495.891H189.501L188.941 496.311C188.941 495.551 188.774 494.878 188.441 494.291C188.121 493.691 187.681 493.225 187.121 492.891C186.561 492.558 185.914 492.391 185.181 492.391C184.461 492.391 183.814 492.558 183.241 492.891C182.668 493.225 182.221 493.691 181.901 494.291C181.581 494.891 181.421 495.578 181.421 496.351V496.571C181.421 497.371 181.594 498.078 181.941 498.691C182.301 499.291 182.794 499.765 183.421 500.111C184.061 500.445 184.788 500.611 185.601 500.611C186.241 500.611 186.834 500.498 187.381 500.271C187.941 500.045 188.421 499.698 188.821 499.231L189.621 500.151C189.154 500.711 188.568 501.138 187.861 501.431C187.168 501.725 186.401 501.871 185.561 501.871ZM211.526 491.171C212.379 491.171 213.119 491.338 213.746 491.671C214.386 491.991 214.879 492.485 215.226 493.151C215.586 493.818 215.766 494.658 215.766 495.671V501.771H214.346V495.811C214.346 494.705 214.079 493.871 213.546 493.311C213.026 492.738 212.286 492.451 211.326 492.451C210.606 492.451 209.979 492.605 209.446 492.911C208.926 493.205 208.519 493.638 208.226 494.211C207.946 494.771 207.806 495.451 207.806 496.251V501.771H206.386V495.811C206.386 494.705 206.119 493.871 205.586 493.311C205.052 492.738 204.306 492.451 203.346 492.451C202.639 492.451 202.019 492.605 201.486 492.911C200.952 493.205 200.539 493.638 200.246 494.211C199.966 494.771 199.826 495.451 199.826 496.251V501.771H198.406V491.271H199.766V494.111L199.546 493.611C199.866 492.851 200.379 492.258 201.086 491.831C201.806 491.391 202.652 491.171 203.626 491.171C204.652 491.171 205.526 491.431 206.246 491.951C206.966 492.458 207.432 493.225 207.646 494.251L207.086 494.031C207.392 493.178 207.932 492.491 208.706 491.971C209.492 491.438 210.432 491.171 211.526 491.171ZM226.197 501.771V499.451L226.137 499.071V495.191C226.137 494.298 225.883 493.611 225.377 493.131C224.883 492.651 224.143 492.411 223.157 492.411C222.477 492.411 221.83 492.525 221.217 492.751C220.603 492.978 220.083 493.278 219.657 493.651L219.017 492.591C219.55 492.138 220.19 491.791 220.937 491.551C221.683 491.298 222.47 491.171 223.297 491.171C224.657 491.171 225.703 491.511 226.437 492.191C227.183 492.858 227.557 493.878 227.557 495.251V501.771H226.197ZM222.577 501.871C221.79 501.871 221.103 501.745 220.517 501.491C219.943 501.225 219.503 500.865 219.197 500.411C218.89 499.945 218.737 499.411 218.737 498.811C218.737 498.265 218.863 497.771 219.117 497.331C219.383 496.878 219.81 496.518 220.397 496.251C220.997 495.971 221.797 495.831 222.797 495.831H226.417V496.891H222.837C221.823 496.891 221.117 497.071 220.717 497.431C220.33 497.791 220.137 498.238 220.137 498.771C220.137 499.371 220.37 499.851 220.837 500.211C221.303 500.571 221.957 500.751 222.797 500.751C223.597 500.751 224.283 500.571 224.857 500.211C225.443 499.838 225.87 499.305 226.137 498.611L226.457 499.591C226.19 500.285 225.723 500.838 225.057 501.251C224.403 501.665 223.577 501.871 222.577 501.871ZM235.594 501.871C234.594 501.871 233.694 501.645 232.894 501.191C232.107 500.738 231.487 500.111 231.034 499.311C230.58 498.498 230.354 497.565 230.354 496.511C230.354 495.445 230.58 494.511 231.034 493.711C231.487 492.911 232.107 492.291 232.894 491.851C233.694 491.398 234.594 491.171 235.594 491.171C236.514 491.171 237.334 491.378 238.054 491.791C238.787 492.205 239.367 492.811 239.794 493.611C240.234 494.398 240.454 495.365 240.454 496.511C240.454 497.645 240.24 498.611 239.814 499.411C239.387 500.211 238.807 500.825 238.074 501.251C237.354 501.665 236.527 501.871 235.594 501.871ZM235.694 500.611C236.44 500.611 237.107 500.445 237.694 500.111C238.294 499.765 238.76 499.285 239.094 498.671C239.44 498.045 239.614 497.325 239.614 496.511C239.614 495.685 239.44 494.965 239.094 494.351C238.76 493.738 238.294 493.265 237.694 492.931C237.107 492.585 236.44 492.411 235.694 492.411C234.96 492.411 234.3 492.585 233.714 492.931C233.127 493.265 232.66 493.738 232.314 494.351C231.967 494.965 231.794 495.685 231.794 496.511C231.794 497.325 231.967 498.045 232.314 498.671C232.66 499.285 233.127 499.765 233.714 500.111C234.3 500.445 234.96 500.611 235.694 500.611ZM239.654 501.771V498.611L239.794 496.491L239.594 494.371V486.931H241.014V501.771H239.654ZM249.428 501.871C248.335 501.871 247.375 501.645 246.548 501.191C245.722 500.725 245.075 500.091 244.608 499.291C244.142 498.478 243.908 497.551 243.908 496.511C243.908 495.471 244.128 494.551 244.568 493.751C245.022 492.951 245.635 492.325 246.408 491.871C247.195 491.405 248.075 491.171 249.048 491.171C250.035 491.171 250.908 491.398 251.668 491.851C252.442 492.291 253.048 492.918 253.488 493.731C253.928 494.531 254.148 495.458 254.148 496.511C254.148 496.578 254.142 496.651 254.128 496.731C254.128 496.798 254.128 496.871 254.128 496.951H244.988V495.891H253.368L252.808 496.311C252.808 495.551 252.642 494.878 252.308 494.291C251.988 493.691 251.548 493.225 250.988 492.891C250.428 492.558 249.782 492.391 249.048 492.391C248.328 492.391 247.682 492.558 247.108 492.891C246.535 493.225 246.088 493.691 245.768 494.291C245.448 494.891 245.288 495.578 245.288 496.351V496.571C245.288 497.371 245.462 498.078 245.808 498.691C246.168 499.291 246.662 499.765 247.288 500.111C247.928 500.445 248.655 500.611 249.468 500.611C250.108 500.611 250.702 500.498 251.248 500.271C251.808 500.045 252.288 499.698 252.688 499.231L253.488 500.151C253.022 500.711 252.435 501.138 251.728 501.431C251.035 501.725 250.268 501.871 249.428 501.871ZM268.853 501.771V499.451L268.793 499.071V495.191C268.793 494.298 268.54 493.611 268.033 493.131C267.54 492.651 266.8 492.411 265.813 492.411C265.133 492.411 264.486 492.525 263.873 492.751C263.26 492.978 262.74 493.278 262.313 493.651L261.673 492.591C262.206 492.138 262.846 491.791 263.593 491.551C264.34 491.298 265.126 491.171 265.953 491.171C267.313 491.171 268.36 491.511 269.093 492.191C269.84 492.858 270.213 493.878 270.213 495.251V501.771H268.853ZM265.233 501.871C264.446 501.871 263.76 501.745 263.173 501.491C262.6 501.225 262.16 500.865 261.853 500.411C261.546 499.945 261.393 499.411 261.393 498.811C261.393 498.265 261.52 497.771 261.773 497.331C262.04 496.878 262.466 496.518 263.053 496.251C263.653 495.971 264.453 495.831 265.453 495.831H269.073V496.891H265.493C264.48 496.891 263.773 497.071 263.373 497.431C262.986 497.791 262.793 498.238 262.793 498.771C262.793 499.371 263.026 499.851 263.493 500.211C263.96 500.571 264.613 500.751 265.453 500.751C266.253 500.751 266.94 500.571 267.513 500.211C268.1 499.838 268.526 499.305 268.793 498.611L269.113 499.591C268.846 500.285 268.38 500.838 267.713 501.251C267.06 501.665 266.233 501.871 265.233 501.871ZM279.43 491.171C280.283 491.171 281.03 491.338 281.67 491.671C282.323 491.991 282.83 492.485 283.19 493.151C283.563 493.818 283.75 494.658 283.75 495.671V501.771H282.33V495.811C282.33 494.705 282.05 493.871 281.49 493.311C280.943 492.738 280.17 492.451 279.17 492.451C278.423 492.451 277.77 492.605 277.21 492.911C276.663 493.205 276.237 493.638 275.93 494.211C275.637 494.771 275.49 495.451 275.49 496.251V501.771H274.07V491.271H275.43V494.151L275.21 493.611C275.543 492.851 276.077 492.258 276.81 491.831C277.543 491.391 278.417 491.171 279.43 491.171ZM287.47 505.751C286.977 505.751 286.503 505.671 286.05 505.511C285.61 505.351 285.23 505.111 284.91 504.791L285.57 503.731C285.837 503.985 286.123 504.178 286.43 504.311C286.75 504.458 287.103 504.531 287.49 504.531C287.957 504.531 288.357 504.398 288.69 504.131C289.037 503.878 289.363 503.425 289.67 502.771L290.35 501.231L290.51 501.011L294.83 491.271H296.23L290.97 503.031C290.677 503.711 290.35 504.251 289.99 504.651C289.643 505.051 289.263 505.331 288.85 505.491C288.437 505.665 287.977 505.751 287.47 505.751ZM290.27 502.071L285.43 491.271H286.91L291.19 500.911L290.27 502.071ZM306.784 501.871C305.798 501.871 305.038 501.605 304.504 501.071C303.971 500.538 303.704 499.785 303.704 498.811V488.951H305.124V498.731C305.124 499.345 305.278 499.818 305.584 500.151C305.904 500.485 306.358 500.651 306.944 500.651C307.571 500.651 308.091 500.471 308.504 500.111L309.004 501.131C308.724 501.385 308.384 501.571 307.984 501.691C307.598 501.811 307.198 501.871 306.784 501.871ZM301.824 492.451V491.271H308.324V492.451H301.824ZM311.589 501.771V491.271H312.949V494.131L312.809 493.631C313.103 492.831 313.596 492.225 314.289 491.811C314.983 491.385 315.843 491.171 316.869 491.171V492.551C316.816 492.551 316.763 492.551 316.709 492.551C316.656 492.538 316.603 492.531 316.549 492.531C315.443 492.531 314.576 492.871 313.949 493.551C313.323 494.218 313.009 495.171 313.009 496.411V501.771H311.589ZM319.46 501.771V491.271H320.88V501.771H319.46ZM320.18 488.951C319.887 488.951 319.64 488.851 319.44 488.651C319.24 488.451 319.14 488.211 319.14 487.931C319.14 487.651 319.24 487.418 319.44 487.231C319.64 487.031 319.887 486.931 320.18 486.931C320.474 486.931 320.72 487.025 320.92 487.211C321.12 487.398 321.22 487.631 321.22 487.911C321.22 488.205 321.12 488.451 320.92 488.651C320.734 488.851 320.487 488.951 320.18 488.951ZM330.252 501.871C329.345 501.871 328.525 501.665 327.792 501.251C327.058 500.825 326.472 500.218 326.032 499.431C325.605 498.631 325.392 497.658 325.392 496.511C325.392 495.365 325.605 494.398 326.032 493.611C326.458 492.811 327.038 492.205 327.772 491.791C328.505 491.378 329.332 491.171 330.252 491.171C331.252 491.171 332.145 491.398 332.932 491.851C333.732 492.291 334.358 492.918 334.812 493.731C335.265 494.531 335.492 495.458 335.492 496.511C335.492 497.578 335.265 498.511 334.812 499.311C334.358 500.111 333.732 500.738 332.932 501.191C332.145 501.645 331.252 501.871 330.252 501.871ZM324.832 505.651V491.271H326.192V494.431L326.052 496.531L326.252 498.651V505.651H324.832ZM330.152 500.611C330.898 500.611 331.565 500.445 332.152 500.111C332.738 499.765 333.205 499.285 333.552 498.671C333.898 498.045 334.072 497.325 334.072 496.511C334.072 495.698 333.898 494.985 333.552 494.371C333.205 493.758 332.738 493.278 332.152 492.931C331.565 492.585 330.898 492.411 330.152 492.411C329.405 492.411 328.732 492.585 328.132 492.931C327.545 493.278 327.078 493.758 326.732 494.371C326.398 494.985 326.232 495.698 326.232 496.511C326.232 497.325 326.398 498.045 326.732 498.671C327.078 499.285 327.545 499.765 328.132 500.111C328.732 500.445 329.405 500.611 330.152 500.611ZM341.206 501.871C340.34 501.871 339.52 501.751 338.746 501.511C337.973 501.258 337.366 500.945 336.926 500.571L337.566 499.451C337.993 499.771 338.54 500.051 339.206 500.291C339.873 500.518 340.573 500.631 341.306 500.631C342.306 500.631 343.026 500.478 343.466 500.171C343.906 499.851 344.126 499.431 344.126 498.911C344.126 498.525 344 498.225 343.746 498.011C343.506 497.785 343.186 497.618 342.786 497.511C342.386 497.391 341.94 497.291 341.446 497.211C340.953 497.131 340.46 497.038 339.966 496.931C339.486 496.825 339.046 496.671 338.646 496.471C338.246 496.258 337.92 495.971 337.666 495.611C337.426 495.251 337.306 494.771 337.306 494.171C337.306 493.598 337.466 493.085 337.786 492.631C338.106 492.178 338.573 491.825 339.186 491.571C339.813 491.305 340.573 491.171 341.466 491.171C342.146 491.171 342.826 491.265 343.506 491.451C344.186 491.625 344.746 491.858 345.186 492.151L344.566 493.291C344.1 492.971 343.6 492.745 343.066 492.611C342.533 492.465 342 492.391 341.466 492.391C340.52 492.391 339.82 492.558 339.366 492.891C338.926 493.211 338.706 493.625 338.706 494.131C338.706 494.531 338.826 494.845 339.066 495.071C339.32 495.298 339.646 495.478 340.046 495.611C340.46 495.731 340.906 495.831 341.386 495.911C341.88 495.991 342.366 496.091 342.846 496.211C343.34 496.318 343.786 496.471 344.186 496.671C344.6 496.858 344.926 497.131 345.166 497.491C345.42 497.838 345.546 498.298 345.546 498.871C345.546 499.485 345.373 500.018 345.026 500.471C344.693 500.911 344.2 501.258 343.546 501.511C342.906 501.751 342.126 501.871 341.206 501.871ZM357.666 501.871C356.653 501.871 355.74 501.645 354.926 501.191C354.126 500.725 353.493 500.091 353.026 499.291C352.56 498.478 352.326 497.551 352.326 496.511C352.326 495.458 352.56 494.531 353.026 493.731C353.493 492.931 354.126 492.305 354.926 491.851C355.726 491.398 356.64 491.171 357.666 491.171C358.706 491.171 359.626 491.398 360.426 491.851C361.24 492.305 361.873 492.931 362.326 493.731C362.793 494.531 363.026 495.458 363.026 496.511C363.026 497.551 362.793 498.478 362.326 499.291C361.873 500.091 361.24 500.725 360.426 501.191C359.613 501.645 358.693 501.871 357.666 501.871ZM357.666 500.611C358.426 500.611 359.1 500.445 359.686 500.111C360.273 499.765 360.733 499.285 361.066 498.671C361.413 498.045 361.586 497.325 361.586 496.511C361.586 495.685 361.413 494.965 361.066 494.351C360.733 493.738 360.273 493.265 359.686 492.931C359.1 492.585 358.433 492.411 357.686 492.411C356.94 492.411 356.273 492.585 355.686 492.931C355.1 493.265 354.633 493.738 354.286 494.351C353.94 494.965 353.766 495.685 353.766 496.511C353.766 497.325 353.94 498.045 354.286 498.671C354.633 499.285 355.1 499.765 355.686 500.111C356.273 500.445 356.933 500.611 357.666 500.611ZM371.285 491.171C372.139 491.171 372.885 491.338 373.525 491.671C374.179 491.991 374.685 492.485 375.045 493.151C375.419 493.818 375.605 494.658 375.605 495.671V501.771H374.185V495.811C374.185 494.705 373.905 493.871 373.345 493.311C372.799 492.738 372.025 492.451 371.025 492.451C370.279 492.451 369.625 492.605 369.065 492.911C368.519 493.205 368.092 493.638 367.785 494.211C367.492 494.771 367.345 495.451 367.345 496.251V501.771H365.925V491.271H367.285V494.151L367.065 493.611C367.399 492.851 367.932 492.258 368.665 491.831C369.399 491.391 370.272 491.171 371.285 491.171ZM387.995 501.871C387.009 501.871 386.249 501.605 385.715 501.071C385.182 500.538 384.915 499.785 384.915 498.811V488.951H386.335V498.731C386.335 499.345 386.489 499.818 386.795 500.151C387.115 500.485 387.569 500.651 388.155 500.651C388.782 500.651 389.302 500.471 389.715 500.111L390.215 501.131C389.935 501.385 389.595 501.571 389.195 501.691C388.809 501.811 388.409 501.871 387.995 501.871ZM383.035 492.451V491.271H389.535V492.451H383.035ZM398.16 491.171C399.014 491.171 399.76 491.338 400.4 491.671C401.054 491.991 401.56 492.485 401.92 493.151C402.294 493.818 402.48 494.658 402.48 495.671V501.771H401.06V495.811C401.06 494.705 400.78 493.871 400.22 493.311C399.674 492.738 398.9 492.451 397.9 492.451C397.154 492.451 396.5 492.605 395.94 492.911C395.394 493.205 394.967 493.638 394.66 494.211C394.367 494.771 394.22 495.451 394.22 496.251V501.771H392.8V486.931H394.22V494.151L393.94 493.611C394.274 492.851 394.807 492.258 395.54 491.831C396.274 491.391 397.147 491.171 398.16 491.171ZM406.316 501.771V491.271H407.736V501.771H406.316ZM407.036 488.951C406.743 488.951 406.496 488.851 406.296 488.651C406.096 488.451 405.996 488.211 405.996 487.931C405.996 487.651 406.096 487.418 406.296 487.231C406.496 487.031 406.743 486.931 407.036 486.931C407.329 486.931 407.576 487.025 407.776 487.211C407.976 487.398 408.076 487.631 408.076 487.911C408.076 488.205 407.976 488.451 407.776 488.651C407.589 488.851 407.343 488.951 407.036 488.951ZM414.507 501.871C413.64 501.871 412.82 501.751 412.047 501.511C411.274 501.258 410.667 500.945 410.227 500.571L410.867 499.451C411.294 499.771 411.84 500.051 412.507 500.291C413.174 500.518 413.874 500.631 414.607 500.631C415.607 500.631 416.327 500.478 416.767 500.171C417.207 499.851 417.427 499.431 417.427 498.911C417.427 498.525 417.3 498.225 417.047 498.011C416.807 497.785 416.487 497.618 416.087 497.511C415.687 497.391 415.24 497.291 414.747 497.211C414.254 497.131 413.76 497.038 413.267 496.931C412.787 496.825 412.347 496.671 411.947 496.471C411.547 496.258 411.22 495.971 410.967 495.611C410.727 495.251 410.607 494.771 410.607 494.171C410.607 493.598 410.767 493.085 411.087 492.631C411.407 492.178 411.874 491.825 412.487 491.571C413.114 491.305 413.874 491.171 414.767 491.171C415.447 491.171 416.127 491.265 416.807 491.451C417.487 491.625 418.047 491.858 418.487 492.151L417.867 493.291C417.4 492.971 416.9 492.745 416.367 492.611C415.834 492.465 415.3 492.391 414.767 492.391C413.82 492.391 413.12 492.558 412.667 492.891C412.227 493.211 412.007 493.625 412.007 494.131C412.007 494.531 412.127 494.845 412.367 495.071C412.62 495.298 412.947 495.478 413.347 495.611C413.76 495.731 414.207 495.831 414.687 495.911C415.18 495.991 415.667 496.091 416.147 496.211C416.64 496.318 417.087 496.471 417.487 496.671C417.9 496.858 418.227 497.131 418.467 497.491C418.72 497.838 418.847 498.298 418.847 498.871C418.847 499.485 418.674 500.018 418.327 500.471C417.994 500.911 417.5 501.258 416.847 501.511C416.207 501.751 415.427 501.871 414.507 501.871ZM439.807 491.171C440.66 491.171 441.4 491.338 442.027 491.671C442.667 491.991 443.16 492.485 443.507 493.151C443.867 493.818 444.047 494.658 444.047 495.671V501.771H442.627V495.811C442.627 494.705 442.36 493.871 441.827 493.311C441.307 492.738 440.567 492.451 439.607 492.451C438.887 492.451 438.26 492.605 437.727 492.911C437.207 493.205 436.8 493.638 436.507 494.211C436.227 494.771 436.087 495.451 436.087 496.251V501.771H434.667V495.811C434.667 494.705 434.4 493.871 433.867 493.311C433.334 492.738 432.587 492.451 431.627 492.451C430.92 492.451 430.3 492.605 429.767 492.911C429.234 493.205 428.82 493.638 428.527 494.211C428.247 494.771 428.107 495.451 428.107 496.251V501.771H426.687V491.271H428.047V494.111L427.827 493.611C428.147 492.851 428.66 492.258 429.367 491.831C430.087 491.391 430.934 491.171 431.907 491.171C432.934 491.171 433.807 491.431 434.527 491.951C435.247 492.458 435.714 493.225 435.927 494.251L435.367 494.031C435.674 493.178 436.214 492.491 436.987 491.971C437.774 491.438 438.714 491.171 439.807 491.171ZM452.178 501.871C451.165 501.871 450.251 501.645 449.438 501.191C448.638 500.725 448.005 500.091 447.538 499.291C447.071 498.478 446.838 497.551 446.838 496.511C446.838 495.458 447.071 494.531 447.538 493.731C448.005 492.931 448.638 492.305 449.438 491.851C450.238 491.398 451.151 491.171 452.178 491.171C453.218 491.171 454.138 491.398 454.938 491.851C455.751 492.305 456.385 492.931 456.838 493.731C457.305 494.531 457.538 495.458 457.538 496.511C457.538 497.551 457.305 498.478 456.838 499.291C456.385 500.091 455.751 500.725 454.938 501.191C454.125 501.645 453.205 501.871 452.178 501.871ZM452.178 500.611C452.938 500.611 453.611 500.445 454.198 500.111C454.785 499.765 455.245 499.285 455.578 498.671C455.925 498.045 456.098 497.325 456.098 496.511C456.098 495.685 455.925 494.965 455.578 494.351C455.245 493.738 454.785 493.265 454.198 492.931C453.611 492.585 452.945 492.411 452.198 492.411C451.451 492.411 450.785 492.585 450.198 492.931C449.611 493.265 449.145 493.738 448.798 494.351C448.451 494.965 448.278 495.685 448.278 496.511C448.278 497.325 448.451 498.045 448.798 498.671C449.145 499.285 449.611 499.765 450.198 500.111C450.785 500.445 451.445 500.611 452.178 500.611ZM465.797 491.171C466.65 491.171 467.397 491.338 468.037 491.671C468.69 491.991 469.197 492.485 469.557 493.151C469.93 493.818 470.117 494.658 470.117 495.671V501.771H468.697V495.811C468.697 494.705 468.417 493.871 467.857 493.311C467.31 492.738 466.537 492.451 465.537 492.451C464.79 492.451 464.137 492.605 463.577 492.911C463.03 493.205 462.604 493.638 462.297 494.211C462.004 494.771 461.857 495.451 461.857 496.251V501.771H460.437V491.271H461.797V494.151L461.577 493.611C461.91 492.851 462.444 492.258 463.177 491.831C463.91 491.391 464.784 491.171 465.797 491.171ZM477.273 501.871C476.286 501.871 475.526 501.605 474.993 501.071C474.459 500.538 474.193 499.785 474.193 498.811V488.951H475.613V498.731C475.613 499.345 475.766 499.818 476.073 500.151C476.393 500.485 476.846 500.651 477.433 500.651C478.059 500.651 478.579 500.471 478.993 500.111L479.493 501.131C479.213 501.385 478.873 501.571 478.473 501.691C478.086 501.811 477.686 501.871 477.273 501.871ZM472.313 492.451V491.271H478.813V492.451H472.313ZM487.438 491.171C488.291 491.171 489.038 491.338 489.678 491.671C490.331 491.991 490.838 492.485 491.198 493.151C491.571 493.818 491.758 494.658 491.758 495.671V501.771H490.338V495.811C490.338 494.705 490.058 493.871 489.498 493.311C488.951 492.738 488.178 492.451 487.178 492.451C486.431 492.451 485.778 492.605 485.218 492.911C484.671 493.205 484.244 493.638 483.938 494.211C483.644 494.771 483.498 495.451 483.498 496.251V501.771H482.078V486.931H483.498V494.151L483.218 493.611C483.551 492.851 484.084 492.258 484.818 491.831C485.551 491.391 486.424 491.171 487.438 491.171Z" fill="#1B1B1B"/>
<path d="M515 337.222H0V337.48H515V337.222Z" fill="#EBEBEB"/>
<path d="M463.397 353.795H429.283V354.052H463.397V353.795Z" fill="#EBEBEB"/>
<path d="M341.157 356.596H332.206V356.854H341.157V356.596Z" fill="#EBEBEB"/>
<path d="M428.253 344.236H408.488V344.494H428.253V344.236Z" fill="#EBEBEB"/>
<path d="M98.5196 345.966H54.0339V346.224H98.5196V345.966Z" fill="#EBEBEB"/>
<path d="M114.217 345.966H107.697V346.224H114.217V345.966Z" fill="#EBEBEB"/>
<path d="M231.905 350.313H135.414V350.57H231.905V350.313Z" fill="#EBEBEB"/>
<path d="M244.11 291.284H45.2273C43.6693 291.281 42.176 290.66 41.0753 289.558C39.9745 288.455 39.3563 286.961 39.3563 285.403V5.8298C39.3699 4.28071 39.9941 2.79952 41.0934 1.70796C42.1926 0.616412 43.6782 0.00265368 45.2273 0H244.11C245.67 0 247.166 0.619635 248.269 1.72259C249.372 2.82555 249.991 4.32148 249.991 5.8813V285.403C249.991 286.962 249.372 288.458 248.269 289.561C247.166 290.664 245.67 291.284 244.11 291.284ZM45.2273 0.206001C43.7376 0.208729 42.3098 0.802437 41.2574 1.85681C40.2049 2.91118 39.6138 4.34006 39.6138 5.8298V285.403C39.6138 286.892 40.2049 288.321 41.2574 289.376C42.3098 290.43 43.7376 291.024 45.2273 291.026H244.11C245.601 291.024 247.03 290.43 248.084 289.376C249.138 288.322 249.731 286.893 249.734 285.403V5.8298C249.731 4.33911 249.138 2.91026 248.084 1.85618C247.03 0.802102 245.601 0.208724 244.11 0.206001H45.2273Z" fill="#EBEBEB"/>
<path d="M466.91 291.284H268.017C266.458 291.281 264.963 290.661 263.861 289.558C262.759 288.456 262.138 286.962 262.135 285.403V5.8298C262.152 4.27977 262.778 2.79859 263.879 1.70732C264.98 0.616052 266.466 0.00262474 268.017 0H466.91C468.457 0.00536063 469.94 0.620317 471.037 1.71158C472.134 2.80284 472.757 4.28248 472.77 5.8298V285.403C472.77 286.959 472.153 288.452 471.055 289.554C469.956 290.656 468.466 291.279 466.91 291.284ZM268.017 0.206001C266.526 0.208724 265.097 0.802102 264.043 1.85618C262.989 2.91026 262.395 4.33911 262.393 5.8298V285.403C262.395 286.893 262.989 288.322 264.043 289.376C265.097 290.43 266.526 291.024 268.017 291.026H466.91C468.4 291.024 469.829 290.43 470.883 289.376C471.937 288.322 472.531 286.893 472.533 285.403V5.8298C472.531 4.33911 471.937 2.91026 470.883 1.85618C469.829 0.802102 468.4 0.208724 466.91 0.206001H268.017Z" fill="#EBEBEB"/>
<path d="M298.381 122.631L440.294 122.631V29.6945L298.381 29.6945V122.631Z" fill="#E6E6E6"/>
<path d="M294.045 122.631L438.265 122.631V29.6945L294.045 29.6945V122.631Z" fill="#F0F0F0"/>
<path d="M298.381 140.863L440.294 140.863V122.621L298.381 122.621V140.863Z" fill="#E6E6E6"/>
<path d="M286.845 140.863L431.065 140.863V122.621L286.845 122.621V140.863Z" fill="#F0F0F0"/>
<path d="M432.208 116.576V35.7617L300.111 35.7617V116.576L432.208 116.576Z" fill="#FAFAFA"/>
<path d="M402.421 116.565L385.55 35.7617H359.223L376.094 116.565H402.421Z" fill="white"/>
<path d="M429.407 110.539C429.465 110.539 429.522 110.528 429.575 110.505C429.628 110.483 429.676 110.45 429.717 110.409C429.757 110.368 429.789 110.319 429.81 110.265C429.831 110.211 429.841 110.154 429.84 110.096V39.7062C429.84 39.5914 429.794 39.4814 429.713 39.4003C429.632 39.3191 429.522 39.2736 429.407 39.2736C429.35 39.2722 429.293 39.2824 429.24 39.3036C429.187 39.3249 429.139 39.3567 429.098 39.3971C429.058 39.4376 429.026 39.4858 429.005 39.539C428.983 39.5921 428.973 39.649 428.974 39.7062V110.096C428.973 110.154 428.983 110.211 429.004 110.265C429.026 110.319 429.057 110.368 429.097 110.409C429.138 110.45 429.186 110.483 429.239 110.505C429.292 110.528 429.349 110.539 429.407 110.539Z" fill="#F0F0F0"/>
<path d="M370.439 116.565L353.568 35.7617H343.299L360.181 116.565H370.439Z" fill="white"/>
<path d="M300.884 116.576V35.7617H300.111V116.576H300.884Z" fill="#E6E6E6"/>
<path opacity="0.6" d="M292.623 44.898H434.536L435.093 38.1104H293.179L292.623 44.898Z" fill="#EBEBEB"/>
<path opacity="0.6" d="M292.623 56.022H434.536L435.093 49.2446H293.179L292.623 56.022Z" fill="#EBEBEB"/>
<path opacity="0.6" d="M292.623 67.1451H434.536L435.093 60.3677H293.179L292.623 67.1451Z" fill="#EBEBEB"/>
<path opacity="0.6" d="M292.623 78.2799H434.536L435.093 71.4922H293.179L292.623 78.2799Z" fill="#EBEBEB"/>
<path opacity="0.6" d="M292.623 89.4039H434.536L435.093 82.6162H293.179L292.623 89.4039Z" fill="#EBEBEB"/>
<path opacity="0.6" d="M292.623 100.528H434.536L435.093 93.7402H293.179L292.623 100.528Z" fill="#EBEBEB"/>
<path d="M419.921 269.634H390.164V275.505H419.921V269.634Z" fill="#E6E6E6"/>
<path d="M334.039 337.222H339.529V202.22H334.039V337.222Z" fill="#E6E6E6"/>
<path d="M315.005 275.504H390.154V269.633H315.005V275.504Z" fill="#F5F5F5"/>
<path d="M419.921 301.738H390.164V307.609H419.921V301.738Z" fill="#E6E6E6"/>
<path d="M315.005 307.599H390.154V301.728H315.005V307.599Z" fill="#F5F5F5"/>
<path d="M419.921 205.433H390.164V211.304H419.921V205.433Z" fill="#E6E6E6"/>
<path d="M315.005 211.294H390.154V205.423H315.005V211.294Z" fill="#F5F5F5"/>
<path d="M419.921 237.528H390.164V243.399H419.921V237.528Z" fill="#E6E6E6"/>
<path d="M315.005 243.399H390.154V237.528H315.005V243.399Z" fill="#F5F5F5"/>
<path d="M409.199 337.222H414.688V202.22H409.199V337.222Z" fill="#E6E6E6"/>
<path d="M384.664 337.222H390.154V202.22H384.664V337.222Z" fill="#F5F5F5"/>
<path d="M315.005 337.222H320.495V202.22H315.005V337.222Z" fill="#F5F5F5"/>
<path d="M67.3414 337.222H123.559L123.559 228.155H67.3414L67.3414 337.222Z" fill="#E6E6E6"/>
<path d="M82.3484 337.222H67.3311V322.164H98.0869L82.3484 337.222Z" fill="#FAFAFA"/>
<path d="M220.605 337.222H276.823V228.155H220.605V337.222Z" fill="#E6E6E6"/>
<path d="M67.3414 332.031H233.717V228.145H67.3414V332.031Z" fill="#FAFAFA"/>
<path d="M218.7 337.222H233.707V322.164H202.961L218.7 337.222Z" fill="#FAFAFA"/>
<path d="M78.9805 292.86H222.068V266.863H78.9805V292.86Z" fill="#F0F0F0"/>
<path d="M78.9805 324.409H222.068V298.412H78.9805V324.409Z" fill="#F0F0F0"/>
<path d="M194.876 269.644H106.183C104.932 269.644 103.732 269.147 102.847 268.262C101.962 267.377 101.465 266.177 101.465 264.926V264.607H199.583V264.926C199.583 266.175 199.088 267.374 198.205 268.258C197.323 269.143 196.125 269.641 194.876 269.644Z" fill="#FAFAFA"/>
<path d="M78.9805 261.301H222.068V235.304L78.9805 235.304V261.301Z" fill="#F0F0F0"/>
<path d="M194.876 238.085H106.183C104.932 238.085 103.732 237.588 102.847 236.703C101.962 235.819 101.465 234.619 101.465 233.368V233.048H199.583V233.368C199.583 234.617 199.088 235.815 198.205 236.7C197.323 237.584 196.125 238.082 194.876 238.085Z" fill="#FAFAFA"/>
<path d="M194.876 301.203H106.183C104.932 301.203 103.732 300.706 102.847 299.821C101.962 298.937 101.465 297.737 101.465 296.486V296.166H199.583V296.486C199.583 297.735 199.088 298.933 198.205 299.818C197.323 300.702 196.125 301.2 194.876 301.203Z" fill="#FAFAFA"/>
<path d="M76.2922 122.631L218.206 122.631V29.6945L76.2922 29.6945V122.631Z" fill="#E6E6E6"/>
<path d="M71.9659 122.631L216.187 122.631V29.6945L71.9659 29.6945V122.631Z" fill="#F0F0F0"/>
<path d="M76.2922 140.863L218.206 140.863V122.621L76.2922 122.621V140.863Z" fill="#E6E6E6"/>
<path d="M64.7457 140.863L208.966 140.863V122.621L64.7457 122.621V140.863Z" fill="#F0F0F0"/>
<path d="M210.12 116.576V35.7617L78.0224 35.7617V116.576L210.12 116.576Z" fill="#FAFAFA"/>
<path d="M180.332 116.565L163.461 35.7617H137.134L154.006 116.565H180.332Z" fill="white"/>
<path d="M207.308 110.539C207.366 110.539 207.423 110.528 207.476 110.505C207.529 110.483 207.577 110.45 207.618 110.409C207.658 110.368 207.69 110.319 207.711 110.265C207.732 110.211 207.742 110.154 207.741 110.096V39.7062C207.742 39.649 207.732 39.5921 207.711 39.539C207.689 39.4858 207.658 39.4376 207.617 39.3971C207.577 39.3567 207.528 39.3249 207.475 39.3036C207.422 39.2824 207.365 39.2722 207.308 39.2736C207.193 39.2736 207.083 39.3191 207.002 39.4003C206.921 39.4814 206.875 39.5914 206.875 39.7062V110.096C206.874 110.154 206.884 110.211 206.905 110.265C206.927 110.319 206.958 110.368 206.998 110.409C207.039 110.45 207.087 110.483 207.14 110.505C207.193 110.528 207.25 110.539 207.308 110.539Z" fill="#F0F0F0"/>
<path d="M148.351 116.565L131.479 35.7617H121.21L138.082 116.565H148.351Z" fill="white"/>
<path d="M78.795 116.576V35.7617H78.0225V116.576H78.795Z" fill="#E6E6E6"/>
<path opacity="0.6" d="M70.5242 44.898H212.438L212.994 38.1104H71.0804L70.5242 44.898Z" fill="#EBEBEB"/>
<path opacity="0.6" d="M70.5242 48.7296H212.438L212.994 41.9419H71.0804L70.5242 48.7296Z" fill="#EBEBEB"/>
<path opacity="0.6" d="M70.5242 52.5508H212.438L212.994 45.7734H71.0804L70.5242 52.5508Z" fill="#EBEBEB"/>
<path opacity="0.6" d="M70.5242 56.3819H212.438L212.994 49.5942H71.0804L70.5242 56.3819Z" fill="#EBEBEB"/>
<path opacity="0.6" d="M70.5242 60.2037H212.438L212.994 53.4263H71.0804L70.5242 60.2037Z" fill="#EBEBEB"/>
<path opacity="0.6" d="M70.5242 64.0348H212.438L212.994 57.2471H71.0804L70.5242 64.0348Z" fill="#EBEBEB"/>
<path d="M98.9006 224.818H103.803V170.136H98.9006V224.818Z" fill="#F5F5F5"/>
<path d="M99.5187 224.788H100.909V170.105H99.5187V224.788Z" fill="#FAFAFA"/>
<path d="M101.486 224.788H102.032V170.105H101.486V224.788Z" fill="#FAFAFA"/>
<path d="M119.511 228.156H83.2135C83.2135 226.943 83.6954 225.78 84.553 224.922C85.4106 224.064 86.5739 223.583 87.7867 223.583H114.927C116.14 223.583 117.303 224.064 118.161 224.922C119.019 225.78 119.5 226.943 119.5 228.156H119.511Z" fill="#F0F0F0"/>
<path d="M92.5352 204.084C92.9086 204.081 93.2659 203.932 93.53 203.668C93.794 203.404 93.9436 203.046 93.9463 202.673V166.86C93.9463 166.486 93.7976 166.127 93.533 165.862C93.2683 165.597 92.9094 165.449 92.5352 165.449C92.349 165.447 92.1644 165.483 91.992 165.553C91.8196 165.624 91.6628 165.727 91.5307 165.858C91.3986 165.99 91.2937 166.146 91.2222 166.317C91.1506 166.489 91.1138 166.674 91.1138 166.86V202.714C91.1271 203.082 91.2827 203.431 91.5479 203.686C91.813 203.942 92.1669 204.084 92.5352 204.084Z" fill="#F0F0F0"/>
<path d="M79.3821 183.134H123.312L118.254 152.44H84.4394L79.3821 183.134Z" fill="#E0E0E0"/>
<path d="M257.5 383.737C367.795 383.737 457.207 378.517 457.207 372.078C457.207 365.638 367.795 360.418 257.5 360.418C147.205 360.418 57.7932 365.638 57.7932 372.078C57.7932 378.517 147.205 383.737 257.5 383.737Z" fill="#F5F5F5"/>
<path d="M117.027 87.468L116 87.542L117.368 106.537L118.396 106.463L117.027 87.468Z" fill="#1C2CBC"/>
<path d="M119.094 116.269L118.066 116.343L118.581 123.494L119.609 123.42L119.094 116.269Z" fill="#1C2CBC"/>
<path d="M357.626 203.653H137.042C134.586 203.609 132.234 202.657 130.439 200.982C128.643 199.306 127.532 197.025 127.318 194.579L116.483 44.0646C116.382 42.9039 116.526 41.7348 116.904 40.6329C117.282 39.5309 117.888 38.5204 118.68 37.6665C119.473 36.8126 120.436 36.1343 121.507 35.6751C122.578 35.216 123.733 34.9862 124.898 35.0006H345.483C347.937 35.0445 350.287 35.9947 352.082 37.6681C353.878 39.3416 354.99 41.62 355.206 44.0646L366.042 194.579C366.142 195.74 365.999 196.909 365.62 198.012C365.242 199.114 364.637 200.125 363.844 200.98C363.052 201.835 362.089 202.514 361.018 202.974C359.947 203.435 358.792 203.666 357.626 203.653Z" fill="#1C2CBC"/>
<path d="M358.471 203.653H137.886C135.431 203.609 133.079 202.657 131.283 200.982C129.488 199.306 128.376 197.025 128.163 194.579L117.327 44.0646C117.227 42.9039 117.37 41.7348 117.749 40.6329C118.127 39.5309 118.732 38.5204 119.525 37.6665C120.318 36.8126 121.281 36.1343 122.351 35.6751C123.422 35.216 124.577 34.9862 125.743 35.0006H346.327C348.781 35.0445 351.132 35.9947 352.927 37.6681C354.722 39.3416 355.835 41.62 356.051 44.0646L366.886 194.579C366.988 195.74 366.846 196.91 366.468 198.013C366.09 199.117 365.486 200.128 364.693 200.984C363.9 201.839 362.936 202.518 361.865 202.978C360.793 203.437 359.637 203.667 358.471 203.653Z" fill="#1C2CBC"/>
<path opacity="0.5" d="M358.471 203.653H137.886C135.431 203.609 133.079 202.657 131.283 200.982C129.488 199.306 128.376 197.025 128.163 194.579L117.327 44.0646C117.227 42.9039 117.37 41.7348 117.749 40.6329C118.127 39.5309 118.732 38.5204 119.525 37.6665C120.318 36.8126 121.281 36.1343 122.351 35.6751C123.422 35.216 124.577 34.9862 125.743 35.0006H346.327C348.781 35.0445 351.132 35.9947 352.927 37.6681C354.722 39.3416 355.835 41.62 356.051 44.0646L366.886 194.579C366.988 195.74 366.846 196.91 366.468 198.013C366.09 199.117 365.486 200.128 364.693 200.984C363.9 201.839 362.936 202.518 361.865 202.978C360.793 203.437 359.637 203.667 358.471 203.653Z" fill="white"/>
<path d="M346.657 39.5322H126.072H125.33C119.696 39.9957 120.85 48.5756 126.536 48.5756H347.491C353.187 48.5756 353.105 39.9957 347.398 39.5322H346.657Z" fill="#1C2CBC"/>
<path d="M131.82 44.0641C131.841 44.3296 131.807 44.5968 131.719 44.8482C131.631 45.0997 131.491 45.3299 131.309 45.5241C131.126 45.7182 130.905 45.8719 130.66 45.9752C130.414 46.0786 130.15 46.1293 129.883 46.1241C129.323 46.1162 128.786 45.9014 128.376 45.521C127.965 45.1406 127.709 44.6216 127.659 44.0641C127.637 43.7994 127.671 43.5332 127.758 43.2824C127.846 43.0317 127.984 42.802 128.166 42.608C128.347 42.414 128.567 42.2601 128.811 42.1561C129.056 42.0521 129.319 42.0003 129.585 42.0041C130.146 42.0094 130.686 42.2231 131.099 42.6037C131.512 42.9844 131.769 43.5048 131.82 44.0641Z" fill="#FAFAFA"/>
<path d="M138.896 44.0641C138.917 44.3296 138.883 44.5968 138.795 44.8482C138.707 45.0997 138.567 45.3299 138.385 45.5241C138.202 45.7182 137.981 45.8719 137.736 45.9752C137.49 46.0786 137.226 46.1293 136.959 46.1241C136.4 46.1162 135.862 45.9014 135.452 45.521C135.041 45.1406 134.785 44.6216 134.735 44.0641C134.713 43.7994 134.747 43.5332 134.834 43.2824C134.922 43.0317 135.061 42.802 135.242 42.608C135.423 42.414 135.643 42.2601 135.887 42.1561C136.132 42.0521 136.395 42.0003 136.661 42.0041C137.222 42.0094 137.762 42.2231 138.175 42.6037C138.588 42.9844 138.845 43.5048 138.896 44.0641Z" fill="#FAFAFA"/>
<path d="M145.962 44.0643C145.983 44.3289 145.949 44.5952 145.862 44.8459C145.774 45.0967 145.636 45.3264 145.454 45.5204C145.273 45.7143 145.053 45.8682 144.809 45.9722C144.564 46.0762 144.301 46.128 144.035 46.1243C143.475 46.1187 142.937 45.9047 142.525 45.5238C142.114 45.143 141.859 44.6227 141.811 44.0643C141.787 43.7993 141.82 43.5324 141.907 43.2809C141.994 43.0294 142.133 42.7991 142.314 42.6047C142.496 42.4104 142.717 42.2565 142.962 42.1531C143.207 42.0496 143.471 41.9989 143.737 42.0043C144.297 42.0122 144.834 42.227 145.244 42.6074C145.655 42.9877 145.911 43.5067 145.962 44.0643Z" fill="#FAFAFA"/>
<path d="M352.621 188.635H141.625C140.734 188.62 139.88 188.275 139.229 187.666C138.578 187.057 138.176 186.228 138.102 185.339L129.193 61.5641C129.153 61.1393 129.204 60.711 129.343 60.3076C129.482 59.9041 129.704 59.5348 129.997 59.224C130.289 58.9133 130.644 58.6682 131.038 58.5052C131.432 58.3422 131.857 58.2648 132.283 58.2784H343.33C344.22 58.2906 345.074 58.6339 345.726 59.2413C346.377 59.8486 346.778 60.6767 346.853 61.5641L355.772 185.339C355.811 185.769 355.757 186.203 355.614 186.611C355.472 187.018 355.243 187.391 354.945 187.703C354.646 188.015 354.285 188.26 353.884 188.421C353.483 188.581 353.052 188.654 352.621 188.635Z" fill="white"/>
<path d="M263.711 141.482L260.271 93.7722L249.868 87.5098H221.224L225.117 141.482H263.711Z" fill="white"/>
<path d="M263.711 141.977H225.117C224.989 141.98 224.865 141.933 224.771 141.847C224.677 141.76 224.62 141.641 224.612 141.513L220.729 87.5414C220.724 87.4737 220.733 87.4057 220.757 87.3418C220.78 87.2779 220.816 87.2196 220.863 87.1707C220.908 87.1198 220.964 87.0789 221.026 87.0505C221.088 87.0222 221.155 87.007 221.223 87.0059H249.868C249.958 87.009 250.046 87.0337 250.125 87.078L260.528 93.3404C260.598 93.3805 260.657 93.4371 260.701 93.5053C260.744 93.5736 260.769 93.6513 260.775 93.7318L264.195 141.441C264.202 141.511 264.194 141.581 264.171 141.647C264.148 141.713 264.11 141.773 264.061 141.822C264.016 141.871 263.962 141.909 263.902 141.936C263.842 141.962 263.777 141.976 263.711 141.977ZM225.601 140.947H263.165L259.787 94.0305L249.775 88.005H221.759L225.601 140.947Z" fill="#1C2CBC"/>
<path d="M260.271 93.7722L249.868 87.5098L253.689 95.8116L260.271 93.7722Z" fill="#EBEBEB"/>
<path d="M253.689 96.3067C253.594 96.3062 253.501 96.2789 253.421 96.2278C253.341 96.1768 253.277 96.1042 253.236 96.0183L249.415 87.7165C249.37 87.6191 249.357 87.5101 249.377 87.4048C249.398 87.2996 249.45 87.2033 249.528 87.1294C249.61 87.0595 249.711 87.017 249.818 87.0078C249.926 86.9985 250.033 87.0231 250.125 87.0779L260.528 93.3403C260.612 93.3907 260.68 93.464 260.724 93.5516C260.768 93.6391 260.786 93.7373 260.776 93.8347C260.762 93.9295 260.722 94.0186 260.66 94.0916C260.598 94.1645 260.517 94.2183 260.425 94.2467L253.833 96.3067H253.689ZM251.001 88.7671L253.957 95.2046L259.107 93.6287L251.001 88.7671Z" fill="#1C2CBC"/>
<path d="M237.415 111.818C237.431 112.098 237.389 112.378 237.292 112.641C237.196 112.904 237.046 113.145 236.854 113.348C236.661 113.552 236.428 113.714 236.171 113.824C235.913 113.935 235.636 113.991 235.355 113.991C234.767 113.98 234.204 113.753 233.774 113.351C233.344 112.95 233.078 112.404 233.028 111.818C233.001 111.535 233.035 111.25 233.127 110.981C233.22 110.712 233.369 110.466 233.564 110.26C233.758 110.053 233.995 109.89 234.258 109.783C234.521 109.675 234.804 109.624 235.088 109.634C235.676 109.647 236.24 109.877 236.669 110.28C237.099 110.683 237.365 111.231 237.415 111.818Z" fill="#1C2CBC"/>
<path d="M251.526 111.818C251.551 112.1 251.516 112.384 251.423 112.651C251.33 112.919 251.181 113.163 250.986 113.369C250.791 113.574 250.555 113.736 250.293 113.843C250.031 113.951 249.749 114.001 249.466 113.991C248.877 113.981 248.313 113.753 247.881 113.352C247.45 112.951 247.181 112.405 247.128 111.818C247.111 111.537 247.152 111.256 247.248 110.992C247.344 110.727 247.493 110.485 247.686 110.281C247.879 110.076 248.112 109.913 248.37 109.802C248.629 109.691 248.907 109.634 249.188 109.634C249.78 109.643 250.347 109.871 250.779 110.274C251.211 110.678 251.478 111.228 251.526 111.818Z" fill="#1C2CBC"/>
<path d="M255.523 125.97C255.397 125.968 255.278 125.919 255.186 125.834C255.095 125.748 255.039 125.631 255.028 125.507C254.771 121.994 249.271 119.141 242.771 119.141C238.456 119.141 234.583 120.429 232.667 122.489C232.273 122.868 231.965 123.327 231.763 123.835C231.56 124.343 231.468 124.888 231.493 125.434C231.498 125.502 231.489 125.57 231.467 125.634C231.446 125.699 231.412 125.758 231.367 125.809C231.278 125.913 231.15 125.976 231.014 125.986C230.877 125.995 230.742 125.95 230.639 125.86C230.536 125.77 230.472 125.643 230.463 125.507C230.432 124.824 230.545 124.142 230.793 123.505C231.041 122.869 231.42 122.291 231.905 121.809C233.965 119.553 238.157 118.142 242.74 118.142C249.878 118.142 255.698 121.345 255.986 125.434C255.99 125.499 255.982 125.565 255.961 125.626C255.94 125.688 255.907 125.745 255.864 125.793C255.821 125.842 255.768 125.882 255.71 125.911C255.651 125.939 255.588 125.956 255.523 125.96V125.97Z" fill="#1C2CBC"/>
<path d="M229.35 107.41C229.225 107.407 229.104 107.36 229.01 107.276C228.917 107.182 228.864 107.054 228.864 106.921C228.864 106.788 228.917 106.66 229.01 106.565L231.204 104.207C231.298 104.116 231.424 104.065 231.555 104.065C231.685 104.065 231.811 104.116 231.905 104.207C231.951 104.253 231.987 104.307 232.012 104.367C232.037 104.427 232.05 104.492 232.05 104.557C232.05 104.622 232.037 104.686 232.012 104.747C231.987 104.807 231.951 104.861 231.905 104.907L229.711 107.266C229.664 107.313 229.607 107.35 229.545 107.375C229.483 107.4 229.417 107.412 229.35 107.41Z" fill="#1C2CBC"/>
<path d="M254.493 107.41C254.368 107.404 254.248 107.357 254.153 107.276L251.629 104.917C251.582 104.871 251.544 104.816 251.518 104.755C251.492 104.694 251.479 104.628 251.479 104.562C251.479 104.496 251.492 104.43 251.518 104.369C251.544 104.308 251.582 104.253 251.629 104.207C251.723 104.116 251.849 104.065 251.979 104.065C252.11 104.065 252.236 104.116 252.33 104.207L254.853 106.565C254.899 106.611 254.936 106.666 254.961 106.726C254.986 106.786 254.999 106.851 254.999 106.916C254.999 106.981 254.986 107.045 254.961 107.105C254.936 107.165 254.899 107.22 254.853 107.266C254.755 107.357 254.627 107.409 254.493 107.41Z" fill="#1C2CBC"/>
<path d="M218.113 152.143H220.441L223.799 156.613L223.479 152.143H225.828L226.404 160.218H224.025L220.688 155.778L221.007 160.218H218.659L218.113 152.143Z" fill="#1C2CBC"/>
<path d="M227.455 156.18C227.376 155.632 227.413 155.073 227.566 154.54C227.719 154.007 227.983 153.513 228.341 153.09C228.732 152.705 229.201 152.408 229.716 152.218C230.231 152.028 230.78 151.95 231.328 151.988C232.488 151.925 233.629 152.312 234.511 153.07C235.318 153.874 235.787 154.958 235.819 156.098C235.904 156.884 235.798 157.679 235.51 158.415C235.243 159.008 234.796 159.502 234.232 159.826C233.556 160.189 232.795 160.363 232.028 160.331C231.24 160.356 230.456 160.208 229.731 159.898C229.096 159.594 228.561 159.115 228.186 158.518C227.744 157.815 227.492 157.01 227.455 156.18ZM229.958 156.18C229.948 156.812 230.151 157.429 230.535 157.931C230.696 158.108 230.893 158.248 231.114 158.341C231.335 158.433 231.573 158.476 231.812 158.467C232.04 158.483 232.269 158.443 232.479 158.352C232.689 158.26 232.873 158.12 233.017 157.941C233.313 157.379 233.411 156.733 233.295 156.108C233.299 155.502 233.096 154.913 232.718 154.439C232.553 154.266 232.353 154.129 232.131 154.038C231.909 153.948 231.67 153.905 231.431 153.914C231.207 153.904 230.984 153.948 230.779 154.041C230.575 154.134 230.396 154.274 230.257 154.45C229.955 154.98 229.849 155.6 229.958 156.201V156.18Z" fill="#1C2CBC"/>
<path d="M240.66 152.142H244.368C244.979 152.123 245.588 152.225 246.16 152.441C246.612 152.631 247.015 152.924 247.334 153.296C247.658 153.674 247.907 154.111 248.065 154.584C248.232 155.091 248.336 155.617 248.374 156.149C248.453 156.822 248.401 157.504 248.22 158.158C248.078 158.61 247.827 159.02 247.489 159.352C247.206 159.651 246.851 159.871 246.459 159.991C245.979 160.13 245.484 160.206 244.986 160.218H241.288L240.66 152.142ZM243.286 153.976L243.605 158.384H244.213C244.589 158.409 244.966 158.349 245.315 158.209C245.546 158.076 245.716 157.858 245.789 157.601C245.907 157.144 245.935 156.669 245.871 156.201C245.891 155.572 245.699 154.956 245.326 154.45C245.134 154.277 244.909 154.145 244.665 154.064C244.42 153.982 244.161 153.952 243.904 153.976H243.286Z" fill="#1C2CBC"/>
<path d="M254.358 158.879H251.526L251.227 160.218H248.683L251.135 152.143H253.895L257.51 160.218H254.894L254.358 158.879ZM253.71 157.138L252.618 154.233L251.938 157.138H253.71Z" fill="#1C2CBC"/>
<path d="M256.336 152.143H263.917L264.061 154.141H261.517L261.95 160.218H259.457L259.024 154.141H256.48L256.336 152.143Z" fill="#1C2CBC"/>
<path d="M269.726 158.879H266.894L266.595 160.218H264.051L266.502 152.143H269.222L272.827 160.218H270.221L269.726 158.879ZM269.077 157.138L267.975 154.233L267.285 157.138H269.077Z" fill="#1C2CBC"/>
<path d="M118.285 232.637C118.285 232.637 121.041 287.834 132.946 297.334H120.24C120.24 297.334 108.901 278.528 108.051 232.637H118.285Z" fill="#263238"/>
<path opacity="0.2" d="M118.285 232.637C118.285 232.637 121.041 287.834 132.946 297.334H120.24C120.24 297.334 108.901 278.528 108.051 232.637H118.285Z" fill="white"/>
<path d="M108.735 240.417H120.767C124.296 240.417 126.847 237.25 126.456 233.34L125.948 228.121C125.557 224.211 122.39 221.044 118.861 221.044H106.829C103.3 221.044 100.759 224.221 101.14 228.121L101.658 233.34C102.039 237.25 105.206 240.417 108.735 240.417Z" fill="#263238"/>
<path d="M106.868 244.718H127.228C133.191 244.718 137.501 239.352 136.847 232.744L135.977 223.947C135.331 217.33 129.965 211.973 124.003 211.973H103.642C97.6702 211.973 93.3694 217.33 94.0145 223.947L94.8844 232.744C95.5393 239.371 100.906 244.718 106.868 244.718Z" fill="#263238"/>
<path opacity="0.5" d="M106.868 244.718H127.228C133.191 244.718 137.501 239.352 136.847 232.744L135.977 223.947C135.331 217.33 129.965 211.973 124.003 211.973H103.642C97.6702 211.973 93.3694 217.33 94.0145 223.947L94.8844 232.744C95.5393 239.371 100.906 244.718 106.868 244.718Z" fill="white"/>
<path d="M116.858 291.694H174.009C174.586 291.694 175.156 291.808 175.689 292.028C176.221 292.249 176.705 292.572 177.113 292.98C177.52 293.387 177.844 293.871 178.064 294.404C178.285 294.936 178.398 295.507 178.398 296.083V300.843H112.469V296.064C112.474 294.903 112.939 293.792 113.761 292.973C114.584 292.154 115.697 291.694 116.858 291.694Z" fill="#263238"/>
<path opacity="0.5" d="M116.858 291.694H174.009C174.586 291.694 175.156 291.808 175.689 292.028C176.221 292.249 176.705 292.572 177.113 292.98C177.52 293.387 177.844 293.871 178.064 294.404C178.285 294.936 178.398 295.507 178.398 296.083V300.843H112.469V296.064C112.474 294.903 112.939 293.792 113.761 292.973C114.584 292.154 115.697 291.694 116.858 291.694Z" fill="white"/>
<path d="M114.766 360.135L140.18 357.917V324.537H149.114V357.907L174.625 360.135C175.701 360.254 176.695 360.765 177.417 361.571C178.138 362.378 178.537 363.423 178.535 364.505V367.887H110.797V364.485C110.804 363.398 111.214 362.352 111.946 361.548C112.679 360.745 113.684 360.242 114.766 360.135Z" fill="#263238"/>
<path d="M170.363 372.09C170.363 373.25 170.707 374.384 171.352 375.348C171.996 376.313 172.912 377.064 173.984 377.508C175.055 377.952 176.235 378.068 177.372 377.842C178.51 377.616 179.555 377.057 180.375 376.237C181.195 375.417 181.754 374.372 181.98 373.234C182.206 372.096 182.09 370.917 181.646 369.845C181.203 368.774 180.451 367.858 179.486 367.213C178.522 366.569 177.388 366.225 176.228 366.225C174.673 366.225 173.181 366.843 172.081 367.943C170.981 369.043 170.363 370.534 170.363 372.09Z" fill="#263238"/>
<path d="M119.028 372.09C119.028 373.25 118.684 374.384 118.039 375.348C117.395 376.313 116.479 377.064 115.407 377.508C114.336 377.952 113.156 378.068 112.019 377.842C110.881 377.616 109.836 377.057 109.016 376.237C108.196 375.417 107.637 374.372 107.411 373.234C107.184 372.096 107.301 370.917 107.745 369.845C108.188 368.774 108.94 367.858 109.905 367.213C110.869 366.569 112.003 366.225 113.163 366.225C114.718 366.225 116.21 366.843 117.31 367.943C118.41 369.043 119.028 370.534 119.028 372.09Z" fill="#263238"/>
<path d="M147.032 331.34H142.281C141.805 331.34 141.333 331.247 140.893 331.064C140.453 330.882 140.054 330.615 139.717 330.278C139.38 329.941 139.113 329.542 138.931 329.102C138.749 328.662 138.655 328.19 138.655 327.714V298.664H150.658V327.714C150.658 328.676 150.276 329.598 149.596 330.278C148.916 330.958 147.993 331.34 147.032 331.34Z" fill="#263238"/>
<path opacity="0.2" d="M147.032 331.34H142.281C141.805 331.34 141.333 331.247 140.893 331.064C140.453 330.882 140.054 330.615 139.717 330.278C139.38 329.941 139.113 329.542 138.931 329.102C138.749 328.662 138.655 328.19 138.655 327.714V298.664H150.658V327.714C150.658 328.676 150.276 329.598 149.596 330.278C148.916 330.958 147.993 331.34 147.032 331.34Z" fill="white"/>
<path d="M179.141 297.334H111.726C110.749 297.334 109.957 298.127 109.957 299.104V300.14C109.957 301.117 110.749 301.909 111.726 301.909H179.141C180.118 301.909 180.91 301.117 180.91 300.14V299.104C180.91 298.127 180.118 297.334 179.141 297.334Z" fill="#263238"/>
<path opacity="0.2" d="M170.363 372.09C170.363 373.25 170.707 374.384 171.352 375.348C171.996 376.313 172.912 377.064 173.984 377.508C175.055 377.952 176.235 378.068 177.372 377.842C178.51 377.616 179.555 377.057 180.375 376.237C181.195 375.417 181.754 374.372 181.98 373.234C182.206 372.096 182.09 370.917 181.646 369.845C181.203 368.774 180.451 367.858 179.486 367.213C178.522 366.569 177.388 366.225 176.228 366.225C174.673 366.225 173.181 366.843 172.081 367.943C170.981 369.043 170.363 370.534 170.363 372.09Z" fill="white"/>
<path opacity="0.2" d="M119.028 372.09C119.028 373.25 118.684 374.384 118.039 375.348C117.395 376.313 116.479 377.064 115.407 377.508C114.336 377.952 113.156 378.068 112.019 377.842C110.881 377.616 109.836 377.057 109.016 376.237C108.196 375.417 107.637 374.372 107.411 373.234C107.184 372.096 107.301 370.917 107.745 369.845C108.188 368.774 108.94 367.858 109.905 367.213C110.869 366.569 112.003 366.225 113.163 366.225C114.718 366.225 116.21 366.843 117.31 367.943C118.41 369.043 119.028 370.534 119.028 372.09Z" fill="white"/>
<path d="M121.364 159.719C121.364 159.719 123.074 154.225 130.249 153.228C137.423 152.231 146.162 154.646 147.941 157.637C149.72 160.628 148.351 163.57 150.746 164.557C153.141 165.544 156.552 167.978 155.887 170.422C155.223 172.865 152.808 177.821 155.467 178.789C158.126 179.756 159.797 183.676 158.634 185.631C157.471 187.586 157.05 190.01 158.38 190.694C159.709 191.378 161.312 192.717 160.208 194.751C159.103 196.784 158.047 197.067 159.709 198.797C161.371 200.527 158.497 204.418 158.497 204.418C158.497 204.418 120.122 208.982 115.489 204.965C110.856 200.948 113.739 197.399 114.737 196.344C115.734 195.288 113.261 195.699 112.918 191.711C112.576 187.723 114.991 187.136 115.489 184.8C115.988 182.464 113.534 180.226 115.157 177.958C116.779 175.69 117.297 174.42 116.134 172.035C114.971 169.65 114.776 159.885 121.364 159.719Z" fill="#263238"/>
<path d="M187.215 198.836L195.719 197.703L190.519 189.727C190.519 189.727 182.904 192.894 183.833 196.735L187.215 198.836Z" fill="#E4897B"/>
<path d="M202.336 192.356L195.533 187.019L190.519 189.727L195.719 197.703L202.336 192.356Z" fill="#E4897B"/>
<path d="M189.267 198.905C189.267 198.905 179.493 233.34 171.82 231.258C167.578 230.105 163.502 226.019 160.256 221.777C157.543 218.165 155.159 214.318 153.131 210.282V210.155L152.153 193.812C159.748 195.679 170.881 216.137 170.881 216.137L183.178 195.953L189.267 198.905Z" fill="#1C2CBC"/>
<path opacity="0.7" d="M150.687 217.134C143.611 210.752 135.763 205.281 127.326 200.85C128.101 200.752 128.883 200.674 129.672 200.615C135.028 200.049 140.418 199.866 145.8 200.068C147.139 200.146 148.507 200.254 149.856 200.371C153.229 208.025 150.687 217.134 150.687 217.134Z" fill="white"/>
<path d="M127.365 251.433C126.632 243.174 123.67 228.023 118.568 212.11C116.906 206.94 119.721 201.104 119.721 201.104C119.721 201.104 126.652 200.918 127.355 200.85C128.059 200.782 128.91 200.674 129.701 200.615C135.057 200.049 140.447 199.866 145.829 200.068C147.168 200.146 148.537 200.254 149.886 200.371C150.316 200.371 155.193 200.459 155.614 200.498C155.614 200.498 162.368 208.22 162.778 214.476C163.277 219.284 163.463 224.12 163.335 228.952C163.335 234.631 162.886 242.118 162.514 250.094L127.365 251.433Z" fill="#1C2CBC"/>
<path opacity="0.8" d="M127.365 251.433C126.632 243.174 123.67 228.023 118.568 212.11C116.906 206.94 119.721 201.104 119.721 201.104C119.721 201.104 126.652 200.918 127.355 200.85C128.059 200.782 128.91 200.674 129.701 200.615C135.057 200.049 140.447 199.866 145.829 200.068C147.168 200.146 148.537 200.254 149.886 200.371C150.316 200.371 155.193 200.459 155.614 200.498C155.614 200.498 162.368 208.22 162.778 214.476C163.277 219.284 163.463 224.12 163.335 228.952C163.335 234.631 162.886 242.118 162.514 250.094L127.365 251.433Z" fill="white"/>
<path d="M127.365 251.433L162.554 249.058C162.554 249.058 163.609 259.634 163.365 259.477C163.12 259.321 125.684 260.797 125.684 260.797L127.365 251.433Z" fill="#263238"/>
<path d="M127.688 252.02L162.524 250.094V253.398L127.365 255.265L127.688 252.02Z" fill="black"/>
<path d="M147.295 254.747C147.052 254.748 146.817 254.659 146.637 254.496C146.456 254.333 146.342 254.109 146.318 253.867L146.162 251.912C146.148 251.661 146.232 251.414 146.395 251.223C146.559 251.032 146.791 250.911 147.041 250.886L150.853 250.593C150.985 250.584 151.117 250.602 151.241 250.646C151.365 250.69 151.48 250.758 151.577 250.847C151.671 250.937 151.746 251.044 151.798 251.163C151.85 251.283 151.878 251.411 151.88 251.541V253.584C151.881 253.83 151.788 254.068 151.622 254.249C151.455 254.43 151.226 254.542 150.98 254.561L147.315 254.757L147.295 254.747ZM150.961 251.179L147.139 251.473C147.088 251.476 147.038 251.49 146.993 251.513C146.947 251.537 146.907 251.569 146.874 251.608C146.841 251.647 146.817 251.693 146.802 251.742C146.787 251.791 146.782 251.842 146.787 251.893L146.944 253.848C146.945 253.898 146.956 253.947 146.977 253.993C146.998 254.038 147.029 254.079 147.067 254.112C147.104 254.145 147.148 254.17 147.196 254.185C147.244 254.2 147.294 254.205 147.344 254.2L151.01 254.004C151.107 253.999 151.199 253.957 151.267 253.886C151.334 253.815 151.372 253.721 151.371 253.623V251.58C151.372 251.527 151.362 251.475 151.342 251.426C151.322 251.378 151.292 251.334 151.254 251.297C151.217 251.257 151.171 251.226 151.12 251.206C151.07 251.186 151.015 251.177 150.961 251.179Z" fill="white"/>
<path d="M164.704 257.298C155.35 256.369 143.2 255.617 127.365 255.265C127.365 255.265 115.567 283.054 129.555 291.352C133.787 293.864 140.766 294.861 148.449 295.018C150.564 295.067 152.668 294.694 154.637 293.919C156.606 293.144 158.4 291.984 159.914 290.506C161.428 289.028 162.632 287.262 163.455 285.313C164.277 283.364 164.702 281.269 164.704 279.154V257.298Z" fill="#263238"/>
<path d="M130.219 275.625L118.06 273.416L125.137 247.24C125.137 247.24 123.319 240.74 121.364 233.292C120.865 231.415 120.386 229.489 119.858 227.583C119.331 225.677 118.94 224.035 118.529 222.383C117.575 218.977 116.824 215.518 116.281 212.022C116.056 207.849 115.362 196.559 119.37 194.79C121.745 193.734 126.613 196.227 129.692 196.803C134.313 205.667 136.844 215.47 137.091 225.462C137.58 242.382 130.219 275.625 130.219 275.625Z" fill="#1C2CBC"/>
<path d="M141.773 197.194C141.773 197.194 153.131 198.612 157.969 222.804C159.924 232.578 164.577 274.443 164.577 274.443L167.216 273.123L163.551 248.169C163.551 248.169 164.87 219.256 163.844 213.322C162.818 207.389 157.617 194.526 152.202 193.773C150.003 193.519 141.773 197.194 141.773 197.194Z" fill="#1C2CBC"/>
<path d="M142.301 196.852L142.868 196.363C149.435 197.256 155.421 200.601 159.621 205.727L156.982 208.308L161.439 212.003L159.289 231.806C159.289 231.806 152.447 208.445 149.446 202.834C149.466 202.785 144.49 197.927 142.301 196.852Z" fill="#1C2CBC"/>
<path opacity="0.2" d="M142.301 196.852L142.829 196.422C149.395 197.289 155.385 200.624 159.582 205.747L156.943 208.328L161.439 212.003L159.289 231.806C159.289 231.806 152.447 208.445 149.446 202.834C149.466 202.786 144.49 197.928 142.301 196.852Z" fill="black"/>
<path d="M129.946 197.859C129.946 197.859 138.743 209.061 136.837 233.702L127.385 215.981L130.395 211.143L123.358 204.545C123.358 204.545 127.903 195.748 130.513 196.422L129.946 197.859Z" fill="#1C2CBC"/>
<path opacity="0.2" d="M129.946 197.859C129.946 197.859 138.743 209.061 136.837 233.702L127.385 215.981L130.395 211.143L123.358 204.545C123.358 204.545 127.903 195.748 130.513 196.422L129.946 197.859Z" fill="black"/>
<path d="M130.689 195.885C130.689 195.885 133.347 196.862 141.88 196.227C141.88 196.227 145.106 199.218 146.123 202.356C147.139 205.493 143.894 208.533 138.733 205.786C133.572 203.04 130.689 195.885 130.689 195.885Z" fill="#1C2CBC"/>
<path opacity="0.5" d="M130.689 195.885C130.689 195.885 133.347 196.862 141.88 196.227C141.88 196.227 145.106 199.218 146.123 202.356C147.139 205.493 143.894 208.533 138.733 205.786C133.572 203.04 130.689 195.885 130.689 195.885Z" fill="white"/>
<path d="M147.921 202.345L145.966 214.026L130.601 200.586C133.856 196.999 131.803 187.556 130.229 182.405L134.579 185.67L141.05 190.508C140.928 191.843 141.033 193.188 141.362 194.487C141.851 196.549 142.731 198.484 143.699 198.895L147.921 202.345Z" fill="#E4897B"/>
<path opacity="0.2" d="M141.362 194.487C138.782 193.91 135.4 191.241 134.852 188.622C134.642 187.659 134.55 186.674 134.579 185.689L141.05 190.528C140.93 191.856 141.035 193.194 141.362 194.487Z" fill="black"/>
<path d="M130.689 195.885C136.171 201.29 141.177 207.157 145.653 213.42C145.653 213.42 147.178 201.691 141.88 196.227L143.102 196.08C147.378 198.883 151.193 202.332 154.411 206.304L149.319 204.692L145.8 214.114L135.341 205.454L128.294 206.676C128.294 206.676 127.971 197.977 130.689 195.885Z" fill="#1C2CBC"/>
<path opacity="0.7" d="M130.689 195.885C136.171 201.29 141.177 207.157 145.653 213.42C145.653 213.42 147.178 201.691 141.88 196.227L143.102 196.08C147.378 198.883 151.193 202.332 154.411 206.304L149.319 204.692L145.8 214.114L135.341 205.454L128.294 206.676C128.294 206.676 127.971 197.977 130.689 195.885Z" fill="white"/>
<path d="M125.44 172.142C127.297 180.47 127.913 184.027 132.829 187.879C140.229 193.685 150.003 190.146 150.658 181.574C151.244 173.852 148.107 161.536 139.368 159.093C137.515 158.497 135.536 158.409 133.637 158.835C131.737 159.262 129.987 160.189 128.566 161.52C127.145 162.851 126.106 164.538 125.557 166.405C125.007 168.273 124.967 170.253 125.44 172.142Z" fill="#E4897B"/>
<path d="M136.192 173.178C136.319 173.882 136.788 174.41 137.237 174.361C137.687 174.312 137.961 173.706 137.834 173.002C137.707 172.298 137.237 171.761 136.778 171.81C136.319 171.859 136.025 172.474 136.192 173.178Z" fill="#263238"/>
<path d="M144.979 171.927C145.106 172.631 145.575 173.158 146.025 173.11C146.474 173.061 146.748 172.455 146.621 171.741C146.494 171.028 146.025 170.509 145.575 170.558C145.126 170.607 144.823 171.243 144.979 171.927Z" fill="#263238"/>
<path d="M145.38 170.647L146.953 169.982C146.953 169.982 146.338 171.389 145.38 170.647Z" fill="#263238"/>
<path d="M142.565 173.794C143.471 175.339 144.571 176.761 145.839 178.026C145.524 178.322 145.145 178.543 144.732 178.671C144.319 178.8 143.882 178.834 143.454 178.769L142.565 173.794Z" fill="#DE5753"/>
<path d="M136.798 166.473C136.69 166.502 136.599 166.572 136.543 166.668C136.32 167.123 135.986 167.515 135.573 167.808C135.16 168.102 134.681 168.288 134.178 168.349C134.125 168.352 134.073 168.365 134.026 168.388C133.979 168.412 133.937 168.445 133.903 168.485C133.869 168.525 133.843 168.573 133.828 168.623C133.814 168.674 133.809 168.727 133.816 168.78C133.829 168.891 133.883 168.994 133.968 169.066C134.054 169.139 134.164 169.176 134.276 169.171C134.916 169.105 135.53 168.879 136.059 168.514C136.589 168.148 137.018 167.654 137.306 167.079C137.35 166.979 137.355 166.865 137.319 166.761C137.282 166.658 137.208 166.572 137.11 166.522C137.015 166.468 136.904 166.451 136.798 166.473Z" fill="#263238"/>
<path d="M144.647 164.557C144.596 164.552 144.545 164.557 144.496 164.572C144.447 164.587 144.402 164.612 144.363 164.645C144.287 164.723 144.244 164.829 144.244 164.938C144.244 165.048 144.287 165.153 144.363 165.231C144.788 165.753 145.327 166.17 145.939 166.45C146.551 166.73 147.219 166.865 147.892 166.844C147.945 166.84 147.996 166.824 148.043 166.798C148.09 166.773 148.13 166.738 148.163 166.695C148.195 166.653 148.218 166.604 148.23 166.553C148.242 166.501 148.244 166.447 148.234 166.395C148.208 166.29 148.146 166.199 148.057 166.138C147.969 166.077 147.862 166.05 147.755 166.062C147.222 166.069 146.694 165.955 146.211 165.728C145.729 165.501 145.304 165.168 144.969 164.753C144.932 164.699 144.885 164.654 144.829 164.62C144.773 164.586 144.711 164.565 144.647 164.557Z" fill="#263238"/>
<path d="M136.592 171.868L138.166 171.203C138.166 171.203 137.55 172.62 136.592 171.868Z" fill="#263238"/>
<path d="M129.711 176.971C129.711 176.971 133.807 171.008 130.689 162.182C130.689 162.182 139.945 157.686 146.953 164.538C146.953 164.538 140.434 153.101 126.808 158.575C113.182 164.049 123.455 177.147 125.146 178.232C126.837 179.317 129.711 176.971 129.711 176.971Z" fill="#263238"/>
<path d="M123.778 179.346C124.87 180.79 126.491 181.743 128.284 181.994C130.591 182.268 131.216 179.942 130.239 177.811C129.261 175.856 126.955 173.422 124.843 174.146C122.732 174.869 122.341 177.518 123.778 179.346Z" fill="#E4897B"/>
<path d="M143.464 182.679C143.426 182.679 143.388 182.671 143.352 182.656C143.317 182.641 143.285 182.619 143.259 182.591C142.588 181.97 141.787 181.508 140.914 181.239C140.041 180.97 139.118 180.901 138.215 181.037C138.178 181.044 138.141 181.044 138.104 181.036C138.068 181.029 138.033 181.014 138.002 180.993C137.971 180.972 137.945 180.946 137.924 180.914C137.904 180.883 137.89 180.849 137.883 180.812C137.871 180.737 137.889 180.66 137.933 180.598C137.977 180.536 138.043 180.494 138.117 180.48C139.113 180.319 140.132 180.391 141.095 180.689C142.058 180.987 142.939 181.505 143.669 182.2C143.722 182.253 143.752 182.325 143.752 182.4C143.752 182.475 143.722 182.547 143.669 182.601C143.643 182.628 143.61 182.649 143.575 182.662C143.54 182.676 143.502 182.681 143.464 182.679Z" fill="#263238"/>
<path opacity="0.2" d="M119.819 227.583C119.35 225.794 118.9 224.035 118.49 222.383C120.738 219.676 121.931 208.073 121.931 208.073C121.931 208.073 123.494 222.217 119.819 227.583Z" fill="black"/>
<path d="M91.1212 199.813L82.6173 198.68L87.8174 190.704C87.8174 190.704 95.4317 194.076 94.5129 197.927L91.1212 199.813Z" fill="#E4897B"/>
<path d="M76 193.333L82.8031 187.996L87.8174 190.704L82.6174 198.68L76 193.333Z" fill="#E4897B"/>
<path d="M89.1077 199.883C89.1077 199.883 98.8822 234.318 106.555 232.236C110.807 231.083 114.873 226.997 118.118 222.755C120.692 219.398 122.374 215.443 123.006 211.26L119.399 194.79C114.824 195.767 107.484 217.115 107.484 217.115L95.1777 196.931L89.1077 199.883Z" fill="#1C2CBC"/>
<path d="M134.139 280.19V293.249C145.771 296.602 169.924 295.321 184.282 294.158C187.401 293.903 190.309 292.483 192.428 290.181C194.547 287.879 195.722 284.864 195.719 281.735V270.983C195.72 269.25 195.194 267.558 194.209 266.133C193.224 264.708 191.827 263.617 190.206 263.007C183.246 260.387 170.579 256.487 157.324 256.692C151.143 256.764 145.241 259.273 140.899 263.673C136.558 268.073 134.128 274.009 134.139 280.19Z" fill="#263238"/>
<path d="M194.497 317.949C190.264 329.385 185.377 343.705 180.158 361.778C180.06 362.11 179.962 362.443 179.874 362.755C179.786 363.068 179.669 363.449 179.571 363.801L174.146 362.53L172.113 362.032C172.113 362.032 172.201 361.23 172.367 359.813C172.367 359.52 172.436 359.207 172.465 358.836C173.921 346.227 179.512 299.954 185.064 290.345C185.064 290.345 178.779 291.509 174.009 290.707C170.579 290.13 166.415 266.359 166.415 266.359C172.211 264.783 178.179 263.926 184.185 263.808H184.312C184.312 263.808 204.428 266.965 207.771 271.911C211.935 278 205.483 288.244 194.497 317.949Z" fill="#E4897B"/>
<path d="M187.518 377.925L174.889 372.354L170.901 367.896L169.66 369.578L168.154 368.923C167.451 363.312 170.168 360.693 171.605 359.5C171.703 359.412 171.849 359.305 172.025 359.178C172.074 359.127 172.13 359.084 172.191 359.051L172.26 359.002L172.455 358.855L172.572 358.787L179.503 361.846C179.503 361.846 179.62 362.208 179.835 362.823C180.529 364.778 182.239 369.226 184.136 371.621C184.214 371.718 184.292 371.826 184.37 371.914C184.585 372.168 184.82 372.403 185.074 372.618C190.431 376.801 187.518 377.925 187.518 377.925Z" fill="#1C2CBC"/>
<path d="M184.409 371.836C182.455 372.608 179.649 370.653 177.567 368.102C176.272 366.344 175.128 364.48 174.146 362.53C173.674 361.551 173.076 360.637 172.367 359.813C172.074 359.549 171.8 359.442 171.566 359.549C171.663 359.461 171.81 359.354 171.986 359.226C172.036 359.177 172.092 359.134 172.152 359.099L172.221 359.051L172.416 358.904L172.533 358.835C173.257 358.288 174.068 357.731 174.068 357.731L179.639 360.194C179.639 360.194 179.796 360.849 180.079 361.856C180.803 364.436 182.337 369.333 184.097 371.63C184.253 371.64 184.331 371.748 184.409 371.836Z" fill="#E4897B"/>
<path opacity="0.1" d="M194.497 317.949C190.264 329.385 185.377 343.705 180.158 361.778C180.881 364.358 182.415 369.255 184.175 371.552C184.253 371.65 184.331 371.758 184.409 371.846C184.624 372.099 184.859 372.335 185.113 372.549C190.431 376.811 187.518 377.935 187.518 377.935L174.889 372.364L170.901 367.906L169.66 369.588L168.154 368.933C167.451 363.322 170.168 360.703 171.605 359.51C171.703 359.422 171.849 359.315 172.025 359.188C172.074 359.137 172.13 359.094 172.191 359.061L172.26 359.012L172.455 358.865C173.912 346.256 179.503 299.983 185.055 290.375C185.055 290.375 178.77 291.538 174 290.736C170.569 290.16 166.405 266.388 166.405 266.388C172.203 264.802 178.175 263.935 184.185 263.808H184.312C184.312 263.808 182.191 264.013 179.307 267.629C179.307 267.629 191.037 269.819 194.252 276.036C195.533 278.577 195.269 296.953 194.497 317.949Z" fill="black"/>
<path d="M166.434 266.349C166.434 266.349 186.56 269.506 189.893 274.442C195.689 282.946 185.25 299.66 166.209 366.323L158.781 364.505C158.781 364.505 160.736 304 167.187 292.847C167.187 292.847 160.902 294.011 156.141 293.209C150.042 292.153 146.181 271.764 166.434 266.349Z" fill="#E4897B"/>
<path d="M157.598 377.505H159.25L159.699 375.472L165.154 377.935H178.955C178.955 377.935 181.154 375.726 174.576 373.967C174.255 373.88 173.943 373.759 173.648 373.605C170.139 371.963 165.154 366.411 165.154 366.411H157.578C157.348 366.763 157.139 367.128 156.953 367.506C156.122 369.168 154.695 372.667 157.598 377.505Z" fill="#1C2CBC"/>
<path d="M156.953 367.506C157.93 366.392 162.505 371.289 165.838 372.96C168.819 374.446 172.162 375.101 173.657 373.586C170.148 371.944 164.636 364.789 164.636 364.789H158.507C158.507 364.789 157.314 366.792 156.953 367.506Z" fill="#E4897B"/>
<g opacity="0.3">
<path d="M288.42 243.751V374.73C288.42 375.144 288.502 375.554 288.661 375.937C288.819 376.319 289.052 376.666 289.345 376.959C289.639 377.251 289.987 377.483 290.37 377.64C290.753 377.798 291.163 377.878 291.577 377.877H352.678C352.835 377.877 352.99 377.846 353.134 377.786C353.279 377.727 353.41 377.639 353.521 377.528C353.632 377.417 353.72 377.286 353.78 377.141C353.84 376.996 353.87 376.841 353.87 376.685V372.775C353.871 372.458 353.745 372.153 353.522 371.928C353.298 371.703 352.995 371.575 352.678 371.573H294.725V246.898H351.691C351.978 246.897 352.263 246.839 352.528 246.728C352.793 246.617 353.034 246.454 353.236 246.25C353.439 246.046 353.599 245.804 353.708 245.538C353.816 245.272 353.872 244.987 353.87 244.699V240.594H291.577C291.162 240.592 290.751 240.673 290.368 240.831C289.984 240.99 289.635 241.222 289.342 241.516C289.049 241.809 288.816 242.158 288.658 242.541C288.5 242.925 288.419 243.336 288.42 243.751Z" fill="white"/>
</g>
<path opacity="0.2" d="M288.42 243.751V277.16C290.518 277.695 292.62 278.209 294.725 278.705V246.898H351.691C351.978 246.897 352.263 246.839 352.528 246.728C352.793 246.617 353.034 246.454 353.236 246.25C353.439 246.046 353.599 245.804 353.708 245.538C353.816 245.272 353.872 244.987 353.87 244.699V240.594H291.577C291.162 240.592 290.751 240.673 290.368 240.831C289.984 240.99 289.635 241.222 289.342 241.516C289.049 241.809 288.816 242.158 288.658 242.541C288.5 242.925 288.419 243.336 288.42 243.751Z" fill="black"/>
<path d="M281.295 231.601L280.513 228.678H248.677L234.015 230.135L233.458 231.601H281.295Z" fill="#263238"/>
<path opacity="0.5" d="M281.295 231.601L280.513 228.678H248.677L234.015 230.135L233.458 231.601H281.295Z" fill="white"/>
<path opacity="0.2" d="M248.677 228.678V231.601H281.295L280.513 228.678H248.677Z" fill="black"/>
<path d="M259.449 209.824C259.396 210.28 259.441 210.742 259.581 211.18C259.721 211.617 259.953 212.019 260.261 212.36C260.569 212.7 260.946 212.971 261.368 213.154C261.789 213.337 262.244 213.428 262.703 213.421H325.388C326.364 213.396 327.299 213.017 328.018 212.356C328.737 211.695 329.191 210.795 329.297 209.824L333.021 169.689C333.063 169.296 333.033 168.899 332.934 168.516C332.76 167.811 332.353 167.186 331.777 166.744C331.201 166.302 330.492 166.068 329.767 166.083H267.102C266.123 166.106 265.186 166.485 264.467 167.149C263.747 167.812 263.294 168.716 263.192 169.689L259.449 209.824Z" fill="#263238"/>
<path opacity="0.5" d="M259.449 209.824C259.396 210.28 259.441 210.742 259.581 211.18C259.721 211.617 259.953 212.019 260.261 212.36C260.569 212.7 260.946 212.971 261.368 213.154C261.789 213.337 262.244 213.428 262.703 213.421H325.388C326.364 213.396 327.299 213.017 328.018 212.356C328.737 211.695 329.191 210.795 329.297 209.824L333.021 169.689C333.063 169.296 333.033 168.899 332.934 168.516C332.76 167.811 332.353 167.186 331.777 166.744C331.201 166.302 330.492 166.068 329.767 166.083H267.102C266.123 166.106 265.186 166.485 264.467 167.149C263.747 167.812 263.294 168.716 263.192 169.689L259.449 209.824Z" fill="white"/>
<path opacity="0.1" d="M262.919 213.421H325.388C326.364 213.396 327.299 213.018 328.018 212.356C328.737 211.695 329.191 210.795 329.297 209.824L333.022 169.69C333.063 169.296 333.033 168.899 332.934 168.517H270.474C269.497 168.544 268.562 168.924 267.843 169.587C267.125 170.25 266.67 171.151 266.564 172.123L262.84 212.248C262.801 212.641 262.827 213.037 262.919 213.421Z" fill="black"/>
<path d="M305.985 188.808H293.024L296.474 225.942L275.968 229.021V231.601H319.161V229.021L310.315 225.942L305.985 188.808Z" fill="#263238"/>
<path opacity="0.5" d="M305.985 188.808H293.024L296.474 225.942L275.968 229.021V231.601H319.161V229.021L310.315 225.942L305.985 188.808Z" fill="white"/>
<path opacity="0.2" d="M293.024 188.808L302.632 231.015L310.315 230.78L305.985 188.808H293.024Z" fill="white"/>
<path d="M202.277 377.936H263.378C263.697 377.936 264.003 377.809 264.228 377.584C264.454 377.358 264.58 377.052 264.58 376.734V372.824C264.58 372.666 264.549 372.51 264.489 372.364C264.428 372.218 264.34 372.085 264.228 371.974C264.116 371.862 263.984 371.773 263.838 371.713C263.692 371.653 263.536 371.621 263.378 371.621H205.425V246.889H262.381C262.668 246.89 262.953 246.834 263.218 246.725C263.484 246.616 263.725 246.456 263.929 246.254C264.132 246.051 264.293 245.81 264.404 245.545C264.514 245.28 264.57 244.996 264.57 244.709V240.594H202.277C201.443 240.594 200.642 240.925 200.052 241.516C199.461 242.106 199.13 242.906 199.13 243.741V374.779C199.13 375.614 199.461 376.416 200.051 377.008C200.641 377.599 201.442 377.933 202.277 377.936Z" fill="#263238"/>
<g opacity="0.4">
<path d="M202.277 377.936H263.378C263.697 377.936 264.003 377.809 264.228 377.584C264.454 377.358 264.58 377.052 264.58 376.734V372.824C264.58 372.666 264.549 372.51 264.489 372.364C264.428 372.218 264.34 372.085 264.228 371.974C264.116 371.862 263.984 371.773 263.838 371.713C263.692 371.653 263.536 371.621 263.378 371.621H205.425V246.889H262.381C262.668 246.89 262.953 246.834 263.218 246.725C263.484 246.616 263.725 246.456 263.929 246.254C264.132 246.051 264.293 245.81 264.404 245.545C264.514 245.28 264.57 244.996 264.57 244.709V240.594H202.277C201.443 240.594 200.642 240.925 200.052 241.516C199.461 242.106 199.13 242.906 199.13 243.741V374.779C199.13 375.614 199.461 376.416 200.051 377.008C200.641 377.599 201.442 377.933 202.277 377.936Z" fill="white"/>
</g>
<path d="M357.565 234.641V239.734C357.553 240.235 357.348 240.713 356.993 241.068C356.639 241.423 356.161 241.627 355.659 241.64H194.311C194.061 241.64 193.814 241.59 193.583 241.494C193.352 241.399 193.143 241.258 192.967 241.081C192.791 240.904 192.651 240.694 192.556 240.462C192.462 240.231 192.414 239.983 192.415 239.734V234.641H357.565Z" fill="#1C2CBC"/>
<path opacity="0.2" d="M192.415 238.141L357.565 238.141V234.641L192.415 234.641V238.141Z" fill="black"/>
<path d="M363 233.576C363 234.094 362.794 234.591 362.427 234.958C362.061 235.324 361.564 235.53 361.045 235.53H189.013C188.754 235.532 188.496 235.482 188.256 235.383C188.016 235.284 187.798 235.138 187.615 234.954C187.515 234.856 187.429 234.744 187.361 234.621C187.153 234.305 187.041 233.935 187.039 233.556C187.039 233.038 187.245 232.54 187.611 232.174C187.978 231.807 188.475 231.601 188.994 231.601H361.026C361.544 231.601 362.041 231.807 362.408 232.174C362.774 232.54 362.98 233.038 362.98 233.556L363 233.576Z" fill="#1C2CBC"/>
<path opacity="0.2" d="M272.488 232.178C272.305 231.994 272.087 231.848 271.847 231.749C271.607 231.65 271.35 231.6 271.09 231.601H188.984C188.465 231.601 187.968 231.807 187.602 232.174C187.235 232.54 187.029 233.038 187.029 233.556C187.031 233.935 187.143 234.305 187.351 234.621C187.419 234.744 187.505 234.856 187.606 234.954C187.789 235.138 188.007 235.284 188.246 235.383C188.486 235.482 188.744 235.532 189.003 235.53H192.464V239.714C192.462 239.964 192.51 240.211 192.605 240.443C192.7 240.674 192.839 240.884 193.016 241.061C193.192 241.238 193.401 241.379 193.632 241.475C193.863 241.571 194.11 241.62 194.36 241.62H265.734C265.983 241.62 266.231 241.571 266.461 241.475C266.692 241.379 266.902 241.238 267.078 241.061C267.254 240.884 267.394 240.674 267.488 240.443C267.583 240.211 267.631 239.964 267.63 239.714V235.53H271.09C271.423 235.534 271.751 235.452 272.044 235.293C272.336 235.134 272.583 234.903 272.761 234.621C273.008 234.243 273.115 233.79 273.065 233.341C273.015 232.892 272.811 232.474 272.488 232.158V232.178Z" fill="white"/>
<path d="M288.42 243.751V374.73C288.42 375.144 288.502 375.554 288.661 375.937C288.819 376.319 289.052 376.666 289.345 376.959C289.639 377.251 289.987 377.483 290.37 377.64C290.753 377.798 291.163 377.878 291.577 377.877H352.678C352.835 377.877 352.99 377.846 353.134 377.786C353.279 377.727 353.41 377.639 353.521 377.528C353.632 377.417 353.72 377.286 353.78 377.141C353.84 376.996 353.87 376.841 353.87 376.685V372.775C353.871 372.458 353.745 372.153 353.522 371.928C353.298 371.703 352.995 371.575 352.678 371.573H294.725V246.898H351.691C351.978 246.897 352.263 246.839 352.528 246.728C352.793 246.617 353.034 246.454 353.236 246.25C353.439 246.046 353.599 245.804 353.708 245.538C353.816 245.272 353.872 244.987 353.87 244.699V240.594H291.577C291.162 240.592 290.751 240.673 290.368 240.831C289.984 240.99 289.635 241.222 289.342 241.516C289.049 241.809 288.816 242.158 288.658 242.541C288.5 242.925 288.419 243.336 288.42 243.751Z" fill="#263238"/>
</svg>
