<svg width="291" height="216" viewBox="0 0 291 216" fill="none" xmlns="http://www.w3.org/2000/svg">
<g clip-path="url(#clip0_3_901)">
<path opacity="0.2" d="M82.7408 -25.3294C4.34662 19.7759 -22.5132 119.674 22.7477 197.799C68.0086 275.923 168.251 302.691 246.645 257.585C325.039 212.48 351.899 112.582 306.638 34.4575C261.377 -43.6673 161.135 -70.4348 82.7408 -25.3294Z" fill="#F8F3F3"/>
</g>
<g clip-path="url(#clip1_3_901)">
<path d="M34 181.629H290V181.757H34V181.629Z" fill="#EBEBEB"/>
<path d="M59.6512 189.867H76.6086V189.995H59.6512V189.867Z" fill="#EBEBEB"/>
<path d="M120.415 191.259H124.865V191.387H120.415V191.259Z" fill="#EBEBEB"/>
<path d="M77.1206 185.115H86.9459V185.243H77.1206V185.115Z" fill="#EBEBEB"/>
<path d="M241.027 185.976H263.14V186.104H241.027V185.976Z" fill="#EBEBEB"/>
<path d="M233.224 185.976H236.465V186.104H233.224V185.976Z" fill="#EBEBEB"/>
<path d="M174.723 188.136H222.687V188.264H174.723V188.136Z" fill="#EBEBEB"/>
<path d="M168.656 158.794H267.518C268.293 158.792 269.035 158.484 269.582 157.936C270.129 157.387 270.436 156.645 270.436 155.87V16.8979C270.43 16.1279 270.119 15.3916 269.573 14.849C269.027 14.3064 268.288 14.0013 267.518 14H168.656C167.881 14 167.137 14.308 166.589 14.8563C166.04 15.4046 165.732 16.1482 165.732 16.9235V155.87C165.732 156.645 166.04 157.389 166.589 157.937C167.137 158.486 167.881 158.794 168.656 158.794ZM267.518 14.1024C268.259 14.1038 268.968 14.3989 269.491 14.923C270.015 15.4471 270.308 16.1574 270.308 16.8979V155.87C270.308 156.611 270.015 157.321 269.491 157.845C268.968 158.369 268.259 158.664 267.518 158.666H168.656C167.915 158.664 167.205 158.369 166.681 157.845C166.157 157.321 165.862 156.611 165.86 155.87V16.8979C165.862 16.1569 166.157 15.4467 166.681 14.9227C167.205 14.3987 167.915 14.1038 168.656 14.1024H267.518Z" fill="#EBEBEB"/>
<path d="M57.9053 158.794H156.772C157.547 158.792 158.29 158.484 158.838 157.936C159.386 157.388 159.695 156.645 159.696 155.87V16.8979C159.688 16.1274 159.377 15.3911 158.829 14.8487C158.282 14.3062 157.543 14.0013 156.772 14H57.9053C57.1361 14.0027 56.399 14.3084 55.8537 14.8508C55.3083 15.3933 54.9987 16.1288 54.992 16.8979V155.87C54.992 156.644 55.2986 157.386 55.8447 157.934C56.3907 158.482 57.1317 158.791 57.9053 158.794ZM156.772 14.1024C157.514 14.1038 158.224 14.3987 158.748 14.9227C159.272 15.4467 159.567 16.1569 159.568 16.8979V155.87C159.567 156.611 159.272 157.321 158.748 157.845C158.224 158.369 157.514 158.664 156.772 158.666H57.9053C57.1643 158.664 56.454 158.369 55.9301 157.845C55.4061 157.321 55.1111 156.611 55.1098 155.87V16.8979C55.1111 16.1569 55.4061 15.4467 55.9301 14.9227C56.454 14.3987 57.1643 14.1038 57.9053 14.1024H156.772Z" fill="#EBEBEB"/>
<path d="M204.086 38.7651H240.566V162.521H204.086V38.7651Z" fill="#FAFAFA"/>
<path d="M209.519 38.7651H211.649L224.372 162.521H222.242L209.519 38.7651Z" fill="#F5F5F5"/>
<path d="M204.732 39.2466H240.802V40.3371H204.732V39.2466Z" fill="#E0E0E0"/>
<path d="M204.732 161.44H240.802V163.775H204.732V161.44Z" fill="#EBEBEB"/>
<path d="M205.331 163.672H239.414V163.775H205.331V163.672Z" fill="#EBEBEB"/>
<path d="M239.414 39.2467H205.331V163.673H203.288V37.7158H241.457V163.673H239.414V39.2467Z" fill="#EBEBEB"/>
<path d="M163.49 38.7651H199.97V162.521H163.49V38.7651Z" fill="#FAFAFA"/>
<path d="M173.612 38.7651H185.24L197.963 162.521H186.335L173.612 38.7651Z" fill="#F5F5F5"/>
<path d="M163.111 39.2466H200.205V40.3371H163.111V39.2466Z" fill="#E0E0E0"/>
<path d="M163.111 161.44H200.205V163.775H163.111V161.44Z" fill="#EBEBEB"/>
<path d="M164.734 163.672H198.818V163.775H164.734V163.672Z" fill="#EBEBEB"/>
<path d="M198.818 39.2467H164.734V163.673H162.696V37.7158H200.861V163.673H198.818V39.2467Z" fill="#EBEBEB"/>
<path d="M123.923 38.7651H159.379V162.521H123.923V38.7651Z" fill="#FAFAFA"/>
<path d="M139.288 38.7651H141.418L154.141 162.521H152.011L139.288 38.7651Z" fill="#F5F5F5"/>
<path d="M123.539 39.2466H159.609V40.3371H123.539V39.2466Z" fill="#E0E0E0"/>
<path d="M123.539 161.44H159.609V163.775H123.539V161.44Z" fill="#EBEBEB"/>
<path d="M124.138 163.672H158.221V163.775H124.138V163.672Z" fill="#EBEBEB"/>
<path d="M158.221 39.2467H124.143V163.673H122.1V37.7158H160.264V163.673H158.221V39.2467Z" fill="#EBEBEB"/>
<path d="M82.3021 38.7651H118.782V162.521H82.3021V38.7651Z" fill="#FAFAFA"/>
<path d="M85.8707 38.7651H97.4982L110.227 162.521H98.5939L85.8707 38.7651Z" fill="#F5F5F5"/>
<path d="M82.9472 39.2466H119.018V40.3371H82.9472V39.2466Z" fill="#E0E0E0"/>
<path d="M82.9472 161.44H119.018V163.775H82.9472V161.44Z" fill="#EBEBEB"/>
<path d="M117.63 39.2467H83.5462V163.673H81.5033V37.7158H119.668V163.673H117.63V39.2467Z" fill="#EBEBEB"/>
<path d="M83.5462 163.672H117.63V163.775H83.5462V163.672Z" fill="#EBEBEB"/>
<path d="M215.376 134.049H231.212V161.436H215.376V134.049Z" fill="#EBEBEB"/>
<path d="M218.417 130.219V137.09H219.661H226.922H228.171V130.219H218.417Z" fill="#EBEBEB"/>
<path d="M218.417 137.09H216.39V135.063H218.417V137.09Z" fill="#FAFAFA"/>
<path d="M222.339 137.09H220.312V135.063H222.339V137.09Z" fill="#FAFAFA"/>
<path d="M226.266 137.09H224.239V135.063H226.266V137.09Z" fill="#FAFAFA"/>
<path d="M230.193 137.09H228.166V135.063H230.193V137.09Z" fill="#F0F0F0"/>
<path d="M218.417 140.776H216.39V138.749H218.417V140.776Z" fill="#F0F0F0"/>
<path d="M222.339 140.776H220.312V138.749H222.339V140.776Z" fill="#F0F0F0"/>
<path d="M226.266 140.776H224.239V138.749H226.266V140.776Z" fill="#FAFAFA"/>
<path d="M230.193 140.776H228.166V138.749H230.193V140.776Z" fill="#FAFAFA"/>
<path d="M218.417 144.457H216.39V142.43H218.417V144.457Z" fill="#F0F0F0"/>
<path d="M222.339 144.457H220.312V142.43H222.339V144.457Z" fill="#FAFAFA"/>
<path d="M226.266 144.457H224.239V142.43H226.266V144.457Z" fill="#FAFAFA"/>
<path d="M222.339 133.906H220.312V131.878H222.339V133.906Z" fill="#FAFAFA"/>
<path d="M226.266 133.906H224.239V131.878H226.266V133.906Z" fill="#F0F0F0"/>
<path d="M230.193 144.457H228.166V142.43H230.193V144.457Z" fill="#F0F0F0"/>
<path d="M218.417 148.139H216.39V146.112H218.417V148.139Z" fill="#FAFAFA"/>
<path d="M222.339 148.139H220.312V146.112H222.339V148.139Z" fill="#F0F0F0"/>
<path d="M226.266 148.139H224.239V146.112H226.266V148.139Z" fill="#F0F0F0"/>
<path d="M230.193 148.139H228.166V146.112H230.193V148.139Z" fill="#FAFAFA"/>
<path d="M218.417 151.825H216.39V149.798H218.417V151.825Z" fill="#F0F0F0"/>
<path d="M222.339 151.825H220.312V149.798H222.339V151.825Z" fill="#FAFAFA"/>
<path d="M226.266 151.825H224.239V149.798H226.266V151.825Z" fill="#FAFAFA"/>
<path d="M230.193 151.825H228.166V149.798H230.193V151.825Z" fill="#F0F0F0"/>
<path d="M218.417 155.506H216.39V153.479H218.417V155.506Z" fill="#F0F0F0"/>
<path d="M222.339 155.506H220.312V153.479H222.339V155.506Z" fill="#FAFAFA"/>
<path d="M226.266 155.506H224.239V153.479H226.266V155.506Z" fill="#F0F0F0"/>
<path d="M230.193 155.506H228.166V153.479H230.193V155.506Z" fill="#FAFAFA"/>
<path d="M218.417 159.198H216.39V157.17H218.417V159.198Z" fill="#FAFAFA"/>
<path d="M222.339 159.198H220.312V157.17H222.339V159.198Z" fill="#FAFAFA"/>
<path d="M226.266 159.198H224.239V157.17H226.266V159.198Z" fill="#F0F0F0"/>
<path d="M230.193 159.198H228.166V157.17H230.193V159.198Z" fill="#F0F0F0"/>
<path d="M126.088 134.049H141.924V161.436H126.088V134.049Z" fill="#EBEBEB"/>
<path d="M129.124 130.219V137.09H130.374H137.634H138.883V130.219H129.124Z" fill="#EBEBEB"/>
<path d="M129.13 137.09H127.102V135.063H129.13V137.09Z" fill="#FAFAFA"/>
<path d="M133.057 137.09H131.029V135.063H133.057V137.09Z" fill="#FAFAFA"/>
<path d="M136.979 137.09H134.951V135.063H136.979V137.09Z" fill="#FAFAFA"/>
<path d="M140.906 137.09H138.878V135.063H140.906V137.09Z" fill="#F0F0F0"/>
<path d="M129.13 140.776H127.102V138.749H129.13V140.776Z" fill="#F0F0F0"/>
<path d="M133.057 140.776H131.029V138.749H133.057V140.776Z" fill="#F0F0F0"/>
<path d="M136.979 140.776H134.951V138.749H136.979V140.776Z" fill="#FAFAFA"/>
<path d="M140.906 140.776H138.878V138.749H140.906V140.776Z" fill="#FAFAFA"/>
<path d="M129.13 144.457H127.102V142.43H129.13V144.457Z" fill="#F0F0F0"/>
<path d="M133.057 144.457H131.029V142.43H133.057V144.457Z" fill="#FAFAFA"/>
<path d="M136.979 144.457H134.951V142.43H136.979V144.457Z" fill="#FAFAFA"/>
<path d="M133.057 133.906H131.029V131.878H133.057V133.906Z" fill="#FAFAFA"/>
<path d="M136.979 133.906H134.951V131.878H136.979V133.906Z" fill="#F0F0F0"/>
<path d="M140.906 144.457H138.878V142.43H140.906V144.457Z" fill="#F0F0F0"/>
<path d="M129.13 148.139H127.102V146.112H129.13V148.139Z" fill="#FAFAFA"/>
<path d="M133.057 148.139H131.029V146.112H133.057V148.139Z" fill="#F0F0F0"/>
<path d="M136.979 148.139H134.951V146.112H136.979V148.139Z" fill="#F0F0F0"/>
<path d="M140.906 148.139H138.878V146.112H140.906V148.139Z" fill="#FAFAFA"/>
<path d="M129.13 151.825H127.102V149.798H129.13V151.825Z" fill="#F0F0F0"/>
<path d="M133.057 151.825H131.029V149.798H133.057V151.825Z" fill="#FAFAFA"/>
<path d="M136.979 151.825H134.951V149.798H136.979V151.825Z" fill="#FAFAFA"/>
<path d="M140.906 151.825H138.878V149.798H140.906V151.825Z" fill="#F0F0F0"/>
<path d="M129.13 155.506H127.102V153.479H129.13V155.506Z" fill="#F0F0F0"/>
<path d="M133.057 155.506H131.029V153.479H133.057V155.506Z" fill="#FAFAFA"/>
<path d="M136.979 155.506H134.951V153.479H136.979V155.506Z" fill="#F0F0F0"/>
<path d="M140.906 155.506H138.878V153.479H140.906V155.506Z" fill="#FAFAFA"/>
<path d="M129.13 159.198H127.102V157.17H129.13V159.198Z" fill="#FAFAFA"/>
<path d="M133.057 159.198H131.029V157.17H133.057V159.198Z" fill="#FAFAFA"/>
<path d="M136.979 159.198H134.951V157.17H136.979V159.198Z" fill="#F0F0F0"/>
<path d="M140.906 159.198H138.878V157.17H140.906V159.198Z" fill="#F0F0F0"/>
<path d="M100.929 144.022H115.116V161.43H100.929V144.022Z" fill="#F0F0F0"/>
<path d="M113.882 145.952H110.585H109.674H108.767V147.77H109.674H110.585H113.882V145.952Z" fill="#E6E6E6"/>
<path d="M113.882 149.475H110.585H109.674H108.767V151.288H109.674H110.585H113.882V149.475Z" fill="#FAFAFA"/>
<path d="M113.882 152.992H110.585H109.674H108.767V154.805H109.674H110.585H113.882V152.992Z" fill="#E6E6E6"/>
<path d="M113.882 156.51H110.585H109.177H108.767V158.328H109.177H110.585H113.882V156.51Z" fill="#FAFAFA"/>
<path d="M107.283 145.952H103.98H103.074H102.168V147.77H103.074H103.98H107.283V145.952Z" fill="#FAFAFA"/>
<path d="M107.283 149.475H103.98H102.7H102.168V151.288H102.7H103.98H107.283V149.475Z" fill="#FAFAFA"/>
<path d="M107.283 152.992H103.98H103.074H102.168V154.805H103.074H103.98H107.283V152.992Z" fill="#E6E6E6"/>
<path d="M107.283 156.51H103.98H103.074H102.168V158.328H103.074H103.98H107.283V156.51Z" fill="#FAFAFA"/>
<path d="M168.589 150.617H181.482V161.435H168.589V150.617Z" fill="#F0F0F0"/>
<path d="M171.068 153.617H169.419V151.968H171.068V153.617Z" fill="#FAFAFA"/>
<path d="M174.268 153.617H172.619V151.968H174.268V153.617Z" fill="#FAFAFA"/>
<path d="M177.457 153.617H175.809V151.968H177.457V153.617Z" fill="#FAFAFA"/>
<path d="M180.657 153.617H179.009V151.968H180.657V153.617Z" fill="#FAFAFA"/>
<path d="M171.068 156.612H169.419V154.964H171.068V156.612Z" fill="#FAFAFA"/>
<path d="M174.268 156.612H172.619V154.964H174.268V156.612Z" fill="#FAFAFA"/>
<path d="M177.457 156.612H175.809V154.964H177.457V156.612Z" fill="#FAFAFA"/>
<path d="M180.657 156.612H179.009V154.964H180.657V156.612Z" fill="#E6E6E6"/>
<path d="M171.068 159.607H169.419V157.959H171.068V159.607Z" fill="#E6E6E6"/>
<path d="M174.268 159.607H172.619V157.959H174.268V159.607Z" fill="#E6E6E6"/>
<path d="M177.457 159.607H175.809V157.959H177.457V159.607Z" fill="#FAFAFA"/>
<path d="M180.657 159.607H179.009V157.959H180.657V159.607Z" fill="#E6E6E6"/>
<path d="M143.276 150.617H156.168V161.435H143.276V150.617Z" fill="#F0F0F0"/>
<path d="M145.749 153.617H144.1V151.968H145.749V153.617Z" fill="#FAFAFA"/>
<path d="M148.949 153.617H147.3V151.968H148.949V153.617Z" fill="#FAFAFA"/>
<path d="M152.149 153.617H150.5V151.968H152.149V153.617Z" fill="#FAFAFA"/>
<path d="M155.339 153.617H153.69V151.968H155.339V153.617Z" fill="#FAFAFA"/>
<path d="M145.749 156.612H144.1V154.964H145.749V156.612Z" fill="#FAFAFA"/>
<path d="M148.949 156.612H147.3V154.964H148.949V156.612Z" fill="#FAFAFA"/>
<path d="M152.149 156.612H150.5V154.964H152.149V156.612Z" fill="#FAFAFA"/>
<path d="M155.339 156.612H153.69V154.964H155.339V156.612Z" fill="#E6E6E6"/>
<path d="M145.749 159.607H144.1V157.959H145.749V159.607Z" fill="#E6E6E6"/>
<path d="M148.949 159.607H147.3V157.959H148.949V159.607Z" fill="#E6E6E6"/>
<path d="M152.149 159.607H150.5V157.959H152.149V159.607Z" fill="#FAFAFA"/>
<path d="M155.339 159.607H153.69V157.959H155.339V159.607Z" fill="#E6E6E6"/>
<path d="M183.228 142.614H196.12V161.43H183.228V142.614Z" fill="#F0F0F0"/>
<path d="M184.052 143.444H188.9V148.093H184.052V143.444Z" fill="#FAFAFA"/>
<path d="M190.447 143.444H195.295V148.093H190.447V143.444Z" fill="#FAFAFA"/>
<path d="M184.052 149.439H188.9V154.088H184.052V149.439Z" fill="#FAFAFA"/>
<path d="M190.447 149.439H195.295V154.088H190.447V149.439Z" fill="#FAFAFA"/>
<path d="M184.052 155.435H188.9V160.084H184.052V155.435Z" fill="#FAFAFA"/>
<path d="M190.447 155.435H195.295V160.084H190.447V155.435Z" fill="#FAFAFA"/>
<path d="M85.881 142.614H98.7731V161.43H85.881V142.614Z" fill="#F0F0F0"/>
<path d="M86.7053 143.444H91.5539V148.093H86.7053V143.444Z" fill="#FAFAFA"/>
<path d="M93.1002 143.444H97.9488V148.093H93.1002V143.444Z" fill="#FAFAFA"/>
<path d="M86.7053 149.439H91.5539V154.088H86.7053V149.439Z" fill="#FAFAFA"/>
<path d="M93.1002 149.439H97.9488V154.088H93.1002V149.439Z" fill="#FAFAFA"/>
<path d="M86.7053 155.435H91.5539V160.084H86.7053V155.435Z" fill="#FAFAFA"/>
<path d="M93.1002 155.435H97.9488V160.084H93.1002V155.435Z" fill="#FAFAFA"/>
<path d="M247.304 168.153C247.304 168.153 249.895 162.521 246.936 156.92C243.976 151.319 243.111 150.034 245 148.887C246.89 147.74 247.755 153.351 247.755 153.351C248.686 150.817 248.777 148.051 248.016 145.461C246.705 141.427 245.881 134.858 247.673 134.151C249.465 133.445 248.016 142.343 249.578 145.385C250.375 143.254 250.891 141.029 251.114 138.764C251.329 135.524 250.991 130.347 252.409 129.036C253.827 127.726 254.733 128.627 253.341 135.78C252.504 140.052 252.041 144.39 251.958 148.743C251.958 148.743 255.03 139.364 257.078 139.087C259.126 138.811 259.126 141.852 257.37 144.489C255.614 147.125 252.194 151.846 251.636 154.273C251.636 154.273 255.015 147.212 258.051 149.378C261.087 151.544 255.404 155.804 252.875 157.345C250.346 158.886 248.584 168.542 248.584 168.542L247.304 168.153Z" fill="#E0E0E0"/>
<path d="M249.352 170.472C249.352 170.472 246.828 164.779 249.864 159.249C252.9 153.719 253.771 152.414 251.912 151.246C250.054 150.079 249.107 155.665 249.107 155.665C249.107 155.665 247.571 151.784 248.922 147.77C250.274 143.756 251.19 137.197 249.404 136.465C247.617 135.733 248.963 144.657 247.356 147.668C246.585 145.521 246.098 143.284 245.907 141.012C245.732 137.771 246.132 132.599 244.729 131.253C243.326 129.906 242.41 130.807 243.705 137.981C244.494 142.27 244.909 146.619 244.944 150.98C244.944 150.98 241.98 141.554 239.916 141.252C237.853 140.95 237.822 143.981 239.558 146.644C241.293 149.306 244.647 154.078 245.19 156.515C245.19 156.515 241.898 149.403 238.836 151.523C235.774 153.643 241.396 157.989 243.915 159.566C246.434 161.143 248.072 170.83 248.072 170.83L249.352 170.472Z" fill="#EBEBEB"/>
<path d="M237.704 166.417H258.563L256.874 181.337H239.394L237.704 166.417Z" fill="#EBEBEB"/>
<path d="M81.3702 165.352C81.2934 164.84 79.568 152.916 83.0291 148.794C83.3744 148.36 83.8115 148.009 84.3091 147.764C84.8067 147.52 85.3523 147.389 85.9066 147.381C92.9005 147.217 93.8579 152.834 93.8681 152.89L93.0387 153.018C93.008 152.813 92.1786 148.062 85.927 148.216C85.491 148.22 85.0614 148.322 84.6705 148.515C84.2795 148.709 83.9372 148.988 83.6691 149.332C80.4435 153.167 82.1792 165.112 82.1946 165.229L81.3702 165.352Z" fill="#EBEBEB"/>
<path d="M80.9504 164.81L80.1158 164.784C80.1158 164.672 80.3923 153.786 75.0266 151.539C69.7734 149.337 67.408 153.863 67.3107 154.058L66.5632 153.684C66.5939 153.633 69.3638 148.262 75.3491 150.771C81.2422 153.264 80.9606 164.339 80.9504 164.81Z" fill="#EBEBEB"/>
<path d="M80.9709 165.665C80.9709 165.49 80.9197 148.257 77.5661 143.239C74.3456 138.406 69.1437 140.679 68.9235 140.781L68.5805 140.024C68.6419 139.993 74.6374 137.346 78.2624 142.778C81.7542 148.021 81.8054 164.943 81.8054 165.665H80.9709Z" fill="#EBEBEB"/>
<path d="M86.9101 147.79C86.9101 147.79 83.8381 148.917 84.7648 151.574C85.6915 154.231 95.3274 158.604 95.3274 158.604C95.3274 158.604 99.367 154.902 95.655 148.876C91.943 142.85 86.992 145.891 86.9101 147.79Z" fill="#E0E0E0"/>
<path d="M77.4125 142.333C77.4125 142.333 79.5834 142.102 79.4093 140.797C79.2352 139.491 70.9818 136.076 66.0973 141.575C66.0973 141.575 69.2154 146.93 73.721 146.997C78.2266 147.063 77.4125 142.333 77.4125 142.333Z" fill="#E0E0E0"/>
<path d="M75.1904 151.155C75.1904 151.155 76.6855 149.946 75.0727 149.357C73.4599 148.769 65.5341 148.938 65.4522 156.781C65.4522 156.781 74.6682 158.317 75.8202 155.327C76.9722 152.337 75.1904 151.155 75.1904 151.155Z" fill="#E0E0E0"/>
<path d="M88.5485 181.337H74.2279L72.6867 165.665H90.0947L88.5485 181.337Z" fill="#EBEBEB"/>
<path d="M90.8627 167.39H71.9239V163.929H90.8627V167.39Z" fill="#E0E0E0"/>
<path d="M162 204.751C107.174 204.751 62.7283 202.156 62.7283 198.955C62.7283 195.754 107.174 193.159 162 193.159C216.826 193.159 261.272 195.754 261.272 198.955C261.272 202.156 216.826 204.751 162 204.751Z" fill="#F5F5F5"/>
<path d="M153.828 37.7158H169.875L209.35 198.643H114.353L153.828 37.7158Z" fill="#1C2CBC"/>
<path opacity="0.7" d="M153.828 37.7158H169.875L209.35 198.643H114.353L153.828 37.7158Z" fill="white"/>
<path opacity="0.2" d="M154.888 37.7158H168.815L203.068 198.643H120.63L154.888 37.7158Z" fill="white"/>
<path d="M172.051 192.34L171.651 192.898L170.852 192.555L170.34 194.997L166.977 199.661C166.977 199.661 165.692 199.866 166.705 197.214C166.753 197.085 166.787 196.951 166.808 196.814C167.11 195.227 166.449 192.206 166.449 192.206L168.298 189.646C168.469 189.656 168.64 189.674 168.81 189.703C169.593 189.81 171.124 190.179 172.051 192.34Z" fill="#1C2CBC"/>
<path opacity="0.2" d="M172.051 192.34L171.651 192.898L170.852 192.555L170.34 194.997L166.977 199.661C166.977 199.661 165.692 199.866 166.705 197.214C166.753 197.085 166.787 196.951 166.808 196.814C167.11 195.227 166.449 192.206 166.449 192.206L168.298 189.646C168.469 189.656 168.64 189.674 168.81 189.703C169.593 189.81 171.124 190.179 172.051 192.34Z" fill="black"/>
<path d="M168.83 189.682C168.211 189.749 168.753 192.483 168.502 194.013C168.282 195.386 167.683 196.676 166.813 196.809C167.115 195.222 166.035 191.607 166.035 191.607L167.519 189.559C167.519 189.559 168.502 189.615 168.83 189.682Z" fill="#EBB376"/>
<path opacity="0.2" d="M168.83 189.682C168.211 189.749 168.753 192.483 168.502 194.013C168.282 195.386 167.683 196.676 166.813 196.809C167.115 195.222 166.035 191.607 166.035 191.607L167.519 189.559C167.519 189.559 168.502 189.615 168.83 189.682Z" fill="black"/>
<path d="M166.895 199.487H166.209L166.019 198.642L163.746 199.666H157.996C157.996 199.666 157.08 198.745 159.819 198.013C159.954 197.977 160.084 197.927 160.208 197.864C161.667 197.178 163.746 194.864 163.746 194.864H166.905C167.002 195.009 167.09 195.162 167.166 195.319C167.509 196.016 168.103 197.475 166.895 199.487Z" fill="#1C2CBC"/>
<path d="M167.166 195.319C166.746 194.853 164.852 196.896 163.459 197.592C162.22 198.207 160.828 198.483 160.208 197.853C161.667 197.167 163.966 194.177 163.966 194.177H166.526C166.526 194.177 167.018 195.022 167.166 195.319Z" fill="#EBB376"/>
<path d="M141.924 92.1972L143.297 88.5723L139.011 88.9358C139.011 88.9358 137.987 92.2433 139.713 92.699L141.924 92.1972Z" fill="#EBB376"/>
<path d="M142.585 84.8047L139.011 86.3663V88.9365L143.292 88.573L142.585 84.8047Z" fill="#EBB376"/>
<path d="M139.201 92.269C139.201 92.269 139.385 108.418 142.969 108.418C144.961 108.418 147.213 107.122 149.113 105.658C150.722 104.406 152.217 103.013 153.578 101.495V101.439L154.832 93.9432C151.304 93.8562 145.145 101.941 145.145 101.941L142.175 91.7007L139.201 92.269Z" fill="#1C2CBC"/>
<path opacity="0.2" d="M149.128 105.648C150.738 104.397 152.232 103.004 153.593 101.486V101.43L152.446 98.8696C150.523 100.628 149.337 103.051 149.128 105.648Z" fill="black"/>
<path d="M169.332 76.0336C169.332 76.0336 168.211 74.0983 165 73.7655C161.79 73.4327 157.53 75.153 156.88 80.0477C156.23 84.9424 154.832 87.6356 154.832 87.6356C154.832 87.6356 165.174 90.3389 168.083 89.3661C170.991 88.3933 175.486 77.4416 169.332 76.0336Z" fill="#263238"/>
<path d="M149.502 162.173C151.038 165.014 152.6 168.071 154.11 171.133C156.081 175.172 157.935 179.222 159.522 182.847C161.196 186.667 162.553 190.015 163.403 192.324C164.207 192.416 166.628 190.973 167.33 189.662C166.089 182.205 164.205 174.87 161.698 167.738C160.131 163.458 158.211 159.244 155.907 155.839C165.328 129.041 163.019 118.975 163.019 118.975L152.103 118.489C152.103 118.489 150.454 128.468 149.133 138.703C148.442 144.068 147.848 149.506 147.628 153.612V153.653C147.451 156.612 148.099 159.561 149.502 162.173Z" fill="#263238"/>
<path opacity="0.2" d="M158.498 147.867C159.88 143.31 160.879 139.368 161.57 135.983C160.868 133.342 159.88 131.073 158.534 129.711C158.544 129.711 156.604 137.084 158.498 147.867Z" fill="black"/>
<path opacity="0.2" d="M159.507 182.847C161.181 186.666 162.538 190.015 163.388 192.324C164.191 192.416 166.613 190.972 167.315 189.662C166.074 182.205 164.19 174.869 161.683 167.738C160.868 172.177 159.952 177.783 159.507 182.847Z" fill="black"/>
<path d="M156.235 117.296C156.235 117.296 159.409 141.872 161.232 153.714C163.147 166.141 163.388 186.073 162.911 194.198C163.608 194.603 166.142 195.094 167.519 194.664C167.519 194.664 173.996 169.535 169.695 154.938C173.612 126.189 167.939 119.149 167.939 119.149L156.235 117.296Z" fill="#263238"/>
<path opacity="0.7" d="M157.295 101.818C160.488 98.9378 164.03 96.4695 167.837 94.4705C167.489 94.4296 167.13 94.3937 166.777 94.363C164.359 94.1095 161.926 94.0274 159.496 94.1173C158.897 94.1531 158.278 94.2043 157.668 94.2555C156.163 97.7064 157.295 101.818 157.295 101.818Z" fill="white"/>
<path d="M167.837 117.295C168.164 113.568 169.501 106.733 171.8 99.5547C172.547 97.22 171.288 94.5832 171.288 94.5832C171.288 94.5832 168.154 94.5064 167.842 94.4705C167.53 94.4347 167.135 94.3937 166.782 94.363C164.364 94.1095 161.931 94.0274 159.501 94.1173C158.902 94.1531 158.283 94.2043 157.674 94.2555C157.479 94.2555 155.277 94.2965 155.088 94.3169C155.088 94.3169 152.042 97.7985 151.857 100.62C151.628 102.789 151.544 104.972 151.606 107.153C151.606 109.713 151.806 113.092 151.975 116.691L167.837 117.295Z" fill="#1C2CBC"/>
<path opacity="0.8" d="M167.837 117.295C168.164 113.568 169.501 106.733 171.8 99.5547C172.547 97.22 171.288 94.5832 171.288 94.5832C171.288 94.5832 168.154 94.5064 167.842 94.4705C167.53 94.4347 167.135 94.3937 166.782 94.363C164.364 94.1095 161.931 94.0274 159.501 94.1173C158.902 94.1531 158.283 94.2043 157.674 94.2555C157.479 94.2555 155.277 94.2965 155.088 94.3169C155.088 94.3169 152.042 97.7985 151.857 100.62C151.628 102.789 151.544 104.972 151.606 107.153C151.606 109.713 151.806 113.092 151.975 116.691L167.837 117.295Z" fill="white"/>
<path d="M167.837 117.296L151.965 116.226C151.965 116.226 151.489 120.997 151.596 120.931C151.704 120.864 168.584 121.52 168.584 121.52L167.837 117.296Z" fill="#263238"/>
<path d="M167.693 117.562L151.97 116.692V118.182L167.837 119.027L167.693 117.562Z" fill="black"/>
<path d="M158.841 118.791C158.949 118.792 159.054 118.752 159.134 118.679C159.214 118.606 159.263 118.505 159.271 118.396L159.338 117.521C159.343 117.465 159.336 117.408 159.319 117.354C159.301 117.3 159.273 117.251 159.235 117.209C159.199 117.166 159.154 117.131 159.104 117.105C159.054 117.08 158.999 117.064 158.943 117.06L157.223 116.927C157.164 116.922 157.104 116.929 157.047 116.948C156.991 116.968 156.939 116.999 156.895 117.04C156.852 117.08 156.817 117.129 156.793 117.184C156.77 117.239 156.757 117.297 156.757 117.357V118.274C156.757 118.384 156.799 118.491 156.876 118.571C156.952 118.651 157.056 118.698 157.167 118.704L158.82 118.791H158.841ZM159.015 118.376C159.015 118.399 159.009 118.421 158.999 118.442C158.99 118.463 158.976 118.481 158.958 118.496C158.941 118.511 158.92 118.522 158.899 118.529C158.877 118.536 158.853 118.538 158.831 118.535L157.177 118.448C157.133 118.445 157.091 118.426 157.06 118.393C157.03 118.361 157.013 118.318 157.013 118.274V117.357C157.013 117.333 157.018 117.309 157.027 117.287C157.037 117.265 157.051 117.245 157.069 117.229C157.087 117.213 157.108 117.2 157.131 117.192C157.154 117.184 157.178 117.181 157.203 117.183L158.923 117.316C158.946 117.318 158.968 117.324 158.988 117.335C159.008 117.345 159.026 117.36 159.041 117.378C159.056 117.394 159.067 117.413 159.074 117.435C159.081 117.456 159.084 117.478 159.082 117.5L159.015 118.376Z" fill="white"/>
<path d="M166.547 128.212L172.035 127.219L168.84 115.407C168.84 115.407 169.654 112.473 170.561 109.109C170.996 107.476 171.452 105.74 171.841 104.194C172.274 102.656 172.616 101.093 172.865 99.5144C172.967 97.6303 171.288 94.5838 171.288 94.5838L167.325 93.9438C167.325 93.9438 163.71 97.9323 163.475 105.576C163.239 113.221 166.547 128.212 166.547 128.212Z" fill="#1C2CBC"/>
<path d="M158.262 93.9441C158.262 93.9441 154.817 99.9447 154.023 104.379C153.229 108.813 151.043 127.664 151.043 127.664L149.855 127.07L151.509 115.806C151.509 115.806 150.915 102.761 151.376 100.083C151.837 97.4052 154.837 93.939 154.837 93.939L158.262 93.9441Z" fill="#1C2CBC"/>
<path d="M159.952 93.6562L159.716 93.4463C159.716 93.4463 156.368 93.8713 153.296 97.7061L154.489 98.8684L152.441 100.507L153.409 108.417C153.409 108.417 156.511 97.8751 157.853 95.3458C158.468 94.6849 159.175 94.1159 159.952 93.6562Z" fill="#1C2CBC"/>
<path opacity="0.2" d="M159.952 93.657L159.716 93.4624C159.716 93.4624 156.368 93.872 153.296 97.7069L154.489 98.8691L152.441 100.507L153.409 108.418C153.409 108.418 156.511 97.8758 157.853 95.3466C158.468 94.6857 159.175 94.1167 159.952 93.657Z" fill="black"/>
<path d="M166.541 93.9432C166.541 93.9432 162.707 98.1774 163.562 109.303L167.315 101.306L165.958 99.1246L169.132 96.1448C169.132 96.1448 167.468 92.9858 166.291 93.2981L166.541 93.9432Z" fill="#1C2CBC"/>
<path opacity="0.2" d="M166.541 93.9432C166.541 93.9432 162.707 98.1774 163.562 109.303L167.315 101.306L165.958 99.1246L169.132 96.1448C169.132 96.1448 167.468 92.9858 166.291 93.2981L166.541 93.9432Z" fill="black"/>
<path d="M158.559 95.1467L159.44 100.415L166.372 94.3531C164.908 92.7352 165.83 88.4754 166.547 86.1611L164.58 87.6306L161.662 89.8168C161.716 90.4197 161.667 91.0272 161.519 91.6139C161.299 92.5406 160.904 93.4162 160.464 93.6005L158.559 95.1467Z" fill="#EBB376"/>
<path opacity="0.2" d="M161.519 91.604C162.686 91.3429 164.212 90.1345 164.458 88.9467C164.55 88.5109 164.591 88.0659 164.58 87.6206L161.662 89.8068C161.716 90.4097 161.667 91.0173 161.519 91.604Z" fill="black"/>
<path d="M166.029 93.0215C166.029 93.0215 163.065 95.3101 159.583 100.143C159.583 100.143 159.271 95.3204 160.464 93.5898L160.218 93.2928C158.395 94.0902 156.808 95.344 155.61 96.9332L157.904 96.2061L159.476 100.456L164.207 96.5492L167.391 97.1021C167.391 97.1021 167.253 93.9636 166.029 93.0215Z" fill="#1C2CBC"/>
<path opacity="0.7" d="M166.029 93.0215C166.029 93.0215 163.065 95.3101 159.583 100.143C159.583 100.143 159.271 95.3204 160.464 93.5898L160.218 93.2928C158.395 94.0902 156.808 95.344 155.61 96.9332L157.904 96.2061L159.476 100.456L164.207 96.5492L167.391 97.1021C167.391 97.1021 167.253 93.9636 166.029 93.0215Z" fill="white"/>
<path d="M168.702 81.5223C167.862 85.2752 167.591 86.8829 165.369 88.6237C162.031 91.24 157.617 89.6477 157.325 85.7719C157.059 82.2903 158.477 76.73 162.415 75.6138C163.253 75.3461 164.148 75.3074 165.006 75.5017C165.864 75.696 166.655 76.1162 167.296 76.7188C167.937 77.3214 168.406 78.0846 168.653 78.9291C168.9 79.7737 168.917 80.669 168.702 81.5223Z" fill="#EBB376"/>
<path d="M163.853 81.9831C163.797 82.3057 163.582 82.5463 163.382 82.5207C163.183 82.4951 163.055 82.2238 163.111 81.9063C163.167 81.5889 163.382 81.3483 163.587 81.3943C163.792 81.4404 163.91 81.6657 163.853 81.9831Z" fill="#263238"/>
<path d="M159.885 81.4356C159.829 81.7531 159.619 81.9937 159.414 81.9476C159.21 81.9016 159.092 81.6507 159.148 81.3332C159.204 81.0158 159.414 80.7752 159.619 80.7956C159.824 80.8161 159.952 81.1131 159.885 81.4356Z" fill="#263238"/>
<path d="M159.706 80.8414L158.995 80.5444C158.995 80.5444 159.276 81.1793 159.706 80.8414Z" fill="#263238"/>
<path d="M160.976 82.2646C160.568 82.9614 160.072 83.6031 159.501 84.1744C159.643 84.3088 159.814 84.4087 160 84.4664C160.187 84.5242 160.384 84.5381 160.577 84.5072L160.976 82.2646Z" fill="#D58745"/>
<path d="M164.796 80.048C164.771 80.048 164.747 80.0425 164.725 80.0318C164.702 80.0212 164.683 80.0057 164.668 79.9865C164.524 79.8078 164.339 79.6674 164.128 79.578C163.917 79.4886 163.687 79.4531 163.459 79.4745C163.436 79.4789 163.411 79.4783 163.388 79.4728C163.364 79.4673 163.342 79.457 163.323 79.4426C163.304 79.4282 163.288 79.4099 163.276 79.389C163.264 79.368 163.257 79.3449 163.254 79.3209C163.251 79.2706 163.267 79.2208 163.298 79.1811C163.329 79.1414 163.374 79.1146 163.423 79.1059C163.712 79.0737 164.003 79.1145 164.272 79.2246C164.54 79.3346 164.777 79.5104 164.959 79.7357C164.975 79.7547 164.986 79.7767 164.993 79.8002C165 79.8237 165.002 79.8483 164.999 79.8727C164.996 79.897 164.988 79.9205 164.976 79.9418C164.964 79.9631 164.948 79.9818 164.929 79.9968C164.892 80.0296 164.845 80.0479 164.796 80.048Z" fill="#263238"/>
<path d="M158.631 79.1619C158.607 79.1643 158.583 79.1619 158.56 79.1549C158.537 79.1479 158.516 79.1363 158.498 79.121C158.481 79.1038 158.467 79.0835 158.458 79.0611C158.449 79.0387 158.444 79.0147 158.444 78.9904C158.444 78.9661 158.449 78.9421 158.458 78.9197C158.467 78.8973 158.481 78.877 158.498 78.8598C158.684 78.6191 158.923 78.4245 159.197 78.2913C159.47 78.1581 159.771 78.0898 160.075 78.0918C160.099 78.0936 160.122 78.1003 160.143 78.1116C160.164 78.1229 160.182 78.1385 160.196 78.1573C160.211 78.1762 160.221 78.1979 160.227 78.221C160.232 78.2441 160.233 78.2682 160.228 78.2915C160.222 78.3417 160.197 78.3877 160.158 78.42C160.119 78.4523 160.069 78.4686 160.019 78.4656C159.778 78.4687 159.542 78.5266 159.327 78.6348C159.112 78.7431 158.925 78.8988 158.78 79.0902C158.761 79.1114 158.738 79.1286 158.712 79.1409C158.687 79.1532 158.659 79.1603 158.631 79.1619Z" fill="#263238"/>
<path d="M163.674 81.3944L162.963 81.0923C162.963 81.0923 163.239 81.7323 163.674 81.3944Z" fill="#263238"/>
<path d="M166.777 83.6988C166.777 83.6988 164.929 81.0057 166.337 77.0428C166.337 77.0428 162.159 74.9948 158.995 78.1078C158.995 78.1078 161.939 72.9468 168.088 75.4198C174.237 77.8927 169.624 83.7961 168.835 84.2876C168.047 84.7791 166.777 83.6988 166.777 83.6988Z" fill="#263238"/>
<path d="M169.455 84.768C169.21 85.0935 168.903 85.367 168.551 85.5727C168.199 85.7784 167.81 85.9121 167.407 85.9661C166.383 86.0889 166.065 85.0393 166.541 84.0768C166.966 83.2064 168.021 82.1005 168.979 82.423C169.936 82.7456 170.084 83.9437 169.455 84.768Z" fill="#EBB376"/>
<path d="M160.356 85.3827C160.564 85.8642 160.735 86.3605 160.868 86.8675C160.961 86.8726 161.053 86.8726 161.145 86.8675C162.394 86.7447 162.927 86.2736 163.147 85.7872C163.246 85.5494 163.288 85.2916 163.27 85.0346C163.262 84.8881 163.235 84.7434 163.188 84.6045C162.453 85.0251 161.635 85.2818 160.792 85.3571C160.52 85.3725 160.356 85.3827 160.356 85.3827Z" fill="#263238"/>
<path d="M160.781 85.3313L160.94 85.7664C162.118 85.6436 162.927 85.4029 163.26 85.0087C163.252 84.8622 163.225 84.7175 163.178 84.5786C162.442 84.9992 161.625 85.2559 160.781 85.3313Z" fill="white"/>
<path d="M161.135 86.8416C162.384 86.7187 162.916 86.2476 163.137 85.7612C162.664 85.8195 162.205 85.9598 161.78 86.1759C161.5 86.3244 161.274 86.5573 161.135 86.8416Z" fill="#DE5753"/>
<path opacity="0.2" d="M169.834 108.208C169.971 108.581 170.226 108.899 170.561 109.114C170.996 107.481 171.452 105.745 171.841 104.199C170.817 102.97 169.967 101.946 169.967 101.946C169.967 101.946 168.799 105.571 169.834 108.208Z" fill="black"/>
<path d="M171.277 94.5835C173.453 94.8497 180.104 111.372 179.705 113.983C179.306 116.594 165 115.407 165 115.407V111.428L173.351 109.744L170.463 104.071C169.951 102.429 169.738 100.709 169.834 98.9918C170.01 97.4394 170.501 95.9393 171.277 94.5835Z" fill="#1C2CBC"/>
<path d="M162.461 121.479L173.438 120.148C173.537 120.138 173.633 120.108 173.72 120.06C173.807 120.012 173.883 119.947 173.944 119.868C174.004 119.789 174.049 119.699 174.073 119.603C174.098 119.507 174.103 119.407 174.088 119.309L172.158 105.193C172.124 104.991 172.013 104.811 171.849 104.69C171.685 104.568 171.48 104.516 171.277 104.542L160.3 105.874C160.202 105.883 160.106 105.912 160.019 105.96C159.932 106.008 159.856 106.072 159.795 106.151C159.734 106.229 159.69 106.318 159.665 106.414C159.64 106.51 159.635 106.61 159.65 106.708L161.58 120.829C161.614 121.03 161.725 121.211 161.889 121.332C162.054 121.453 162.258 121.506 162.461 121.479Z" fill="#263238"/>
<path opacity="0.6" d="M162.461 121.479L173.438 120.148C173.537 120.138 173.633 120.108 173.72 120.06C173.807 120.012 173.883 119.947 173.944 119.868C174.004 119.789 174.049 119.699 174.073 119.603C174.098 119.507 174.103 119.407 174.088 119.309L172.158 105.193C172.124 104.991 172.013 104.811 171.849 104.69C171.685 104.568 171.48 104.516 171.277 104.542L160.3 105.874C160.202 105.883 160.106 105.912 160.019 105.96C159.932 106.008 159.856 106.072 159.795 106.151C159.734 106.229 159.69 106.318 159.665 106.414C159.64 106.51 159.635 106.61 159.65 106.708L161.58 120.829C161.614 121.03 161.725 121.211 161.889 121.332C162.054 121.453 162.258 121.506 162.461 121.479Z" fill="white"/>
<path opacity="0.2" d="M162.916 121.423L173.438 120.148C173.537 120.138 173.633 120.108 173.72 120.06C173.807 120.012 173.883 119.947 173.944 119.868C174.004 119.789 174.049 119.699 174.073 119.603C174.098 119.507 174.103 119.407 174.088 119.309L172.158 105.193C172.124 104.991 172.013 104.811 171.849 104.69C171.685 104.568 171.48 104.516 171.277 104.542L160.756 105.817C160.657 105.827 160.562 105.857 160.475 105.905C160.388 105.954 160.312 106.019 160.252 106.098C160.191 106.176 160.148 106.267 160.123 106.363C160.099 106.459 160.095 106.559 160.111 106.657L162.036 120.773C162.072 120.973 162.184 121.152 162.347 121.273C162.511 121.393 162.715 121.447 162.916 121.423Z" fill="white"/>
<path d="M167.12 111.791C167.436 111.75 167.756 111.834 168.012 112.026C168.267 112.217 168.438 112.5 168.487 112.816C168.509 112.969 168.5 113.125 168.46 113.274C168.42 113.424 168.35 113.564 168.254 113.686C168.158 113.807 168.039 113.908 167.903 113.982C167.767 114.056 167.617 114.102 167.463 114.116C167.148 114.153 166.831 114.068 166.577 113.877C166.323 113.686 166.153 113.405 166.101 113.092C166.255 113.078 166.405 113.033 166.541 112.959C166.678 112.886 166.797 112.785 166.893 112.663C166.988 112.541 167.058 112.401 167.097 112.251C167.136 112.101 167.144 111.945 167.12 111.791Z" fill="#263238"/>
<path opacity="0.3" d="M163.398 106.636L169.168 105.935C169.305 105.919 169.434 105.861 169.538 105.769C169.641 105.678 169.714 105.557 169.747 105.423L169.926 104.69L162.246 105.622L162.64 106.283C162.715 106.412 162.828 106.515 162.964 106.578C163.099 106.641 163.251 106.662 163.398 106.636Z" fill="black"/>
<path d="M161.939 110.941L165.205 111.878L165.891 114.039C165.579 115.8 162.2 115.063 162.2 115.063L161.503 115.498C161.373 115.579 161.226 115.627 161.073 115.638C160.92 115.649 160.767 115.622 160.627 115.56C160.487 115.497 160.365 115.402 160.27 115.281C160.176 115.161 160.112 115.019 160.085 114.868L159.727 112.82C159.697 112.653 159.714 112.48 159.775 112.321C159.836 112.162 159.94 112.023 160.075 111.919L161.099 111.115C161.215 111.021 161.351 110.956 161.498 110.926C161.644 110.896 161.795 110.901 161.939 110.941Z" fill="#EBB376"/>
<path d="M177.933 107.184C179.08 110.323 179.848 113.067 179.705 114.009C179.311 116.62 165 115.432 165 115.432V111.454L173.351 109.744L177.933 107.184Z" fill="#1C2CBC"/>
<path d="M146.712 64.5957H152.994C153.278 64.5957 153.559 64.6516 153.821 64.7602C154.083 64.8688 154.321 65.0279 154.522 65.2285C154.722 65.4292 154.882 65.6674 154.99 65.9295C155.099 66.1916 155.155 66.4726 155.155 66.7563V72.8799C155.155 73.1634 155.099 73.4441 154.99 73.7059C154.881 73.9678 154.722 74.2056 154.521 74.4059C154.321 74.6061 154.082 74.7647 153.82 74.8728C153.558 74.9808 153.277 75.0361 152.994 75.0354H151.514L151.878 77.3189L150.065 75.0354H146.712C146.14 75.0354 145.592 74.8083 145.187 74.404C144.783 73.9998 144.556 73.4515 144.556 72.8799V66.7359C144.562 66.1673 144.791 65.6237 145.194 65.2231C145.598 64.8224 146.143 64.597 146.712 64.5957Z" fill="#1C2CBC"/>
<path d="M152.036 68.5843C151.489 67.6729 150.424 68.0057 149.86 68.7021C149.323 67.9904 148.263 67.632 147.695 68.528C146.737 70.0384 148.652 71.4771 149.558 72.0403L149.82 72.2041L150.081 72.0506C151.002 71.5078 152.953 70.1203 152.036 68.5843Z" fill="white"/>
</g>
<defs>
<clipPath id="clip0_3_901">
<rect width="291" height="216" fill="white"/>
</clipPath>
<clipPath id="clip1_3_901">
<rect width="256" height="191" fill="white" transform="translate(34 14)"/>
</clipPath>
</defs>
</svg>
