<svg width="50" height="50" viewBox="0 0 50 50" fill="none" xmlns="http://www.w3.org/2000/svg">
<circle cx="25" cy="25" r="25" fill="#1C2CBC"/>
<path d="M38.0677 27.6678C37.5154 30.3649 36.1425 32.8252 34.1371 34.7114C32.1318 36.5976 29.5922 37.8175 26.8664 38.2038V35.5038C28.8794 35.1448 30.7471 34.2155 32.2475 32.8262C33.7479 31.4369 34.8179 29.6461 35.3304 27.6665L38.0677 27.6678ZM14.6704 27.6678C15.1771 29.6248 16.2288 31.3977 17.7033 32.7806C19.1777 34.1634 21.0143 35.0995 22.9997 35.4798V38.1838C20.301 37.7731 17.7932 36.5447 15.8144 34.6643C13.8356 32.784 12.4809 30.342 11.933 27.6678H14.6704ZM32.9997 23.6665V26.3332H31.6664C30.2981 26.3332 28.9821 26.8591 27.9906 27.8021C26.9992 28.7452 26.4081 30.0332 26.3397 31.3998L26.3344 31.6665V32.9998H23.6677V31.6665C23.6677 30.2982 23.1418 28.9822 22.1987 27.9908C21.2557 26.9993 19.9677 26.4083 18.601 26.3398L18.3344 26.3332H17.001V23.6665H32.9997ZM24.9997 11.6665C31.9144 11.6665 37.5997 16.9292 38.2677 23.6665H35.585C35.262 21.0869 34.0081 18.714 32.059 16.9937C30.1098 15.2733 27.5995 14.324 24.9997 14.324C22.3999 14.324 19.8896 15.2733 17.9405 16.9937C15.9913 18.714 14.7374 21.0869 14.4144 23.6665H11.7344C12.4037 16.9292 18.0877 11.6665 25.001 11.6665" fill="#D9D9D9"/>
</svg>
