<svg width="27" height="45" viewBox="0 0 27 45" fill="none" xmlns="http://www.w3.org/2000/svg">
<path d="M18.4235 22.9844C17.4864 27.757 16.5492 36.5039 19.89 39.6885C19.89 39.6885 17.9723 44.5305 9.10393 44.5305C0.999174 44.5305 5.06023 39.6885 5.06023 39.6885C10.3795 38.4129 10.2667 34.482 9.31218 30.7594L18.4235 22.9844Z" fill="#E4897B"/>
<path d="M14.7095 26.1602L9.32076 30.7592C9.54735 31.6124 9.7012 32.4833 9.78067 33.3624C11.5162 35.0112 14.6053 30.8373 14.8223 28.7113C14.9369 27.861 14.8987 26.997 14.7095 26.1602Z" fill="#CE6F64"/>
<path d="M3.25529 8.28419C0.0446277 9.64655 -1.69954 18.6451 2.38754 20.719C6.47463 22.7929 9.32952 5.73302 3.25529 8.28419Z" fill="#263238"/>
<path d="M18.9875 15.8079C18.5883 22.2639 18.6838 26.0646 15.421 29.3881C10.5183 34.3777 2.53499 31.41 0.999083 24.9626C-0.389311 19.1574 0.487122 9.56878 6.813 6.99157C8.20566 6.41787 9.72186 6.2098 11.2176 6.38711C12.7133 6.56443 14.1389 7.12125 15.3588 8.00467C16.5787 8.88809 17.5525 10.0688 18.1876 11.4345C18.8227 12.8003 19.0981 14.3057 18.9875 15.8079Z" fill="#E4897B"/>
<path d="M0.278881 7.51236C-0.111605 5.77687 1.5371 3.79841 2.9255 2.6443C4.29169 1.52463 5.89419 0.729657 7.61225 0.319306C9.33032 -0.0910458 11.1191 -0.106075 12.8438 0.275353C15.0442 0.59098 17.1478 1.38799 19.0048 2.60959L17.1479 3.47734C19.1784 4.41451 25.1051 3.54676 24.0378 7.81607C32.6285 11.5561 20.0548 21.4918 17.5123 21.8822C11.9674 22.75 17.7813 17.6997 15.343 13.1267C15.0221 12.4344 14.8409 11.6857 14.8096 10.9234C14.7783 10.161 14.8977 9.40002 15.1607 8.68382C12.705 8.21524 5.68494 8.24127 3.01228 9.22183C1.85818 9.08299 0.478464 8.41482 0.278881 7.51236Z" fill="#263238"/>
<path d="M21.9032 22.9233C21.4773 23.6071 20.9197 24.1995 20.2627 24.6658C19.6057 25.1321 18.8625 25.463 18.0764 25.6393C15.9678 26.1079 15.0306 24.1902 15.7162 22.2638C16.3323 20.5283 18.1806 18.2027 20.2458 18.6019C20.6956 18.6977 21.1143 18.9043 21.4639 19.2031C21.8135 19.5019 22.0829 19.8833 22.2476 20.3127C22.4122 20.742 22.467 21.2058 22.4069 21.6617C22.3467 22.1176 22.1736 22.5513 21.9032 22.9233Z" fill="#E4897B"/>
<path d="M9.19067 17.6127C9.19067 18.1334 8.90432 18.5586 8.5659 18.5586C8.22747 18.5586 7.94112 18.1334 7.94112 17.6127C7.94112 17.0921 8.2188 16.6582 8.5659 16.6582C8.91299 16.6582 9.19067 17.0834 9.19067 17.6127Z" fill="#263238"/>
<path d="M3.23801 17.6127C3.23801 18.1334 2.96033 18.5586 2.61323 18.5586C2.26613 18.5586 1.99714 18.1334 1.99714 17.6127C1.99714 17.0921 2.27481 16.6582 2.61323 16.6582C2.95165 16.6582 3.23801 17.0834 3.23801 17.6127Z" fill="#263238"/>
<path d="M5.12958 17.8735C4.50224 19.4808 3.65535 20.9935 2.61309 22.3685C2.97194 22.6276 3.38337 22.8046 3.81824 22.8871C4.2531 22.9696 4.70078 22.9555 5.12958 22.8457V17.8735Z" fill="#DE5753"/>
<path d="M6.6655 24.2949C6.62407 24.2949 6.58434 24.2784 6.55504 24.2491C6.52575 24.2198 6.50931 24.1801 6.50931 24.1387C6.51153 24.0988 6.52895 24.0612 6.55801 24.0338C6.58706 24.0064 6.62553 23.9911 6.6655 23.9912C7.31973 24.0068 7.96837 23.8671 8.55816 23.5835C9.14795 23.3 9.66208 22.8806 10.0584 22.3598C10.0698 22.3427 10.0844 22.328 10.1015 22.3165C10.1185 22.3051 10.1377 22.2971 10.1579 22.2931C10.178 22.289 10.1988 22.289 10.2189 22.293C10.2391 22.297 10.2582 22.305 10.2753 22.3164C10.3029 22.3441 10.3184 22.3815 10.3184 22.4205C10.3184 22.4596 10.3029 22.497 10.2753 22.5247C9.86109 23.0891 9.31644 23.5449 8.68784 23.8531C8.05924 24.1614 7.36537 24.3129 6.6655 24.2949Z" fill="#263238"/>
<path d="M10.9783 15.6956C10.9311 15.6956 10.8846 15.6847 10.8424 15.6636C10.8003 15.6425 10.7636 15.6119 10.7353 15.5742C10.512 15.2565 10.2159 14.9969 9.87163 14.8172C9.5274 14.6376 9.14513 14.543 8.75684 14.5415C8.67536 14.5463 8.59522 14.5191 8.5336 14.4655C8.47197 14.412 8.43375 14.3365 8.42709 14.2552C8.42224 14.2143 8.42599 14.1729 8.43808 14.1336C8.45017 14.0943 8.47035 14.058 8.49732 14.0269C8.52428 13.9959 8.55741 13.9708 8.59464 13.9533C8.63186 13.9359 8.67232 13.9264 8.71343 13.9254C9.20602 13.9207 9.69225 14.0369 10.1295 14.2638C10.5667 14.4908 10.9416 14.8215 11.2212 15.2271C11.2705 15.2904 11.2927 15.3707 11.2829 15.4504C11.2732 15.5301 11.2323 15.6026 11.1692 15.6522C11.1116 15.6862 11.0449 15.7014 10.9783 15.6956Z" fill="#263238"/>
<path d="M0.565331 15.5039C0.522264 15.5113 0.478242 15.5113 0.435175 15.5039C0.400279 15.4841 0.369644 15.4576 0.345058 15.4259C0.320472 15.3942 0.302425 15.3579 0.291936 15.3192C0.281447 15.2804 0.278715 15.24 0.283939 15.2002C0.289162 15.1604 0.302232 15.1221 0.322363 15.0874C0.551937 14.653 0.883463 14.2808 1.28852 14.0027C1.69357 13.7246 2.16005 13.5489 2.64792 13.4907C2.72075 13.503 2.78687 13.5407 2.83456 13.5971C2.88225 13.6535 2.90842 13.7249 2.90842 13.7988C2.90842 13.8726 2.88225 13.9441 2.83456 14.0005C2.78687 14.0569 2.72075 14.0946 2.64792 14.1068C2.26372 14.1599 1.89782 14.3042 1.58079 14.5276C1.26377 14.751 1.00484 15.0471 0.825645 15.3911C0.794236 15.4291 0.754293 15.4591 0.709047 15.4788C0.6638 15.4984 0.614547 15.507 0.565331 15.5039Z" fill="#263238"/>
</svg>
