<svg width="55" height="55" viewBox="0 0 55 55" fill="none" xmlns="http://www.w3.org/2000/svg">
<g clip-path="url(#clip0_4_2)">
<path d="M27.5 55C42.6878 55 55 42.6878 55 27.5C55 12.3122 42.6878 0 27.5 0C12.3122 0 0 12.3122 0 27.5C0 42.6878 12.3122 55 27.5 55Z" fill="#1C2CBC"/>
<path d="M30.7669 40.204C30.7669 40.204 28.345 46.5943 31.0721 50.9088L17.9862 48.8737C17.9862 48.8737 22.0565 40.7331 20.6319 35.8081C20.6319 35.8488 29.2202 37.3345 30.7669 40.204Z" fill="#B97964"/>
<path opacity="0.1" d="M20.5097 35.0142C23.1554 35.6858 29.7696 38.3518 30.6854 40.2037C30.3832 41.0738 30.1451 41.9649 29.9731 42.8697C22.728 43.0936 21.3645 36.8458 20.5097 35.0142Z" fill="black"/>
<path opacity="0.1" d="M31.011 45.3535L31.886 52.8835C31.886 52.8835 31.2348 49.7901 33.0054 49.6273C34.1499 49.5615 35.2789 49.9162 36.1802 50.6246C36.1802 50.6246 32.4559 45.5163 31.011 45.3535Z" fill="black"/>
<path d="M31.296 26.1642C27.3478 21.7683 26.5338 14.9709 27.3478 13.7702C28.1619 12.5695 36.5059 12.5898 37.381 13.4649C41.7565 17.698 36.2616 23.8848 36.2616 23.8848L37.3403 26.795L31.296 26.1642Z" fill="#263238"/>
<path d="M17.5383 23.3744C18.393 30.4567 18.5355 34.6491 22.3615 38.0885C23.6475 39.2011 25.2091 39.9475 26.8826 40.2495C28.5561 40.5515 30.2799 40.3979 31.8737 39.8049C33.4675 39.2119 34.8725 38.2013 35.9417 36.8789C37.0108 35.5565 37.7047 33.971 37.9506 32.2883C39.0903 25.7759 37.4825 15.295 30.3596 12.8935C29.1464 12.478 27.8631 12.3064 26.5835 12.3887C25.3038 12.471 24.053 12.8054 22.903 13.3728C21.7531 13.9403 20.7267 14.7294 19.8828 15.6949C19.039 16.6604 18.3943 17.7833 17.986 18.9989C17.5143 20.4062 17.3614 21.9008 17.5383 23.3744Z" fill="#B97964"/>
<path d="M16.2767 26.3852C12.7762 21.6434 14.8521 13.2179 15.8289 12.1393C18.4339 9.35118 20.815 10.6536 23.8474 13.5028C28.3246 17.5731 21.4662 24.635 21.4662 24.635L22.2396 27.6673L16.2767 26.3852Z" fill="#263238"/>
<path d="M28.9758 24.8399C28.9758 25.4301 29.1794 25.9185 29.566 25.9389C29.9527 25.9592 30.2783 25.5318 30.3394 24.962C30.4005 24.3922 30.1155 23.8834 29.7288 23.863C29.3421 23.8427 29.0776 24.2701 28.9758 24.8399Z" fill="#263238"/>
<path d="M35.5493 25.4097C35.5493 25.9999 35.7731 26.4883 36.1395 26.529C36.5058 26.5697 36.8721 26.122 36.9128 25.5318C36.9535 24.9416 36.7093 24.4532 36.3226 24.4328C35.9359 24.4125 35.6104 24.8399 35.5493 25.4097Z" fill="#263238"/>
<path d="M32.6187 30.5788L32.8629 30.7619C32.5833 30.5314 32.2474 30.3797 31.8896 30.3224C31.5318 30.2652 31.1652 30.3045 30.8277 30.4363C30.1561 30.6398 29.566 31.0672 28.9147 31.3317C28.6011 31.4975 28.2518 31.5841 27.8971 31.5841C27.5425 31.5841 27.1932 31.4975 26.8796 31.3317C27.2324 32.55 28.0415 33.5851 29.1385 34.2216C29.7596 34.6059 30.4998 34.7498 31.2195 34.626C31.9393 34.5023 32.5889 34.1196 33.046 33.55C33.3428 34.0825 33.7815 34.5223 34.3132 34.8205C34.8449 35.1187 35.4489 35.2636 36.058 35.2392C36.6503 35.1651 37.2088 34.9225 37.667 34.54C38.1252 34.1576 38.4639 33.6514 38.6426 33.0819C38.2957 33.2177 37.9159 33.2456 37.5528 33.1621C37.1897 33.0786 36.8603 32.8876 36.6075 32.6139C36.1723 32.0501 35.7034 31.5132 35.2033 31.0061C34.5724 30.4566 33.046 30.07 32.6187 30.5788Z" fill="#263238"/>
<path d="M33.0461 25.4102C33.5902 27.2306 34.3774 28.9694 35.3865 30.5794C34.9661 30.8254 34.4978 30.978 34.0132 31.0272C33.5287 31.0764 33.0392 31.0208 32.578 30.8643L33.0461 25.4102Z" fill="#A24E3F"/>
<path d="M26.9406 21.9296H26.7778C26.7132 21.8648 26.6769 21.777 26.6769 21.6854C26.6769 21.5939 26.7132 21.506 26.7778 21.4412C27.128 21.0318 27.5715 20.7128 28.0709 20.5109C28.5704 20.309 29.111 20.2302 29.6473 20.2812C29.6922 20.286 29.7357 20.3001 29.7749 20.3226C29.814 20.345 29.8481 20.3754 29.8749 20.4118C29.9017 20.4482 29.9206 20.4897 29.9305 20.5338C29.9404 20.5779 29.941 20.6236 29.9322 20.6679C29.9274 20.7128 29.9134 20.7562 29.8909 20.7954C29.8684 20.8346 29.838 20.8686 29.8016 20.8954C29.7653 20.9222 29.7237 20.9411 29.6796 20.951C29.6356 20.9609 29.5899 20.9615 29.5456 20.9528C29.1221 20.9222 28.6975 20.9909 28.3053 21.1534C27.9131 21.316 27.5643 21.5678 27.2866 21.8889C27.2377 21.9257 27.1799 21.9488 27.1191 21.956C27.0583 21.9631 26.9967 21.9541 26.9406 21.9296Z" fill="#263238"/>
<path d="M38.3373 23.0068C38.2766 22.9982 38.2196 22.9725 38.1728 22.9329C38.126 22.8933 38.0913 22.8413 38.0728 22.7829C37.9345 22.3835 37.7039 22.0224 37.3998 21.7289C37.0956 21.4353 36.7266 21.2178 36.3225 21.0937C36.2429 21.0661 36.1761 21.0103 36.1347 20.9369C36.0933 20.8635 36.0801 20.7775 36.0976 20.6951C36.115 20.6126 36.162 20.5395 36.2297 20.4892C36.2973 20.4389 36.381 20.4151 36.465 20.4221C36.9874 20.5716 37.4666 20.8434 37.863 21.215C38.2594 21.5866 38.5615 22.0474 38.7443 22.559C38.7608 22.5991 38.7691 22.642 38.7688 22.6853C38.7685 22.7286 38.7596 22.7714 38.7425 22.8112C38.7255 22.851 38.7006 22.8869 38.6695 22.917C38.6384 22.9471 38.6015 22.9707 38.5612 22.9864C38.5282 23.0075 38.4907 23.0203 38.4517 23.0239C38.4128 23.0274 38.3736 23.0216 38.3373 23.0068Z" fill="#263238"/>
<path d="M14.2618 23.5164C14.2618 23.5164 12.2267 15.9253 13.3256 12.3027C14.4246 8.68021 18.7594 5.60715 23.7659 4.40642C28.7723 3.20569 35.7528 4.01973 39.355 15.9049L26.5947 15.0298L20.2451 18.0215L14.2618 23.5164Z" fill="#407BFF"/>
<path opacity="0.7" d="M14.2618 23.5164C14.2618 23.5164 12.2267 15.9253 13.3256 12.3027C14.4246 8.68021 18.7594 5.60715 23.7659 4.40642C28.7723 3.20569 35.7528 4.01973 39.355 15.9049L26.5947 15.0298L20.2451 18.0215L14.2618 23.5164Z" fill="white"/>
<path opacity="0.4" d="M39.3143 15.7631C35.6918 4.02042 28.752 3.22668 23.766 4.40706C17.396 8.02959 21.3035 17.5133 21.3035 17.5133L26.6762 14.9898L34.9388 15.5392L39.3143 15.7631Z" fill="white"/>
<path d="M14.5671 24.6155C14.5671 24.6155 25.0277 11.5907 39.2532 17.1669C39.2532 17.1669 48.5131 14.8265 41.1663 12.2012C30.4208 8.37516 21.5679 16.6174 21.5679 16.6174C21.5679 16.6174 12.0843 22.0512 14.5671 24.6155Z" fill="#407BFF"/>
<path opacity="0.7" d="M14.5671 24.6155C14.5671 24.6155 25.0277 11.5907 39.2532 17.1669C39.2532 17.1669 48.5131 14.8265 41.1663 12.2012C30.4208 8.37516 21.5679 16.6174 21.5679 16.6174C21.5679 16.6174 12.0843 22.0512 14.5671 24.6155Z" fill="white"/>
<path d="M14.0583 28.1153C14.4555 28.9135 15.0072 29.625 15.6814 30.2084C16.3557 30.7918 17.1391 31.2356 17.9861 31.514C20.2655 32.2263 21.4865 30.2115 20.9167 28.0339C20.3469 25.8563 18.5966 23.3328 16.2969 23.577C15.797 23.6348 15.3195 23.817 14.9081 24.1069C14.4967 24.3968 14.1645 24.7852 13.9418 25.2366C13.7192 25.6879 13.6132 26.1879 13.6335 26.6908C13.6538 27.1937 13.7999 27.6834 14.0583 28.1153Z" fill="#B97964"/>
</g>
<defs>
<clipPath id="clip0_4_2">
<rect width="55" height="55" fill="white"/>
</clipPath>
</defs>
</svg>
