<svg width="515" height="380" viewBox="0 0 515 380" fill="none" xmlns="http://www.w3.org/2000/svg">
<path d="M463.397 353.795H429.283V354.052H463.397V353.795Z" fill="#EBEBEB"/>
<path d="M341.156 356.596H332.205V356.854H341.156V356.596Z" fill="#EBEBEB"/>
<path d="M428.254 344.236H408.488V344.494H428.254V344.236Z" fill="#EBEBEB"/>
<path d="M98.5189 345.967H54.0332V346.224H98.5189V345.967Z" fill="#EBEBEB"/>
<path d="M114.217 345.967H107.697V346.224H114.217V345.967Z" fill="#EBEBEB"/>
<path d="M231.904 350.313H135.414V350.571H231.904V350.313Z" fill="#EBEBEB"/>
<path d="M244.109 291.284H45.2368C43.677 291.284 42.181 290.664 41.0781 289.561C39.9751 288.458 39.3555 286.963 39.3555 285.403V5.8298C39.369 4.27892 39.9947 2.79619 41.0962 1.70435C42.1977 0.612502 43.6858 -5.94577e-05 45.2368 4.32862e-09H244.109C245.669 4.32864e-09 247.165 0.619635 248.268 1.72259C249.371 2.82555 249.99 4.32148 249.99 5.8813V285.403C249.99 286.963 249.371 288.458 248.268 289.561C247.165 290.664 245.669 291.284 244.109 291.284ZM45.2368 0.206001C43.7461 0.208724 42.3172 0.802103 41.2632 1.85618C40.2091 2.91026 39.6157 4.33911 39.613 5.8298V285.403C39.6157 286.893 40.2091 288.322 41.2632 289.376C42.3172 290.43 43.7461 291.024 45.2368 291.027H244.109C245.6 291.024 247.029 290.43 248.083 289.376C249.137 288.322 249.73 286.893 249.733 285.403V5.8298C249.73 4.33911 249.137 2.91026 248.083 1.85618C247.029 0.802103 245.6 0.208724 244.109 0.206001H45.2368Z" fill="#EBEBEB"/>
<path d="M466.909 291.284H268.016C266.457 291.281 264.963 290.661 263.86 289.558C262.758 288.456 262.137 286.962 262.135 285.403V5.8298C262.151 4.27977 262.778 2.79859 263.878 1.70732C264.979 0.616052 266.466 0.00262474 268.016 0H466.909C468.456 0.00536063 469.939 0.620317 471.036 1.71158C472.133 2.80284 472.756 4.28249 472.77 5.8298V285.403C472.77 286.959 472.153 288.452 471.054 289.554C469.956 290.657 468.465 291.279 466.909 291.284ZM268.016 0.206001C266.525 0.208724 265.097 0.802103 264.042 1.85618C262.988 2.91026 262.395 4.33911 262.392 5.8298V285.403C262.395 286.893 262.988 288.322 264.042 289.376C265.097 290.43 266.525 291.024 268.016 291.027H466.909C468.4 291.024 469.829 290.43 470.883 289.376C471.937 288.322 472.53 286.893 472.533 285.403V5.8298C472.53 4.33911 471.937 2.91026 470.883 1.85618C469.829 0.802103 468.4 0.208724 466.909 0.206001H268.016Z" fill="#EBEBEB"/>
<path d="M515 337.222H0V337.48H515V337.222Z" fill="#EBEBEB"/>
<path d="M223.499 138.689H174.193V336.573H223.499V138.689Z" fill="#F0F0F0"/>
<path d="M225.096 149.309H173.41V156.591H225.096V149.309Z" fill="#F5F5F5"/>
<path d="M225.096 165.047H173.41V172.329H225.096V165.047Z" fill="#F5F5F5"/>
<path d="M225.096 180.775H173.41V188.057H225.096V180.775Z" fill="#F5F5F5"/>
<path d="M225.096 196.503H173.41V203.786H225.096V196.503Z" fill="#F5F5F5"/>
<path d="M225.096 212.242H173.41V219.524H225.096V212.242Z" fill="#F5F5F5"/>
<path d="M225.096 227.97H173.41V235.252H225.096V227.97Z" fill="#F5F5F5"/>
<path d="M225.096 243.708H173.41V250.99H225.096V243.708Z" fill="#F5F5F5"/>
<path d="M225.096 259.437H173.41V266.719H225.096V259.437Z" fill="#F5F5F5"/>
<path d="M225.096 275.165H173.41V282.447H225.096V275.165Z" fill="#F5F5F5"/>
<path d="M225.096 290.903H173.41V298.185H225.096V290.903Z" fill="#F5F5F5"/>
<path d="M225.096 306.631H173.41V313.913H225.096V306.631Z" fill="#F5F5F5"/>
<path d="M225.096 322.369H173.41V329.651H225.096V322.369Z" fill="#F5F5F5"/>
<path d="M147.454 336.573H88.9707V71.5645L147.454 95.3369V336.573Z" fill="#EBEBEB"/>
<path d="M108.109 99.498H92.123V115.484H108.109V99.498Z" fill="#FAFAFA"/>
<path d="M126.206 99.498H110.221V115.484H126.206V99.498Z" fill="#F0F0F0"/>
<path d="M144.304 99.498H128.318V115.484H144.304V99.498Z" fill="#FAFAFA"/>
<path d="M108.109 117.358H92.123V133.344H108.109V117.358Z" fill="#FAFAFA"/>
<path d="M126.206 117.358H110.221V133.344H126.206V117.358Z" fill="#FAFAFA"/>
<path d="M144.304 117.358H128.318V133.344H144.304V117.358Z" fill="#FAFAFA"/>
<path d="M108.109 135.208H92.123V151.194H108.109V135.208Z" fill="#FAFAFA"/>
<path d="M126.206 135.208H110.221V151.194H126.206V135.208Z" fill="#F0F0F0"/>
<path d="M144.304 135.208H128.318V151.194H144.304V135.208Z" fill="#FAFAFA"/>
<path d="M108.109 153.058H92.123V169.044H108.109V153.058Z" fill="#F0F0F0"/>
<path d="M126.206 153.058H110.221V169.044H126.206V153.058Z" fill="#FAFAFA"/>
<path d="M144.304 153.058H128.318V169.044H144.304V153.058Z" fill="#FAFAFA"/>
<path d="M108.109 170.918H92.123V186.904H108.109V170.918Z" fill="#FAFAFA"/>
<path d="M126.206 170.918H110.221V186.904H126.206V170.918Z" fill="#FAFAFA"/>
<path d="M144.304 170.918H128.318V186.904H144.304V170.918Z" fill="#F0F0F0"/>
<path d="M108.109 188.768H92.123V204.754H108.109V188.768Z" fill="#FAFAFA"/>
<path d="M126.206 188.768H110.221V204.754H126.206V188.768Z" fill="#F0F0F0"/>
<path d="M144.304 188.768H128.318V204.754H144.304V188.768Z" fill="#FAFAFA"/>
<path d="M108.109 206.618H92.123V222.604H108.109V206.618Z" fill="#F0F0F0"/>
<path d="M126.206 206.618H110.221V222.604H126.206V206.618Z" fill="#F0F0F0"/>
<path d="M144.304 206.618H128.318V222.604H144.304V206.618Z" fill="#FAFAFA"/>
<path d="M108.109 224.479H92.123V240.464H108.109V224.479Z" fill="#FAFAFA"/>
<path d="M126.206 224.479H110.221V240.464H126.206V224.479Z" fill="#F0F0F0"/>
<path d="M144.304 224.479H128.318V240.464H144.304V224.479Z" fill="#FAFAFA"/>
<path d="M108.109 242.328H92.123V258.314H108.109V242.328Z" fill="#FAFAFA"/>
<path d="M126.206 242.328H110.221V258.314H126.206V242.328Z" fill="#FAFAFA"/>
<path d="M144.304 242.328H128.318V258.314H144.304V242.328Z" fill="#FAFAFA"/>
<path d="M108.109 260.178H92.123V276.163H108.109V260.178Z" fill="#F0F0F0"/>
<path d="M126.206 260.178H110.221V276.163H126.206V260.178Z" fill="#FAFAFA"/>
<path d="M144.304 260.178H128.318V276.163H144.304V260.178Z" fill="#F0F0F0"/>
<path d="M108.109 278.038H92.123V294.024H108.109V278.038Z" fill="#FAFAFA"/>
<path d="M126.206 278.038H110.221V294.024H126.206V278.038Z" fill="#F0F0F0"/>
<path d="M144.304 278.038H128.318V294.024H144.304V278.038Z" fill="#FAFAFA"/>
<path d="M108.109 295.888H92.123V311.874H108.109V295.888Z" fill="#F0F0F0"/>
<path d="M126.206 295.888H110.221V311.874H126.206V295.888Z" fill="#FAFAFA"/>
<path d="M144.304 295.888H128.318V311.874H144.304V295.888Z" fill="#FAFAFA"/>
<path d="M425.008 336.573H374.445V107.491L425.008 128.039V336.573Z" fill="#F0F0F0"/>
<path d="M398.218 125.372H390.596V132.994H398.218V125.372Z" fill="#FAFAFA"/>
<path d="M387.569 136.867H379.947V144.489H387.569V136.867Z" fill="#FAFAFA"/>
<path d="M387.569 148.361H379.947V155.983H387.569V148.361Z" fill="#FAFAFA"/>
<path d="M398.218 148.361H390.596V155.983H398.218V148.361Z" fill="#FAFAFA"/>
<path d="M408.858 148.361H401.236V155.983H408.858V148.361Z" fill="#FAFAFA"/>
<path d="M387.569 171.34H379.947V178.962H387.569V171.34Z" fill="#FAFAFA"/>
<path d="M408.858 171.34H401.236V178.962H408.858V171.34Z" fill="#FAFAFA"/>
<path d="M398.218 182.835H390.596V190.457H398.218V182.835Z" fill="#FAFAFA"/>
<path d="M387.569 194.33H379.947V201.952H387.569V194.33Z" fill="#FAFAFA"/>
<path d="M408.858 194.33H401.236V201.952H408.858V194.33Z" fill="#FAFAFA"/>
<path d="M419.509 194.33H411.887V201.952H419.509V194.33Z" fill="#FAFAFA"/>
<path d="M398.218 205.825H390.596V213.447H398.218V205.825Z" fill="#FAFAFA"/>
<path d="M387.569 217.32H379.947V224.942H387.569V217.32Z" fill="#FAFAFA"/>
<path d="M398.218 217.32H390.596V224.942H398.218V217.32Z" fill="#FAFAFA"/>
<path d="M419.509 217.32H411.887V224.942H419.509V217.32Z" fill="#FAFAFA"/>
<path d="M387.629 228.636L380.008 228.527L379.899 236.148L387.52 236.257L387.629 228.636Z" fill="#FAFAFA"/>
<path d="M408.912 228.951L401.291 228.842L401.182 236.463L408.803 236.572L408.912 228.951Z" fill="#FAFAFA"/>
<path d="M419.559 229.093L411.938 228.984L411.828 236.605L419.45 236.714L419.559 229.093Z" fill="#FAFAFA"/>
<path d="M398.218 240.31H390.596V247.932H398.218V240.31Z" fill="#FAFAFA"/>
<path d="M411.876 258.375H419.498V250.753H411.876V258.375Z" fill="#FAFAFA"/>
<path d="M390.587 258.375H398.209V250.753H390.587V258.375Z" fill="#FAFAFA"/>
<path d="M379.946 258.375H387.568V250.753H379.946V258.375Z" fill="#FAFAFA"/>
<path d="M401.237 269.871H408.859V262.249H401.237V269.871Z" fill="#FAFAFA"/>
<path d="M411.876 281.365H419.498V273.743H411.876V281.365Z" fill="#FAFAFA"/>
<path d="M401.237 281.365H408.859V273.743H401.237V281.365Z" fill="#FAFAFA"/>
<path d="M379.946 281.365H387.568V273.743H379.946V281.365Z" fill="#FAFAFA"/>
<path d="M411.943 292.677L419.564 292.568L419.455 284.947L411.834 285.056L411.943 292.677Z" fill="#FAFAFA"/>
<path d="M390.656 292.98L398.277 292.871L398.168 285.25L390.547 285.359L390.656 292.98Z" fill="#FAFAFA"/>
<path d="M380.014 293.137L387.635 293.028L387.526 285.407L379.904 285.516L380.014 293.137Z" fill="#FAFAFA"/>
<path d="M401.237 304.365H408.859V296.743H401.237V304.365Z" fill="#FAFAFA"/>
<path d="M359.583 101.445V91.4639H339.385V101.445H305.879V336.573H364.465V101.445H359.583Z" fill="#F0F0F0"/>
<path d="M333.453 114.073H324.801V122.725H333.453V114.073Z" fill="#FAFAFA"/>
<path d="M345.535 114.073H336.883V122.725H345.535V114.073Z" fill="#FAFAFA"/>
<path d="M321.371 127.123H312.719V135.775H321.371V127.123Z" fill="#FAFAFA"/>
<path d="M333.453 127.123H324.801V135.775H333.453V127.123Z" fill="#FAFAFA"/>
<path d="M357.627 127.123H348.975V135.775H357.627V127.123Z" fill="#FAFAFA"/>
<path d="M321.371 140.173H312.719V148.825H321.371V140.173Z" fill="#FAFAFA"/>
<path d="M345.535 140.173H336.883V148.825H345.535V140.173Z" fill="#FAFAFA"/>
<path d="M357.627 140.173H348.975V148.825H357.627V140.173Z" fill="#FAFAFA"/>
<path d="M321.371 166.273H312.719V174.925H321.371V166.273Z" fill="#FAFAFA"/>
<path d="M345.535 166.273H336.883V174.925H345.535V166.273Z" fill="#FAFAFA"/>
<path d="M321.371 179.323H312.719V187.975H321.371V179.323Z" fill="#FAFAFA"/>
<path d="M333.453 179.323H324.801V187.975H333.453V179.323Z" fill="#FAFAFA"/>
<path d="M357.627 179.323H348.975V187.975H357.627V179.323Z" fill="#FAFAFA"/>
<path d="M321.371 244.481H312.719V253.133H321.371V244.481Z" fill="#FAFAFA"/>
<path d="M333.453 244.481H324.801V253.133H333.453V244.481Z" fill="#FAFAFA"/>
<path d="M357.627 244.481H348.975V253.133H357.627V244.481Z" fill="#FAFAFA"/>
<path d="M321.371 257.521H312.719V266.173H321.371V257.521Z" fill="#FAFAFA"/>
<path d="M345.535 257.521H336.883V266.173H345.535V257.521Z" fill="#FAFAFA"/>
<path d="M357.627 257.521H348.975V266.173H357.627V257.521Z" fill="#FAFAFA"/>
<path d="M321.371 283.621H312.719V292.273H321.371V283.621Z" fill="#FAFAFA"/>
<path d="M345.535 283.621H336.883V292.273H345.535V283.621Z" fill="#FAFAFA"/>
<path d="M321.371 296.671H312.719V305.323H321.371V296.671Z" fill="#FAFAFA"/>
<path d="M333.453 296.671H324.801V305.323H333.453V296.671Z" fill="#FAFAFA"/>
<path d="M357.627 296.671H348.975V305.323H357.627V296.671Z" fill="#FAFAFA"/>
<path d="M357.627 192.363H348.975V201.015H357.627V192.363Z" fill="#FAFAFA"/>
<path d="M321.371 205.413H312.719V214.065H321.371V205.413Z" fill="#FAFAFA"/>
<path d="M333.453 205.413H324.801V214.065H333.453V205.413Z" fill="#FAFAFA"/>
<path d="M345.598 218.611L336.947 218.487L336.823 227.138L345.475 227.262L345.598 218.611Z" fill="#FAFAFA"/>
<path d="M357.677 218.794L349.025 218.67L348.902 227.322L357.553 227.445L357.677 218.794Z" fill="#FAFAFA"/>
<path d="M321.371 231.513H312.719V240.165H321.371V231.513Z" fill="#FAFAFA"/>
<path d="M287.402 138.689H238.096V336.573H287.402V138.689Z" fill="#EBEBEB"/>
<path d="M288.986 149.309H237.301V156.591H288.986V149.309Z" fill="#F5F5F5"/>
<path d="M288.986 165.047H237.301V172.329H288.986V165.047Z" fill="#F5F5F5"/>
<path d="M288.986 180.775H237.301V188.057H288.986V180.775Z" fill="#F5F5F5"/>
<path d="M288.986 196.503H237.301V203.786H288.986V196.503Z" fill="#F5F5F5"/>
<path d="M288.986 212.242H237.301V219.524H288.986V212.242Z" fill="#F5F5F5"/>
<path d="M288.986 227.97H237.301V235.252H288.986V227.97Z" fill="#F5F5F5"/>
<path d="M288.986 243.708H237.301V250.99H288.986V243.708Z" fill="#F5F5F5"/>
<path d="M288.986 259.437H237.301V266.719H288.986V259.437Z" fill="#F5F5F5"/>
<path d="M288.986 275.165H237.301V282.447H288.986V275.165Z" fill="#F5F5F5"/>
<path d="M288.986 290.903H237.301V298.185H288.986V290.903Z" fill="#F5F5F5"/>
<path d="M288.986 306.631H237.301V313.913H288.986V306.631Z" fill="#F5F5F5"/>
<path d="M288.986 322.369H237.301V329.651H288.986V322.369Z" fill="#F5F5F5"/>
<path d="M244.109 32.2494C242.717 32.261 241.36 32.6917 240.216 33.4854C240.715 32.4209 241.025 31.2778 241.132 30.107C241.266 28.8791 241.136 27.6369 240.752 26.463C240.368 25.2891 239.739 24.2103 238.906 23.2984C238.073 22.3865 237.055 21.6623 235.921 21.174C234.786 20.6857 233.561 20.4444 232.326 20.4662C230.724 20.4865 229.15 20.8853 227.732 21.6301C227.206 19.7984 226.09 18.1916 224.557 17.0593C223.024 15.9269 221.161 15.3322 219.255 15.3677C216.629 15.4168 214.111 16.4256 212.178 18.2036C210.244 19.9815 209.028 22.4058 208.759 25.0188C208.734 25.4442 208.734 25.8707 208.759 26.296C207.945 26.068 207.103 25.9503 206.257 25.9458C203.63 25.9927 201.111 27.0007 199.177 28.7791C197.243 30.5575 196.027 32.9831 195.761 35.5969C195.626 36.8256 195.755 38.0689 196.138 39.2441C196.521 40.4193 197.15 41.4994 197.983 42.4124C198.816 43.3255 199.835 44.0507 200.97 44.5396C202.105 45.0285 203.331 45.27 204.567 45.248H243.017C244.781 45.2168 246.472 44.5402 247.77 43.3463C249.068 42.1524 249.884 40.524 250.062 38.7693C250.158 37.938 250.075 37.0957 249.818 36.2994C249.56 35.503 249.135 34.7712 248.571 34.1532C248.007 33.5352 247.316 33.0455 246.547 32.717C245.777 32.3886 244.946 32.2292 244.109 32.2494Z" fill="#F0F0F0"/>
<path d="M204.971 41.025C202.858 41.0409 200.798 41.6903 199.059 42.8893C199.814 41.2656 200.281 39.523 200.439 37.7393C200.644 35.8724 200.449 33.9831 199.866 32.1975C199.284 30.412 198.327 28.7713 197.059 27.3851C195.792 25.9988 194.244 24.8989 192.517 24.1587C190.791 23.4185 188.927 23.0551 187.049 23.0927C184.601 23.1038 182.191 23.6932 180.014 24.8128C179.216 22.0326 177.522 19.5937 175.196 17.8747C172.87 16.1556 170.041 15.2527 167.149 15.3059C163.162 15.3782 159.34 16.9082 156.404 19.6068C153.468 22.3054 151.622 25.9857 151.215 29.9525C151.174 30.6042 151.174 31.2579 151.215 31.9095C149.979 31.5553 148.7 31.375 147.414 31.3739C143.427 31.4488 139.604 32.9809 136.668 35.6812C133.733 38.3815 131.887 42.063 131.48 46.0308C131.277 47.8975 131.473 49.7861 132.056 51.5709C132.64 53.3557 133.597 54.9957 134.864 56.3816C136.131 57.7674 137.679 58.8674 139.404 59.6081C141.13 60.3489 142.993 60.7134 144.87 60.6775H203.271C205.948 60.6264 208.514 59.598 210.485 57.7862C212.457 55.9743 213.697 53.5041 213.973 50.841C214.106 49.5882 213.971 48.3215 213.577 47.1249C213.183 45.9284 212.539 44.8294 211.688 43.9009C210.836 42.9725 209.797 42.2358 208.639 41.74C207.481 41.2442 206.23 41.0004 204.971 41.025Z" fill="#F5F5F5"/>
<path d="M419.209 57.33C417.1 57.3478 415.044 57.9972 413.307 59.1943C414.062 57.5706 414.529 55.828 414.688 54.0443C414.893 52.1768 414.698 50.2871 414.115 48.501C413.532 46.715 412.575 45.0737 411.308 43.6867C410.041 42.2996 408.493 41.1987 406.767 40.4573C405.04 39.716 403.176 39.3512 401.298 39.3874C398.853 39.3969 396.445 39.9864 394.273 41.1075C393.474 38.3256 391.779 35.8853 389.451 34.1661C387.123 32.4469 384.292 31.545 381.398 31.6006C377.41 31.6734 373.588 33.2052 370.654 35.9061C367.719 38.607 365.877 42.2897 365.474 46.2575C365.428 46.9056 365.428 47.5561 365.474 48.2042C364.237 47.859 362.958 47.6823 361.673 47.6789C357.686 47.7512 353.864 49.2811 350.928 51.9797C347.992 54.6783 346.147 58.3587 345.739 62.3255C345.534 64.1929 345.729 66.0827 346.312 67.8687C346.895 69.6548 347.851 71.2961 349.119 72.6831C350.386 74.0701 351.934 75.171 353.66 75.9124C355.387 76.6538 357.251 77.0185 359.129 76.9824H417.52C420.199 76.9332 422.768 75.9042 424.739 74.0898C426.711 72.2754 427.95 69.8014 428.222 67.1356C428.354 65.8828 428.217 64.6163 427.822 63.4203C427.427 62.2242 426.781 61.126 425.929 60.1985C425.076 59.271 424.036 58.5356 422.878 58.041C421.719 57.5464 420.469 57.3041 419.209 57.33Z" fill="#FAFAFA"/>
<path d="M356.668 53.0039C355.244 53.02 353.857 53.4572 352.682 54.2605C353.197 53.1753 353.514 52.0068 353.619 50.81C353.757 49.5525 353.625 48.2802 353.233 47.0776C352.84 45.875 352.196 44.7697 351.344 43.8353C350.491 42.9008 349.449 42.1587 348.288 41.6581C347.126 41.1576 345.871 40.9101 344.606 40.9323C342.957 40.9388 341.333 41.3378 339.868 42.0962C339.331 40.2219 338.189 38.5777 336.621 37.4192C335.052 36.2606 333.145 35.6526 331.196 35.6896C329.741 35.6692 328.298 35.9479 326.955 36.5085C325.612 37.069 324.399 37.8995 323.391 38.9483C322.383 39.9972 321.601 41.242 321.094 42.6057C320.586 43.9693 320.365 45.4226 320.443 46.8754C319.608 46.6424 318.745 46.5246 317.878 46.5252C315.191 46.5738 312.615 47.6043 310.636 49.4222C308.657 51.2401 307.411 53.7195 307.135 56.3926C306.997 57.65 307.129 58.9224 307.521 60.125C307.913 61.3275 308.557 62.4328 309.41 63.3673C310.263 64.3017 311.304 65.0439 312.466 65.5444C313.628 66.045 314.883 66.2924 316.147 66.2703H355.514C357.319 66.2368 359.049 65.5435 360.377 64.3214C361.706 63.0992 362.541 61.4328 362.724 59.6371C362.816 58.7924 362.728 57.9377 362.464 57.1299C362.2 56.3221 361.767 55.5797 361.194 54.9522C360.621 54.3247 359.921 53.8263 359.141 53.4904C358.36 53.1545 357.517 52.9886 356.668 53.0039Z" fill="#F5F5F5"/>
<path d="M252.535 379.771C362.83 379.771 452.242 374.551 452.242 368.112C452.242 361.672 362.83 356.452 252.535 356.452C142.24 356.452 52.8281 361.672 52.8281 368.112C52.8281 374.551 142.24 379.771 252.535 379.771Z" fill="#F5F5F5"/>
<path d="M393.428 301.883H292.262V337.057H393.428V301.883Z" fill="#263238"/>
<path opacity="0.3" d="M393.428 301.883H292.262V337.057H393.428V301.883Z" fill="white"/>
<path d="M178.343 311.225V293.756H111.342V337.057H203.3V311.225H178.343Z" fill="#263238"/>
<path opacity="0.3" d="M178.343 311.225V293.756H111.342V337.057H203.3V311.225H178.343Z" fill="white"/>
<path d="M353.896 371.325C371.07 371.325 384.992 357.403 384.992 340.229C384.992 323.056 371.07 309.134 353.896 309.134C336.723 309.134 322.801 323.056 322.801 340.229C322.801 357.403 336.723 371.325 353.896 371.325Z" fill="#263238"/>
<path opacity="0.5" d="M366.745 353.068C373.837 345.976 373.837 334.479 366.745 327.387C359.654 320.296 348.156 320.296 341.065 327.387C333.973 334.479 333.973 345.976 341.065 353.068C348.156 360.159 359.654 360.159 366.745 353.068Z" fill="white"/>
<g opacity="0.5">
<path d="M342.484 337.84C342.776 336.373 343.346 334.974 344.163 333.72C344.349 333.451 344.441 333.127 344.426 332.8C344.411 332.473 344.29 332.16 344.081 331.908C343.93 331.725 343.739 331.58 343.523 331.484C343.306 331.388 343.07 331.345 342.834 331.357C342.598 331.369 342.367 331.436 342.162 331.553C341.956 331.67 341.781 331.834 341.65 332.031C340.613 333.595 339.885 335.343 339.507 337.181C339.461 337.414 339.47 337.654 339.534 337.883C339.597 338.111 339.713 338.322 339.872 338.498C340.031 338.674 340.229 338.811 340.45 338.897C340.671 338.983 340.909 339.016 341.145 338.994C341.461 338.966 341.76 338.84 342 338.633C342.241 338.426 342.41 338.149 342.484 337.84Z" fill="white"/>
<path d="M347.49 330.496C348.724 329.676 350.106 329.102 351.558 328.807C351.878 328.744 352.169 328.58 352.388 328.339C352.607 328.098 352.742 327.792 352.774 327.468C352.796 327.232 352.763 326.994 352.677 326.774C352.591 326.553 352.454 326.355 352.278 326.197C352.102 326.039 351.891 325.924 351.662 325.862C351.433 325.8 351.193 325.793 350.961 325.841C349.123 326.213 347.374 326.937 345.811 327.973C345.614 328.104 345.45 328.279 345.333 328.485C345.216 328.69 345.149 328.921 345.137 329.157C345.125 329.393 345.168 329.629 345.264 329.846C345.36 330.062 345.505 330.253 345.687 330.404C345.94 330.608 346.25 330.726 346.574 330.743C346.897 330.76 347.218 330.673 347.49 330.496Z" fill="white"/>
<path d="M363.723 332C363.514 332.252 363.392 332.564 363.375 332.891C363.358 333.218 363.448 333.541 363.63 333.813C364.455 335.064 365.029 336.463 365.32 337.933C365.382 338.252 365.547 338.543 365.788 338.762C366.029 338.981 366.334 339.117 366.659 339.148C366.895 339.17 367.133 339.137 367.354 339.051C367.575 338.965 367.773 338.828 367.932 338.652C368.091 338.476 368.207 338.266 368.27 338.037C368.333 337.808 368.342 337.568 368.296 337.335C367.914 335.499 367.187 333.751 366.154 332.185C366.028 331.984 365.857 331.815 365.654 331.693C365.451 331.57 365.222 331.497 364.985 331.479C364.749 331.46 364.511 331.498 364.292 331.589C364.073 331.679 363.878 331.82 363.723 332Z" fill="white"/>
<path d="M356.245 328.807C357.697 329.104 359.078 329.678 360.314 330.496C360.585 330.677 360.908 330.767 361.234 330.752C361.56 330.737 361.872 330.619 362.126 330.414C362.309 330.264 362.454 330.073 362.55 329.856C362.646 329.64 362.689 329.404 362.677 329.167C362.665 328.931 362.598 328.701 362.481 328.495C362.364 328.289 362.2 328.114 362.003 327.983C360.439 326.949 358.69 326.225 356.853 325.851C356.621 325.803 356.381 325.81 356.152 325.872C355.923 325.934 355.712 326.049 355.536 326.207C355.36 326.366 355.223 326.563 355.137 326.784C355.051 327.005 355.018 327.243 355.04 327.478C355.073 327.799 355.208 328.101 355.425 328.34C355.641 328.579 355.929 328.743 356.245 328.807Z" fill="white"/>
<path d="M351.559 351.642C350.107 351.35 348.725 350.78 347.49 349.963C347.22 349.779 346.897 349.688 346.57 349.703C346.244 349.718 345.93 349.838 345.678 350.046C345.495 350.196 345.35 350.387 345.254 350.603C345.158 350.82 345.115 351.056 345.127 351.292C345.139 351.529 345.206 351.759 345.323 351.964C345.44 352.17 345.604 352.345 345.801 352.476C347.364 353.515 349.113 354.243 350.951 354.619C351.184 354.665 351.424 354.656 351.653 354.592C351.881 354.529 352.092 354.413 352.268 354.254C352.444 354.095 352.581 353.897 352.667 353.676C352.753 353.455 352.786 353.217 352.764 352.981C352.731 352.659 352.597 352.355 352.38 352.115C352.164 351.874 351.876 351.708 351.559 351.642Z" fill="white"/>
<path d="M365.32 342.568C365.031 344.038 364.457 345.438 363.63 346.688C363.448 346.96 363.358 347.283 363.375 347.61C363.392 347.937 363.514 348.249 363.723 348.501C363.873 348.684 364.064 348.829 364.281 348.924C364.497 349.02 364.733 349.063 364.97 349.051C365.206 349.039 365.436 348.972 365.642 348.855C365.848 348.738 366.023 348.574 366.154 348.377C367.188 346.812 367.915 345.064 368.296 343.227C368.342 342.994 368.333 342.753 368.269 342.524C368.206 342.295 368.091 342.084 367.932 341.908C367.773 341.731 367.575 341.593 367.354 341.506C367.134 341.419 366.895 341.384 366.659 341.404C366.341 341.433 366.041 341.56 365.801 341.769C365.56 341.978 365.392 342.258 365.32 342.568Z" fill="white"/>
<path d="M344.163 346.636C343.344 345.384 342.774 343.985 342.484 342.516C342.421 342.197 342.257 341.906 342.016 341.687C341.775 341.468 341.469 341.333 341.145 341.301C340.909 341.279 340.671 341.312 340.45 341.398C340.229 341.484 340.031 341.621 339.872 341.797C339.713 341.973 339.597 342.184 339.534 342.412C339.47 342.641 339.461 342.881 339.507 343.114C339.883 344.952 340.611 346.701 341.65 348.264C341.781 348.461 341.956 348.625 342.162 348.742C342.367 348.859 342.598 348.926 342.834 348.938C343.07 348.95 343.306 348.907 343.523 348.811C343.739 348.715 343.93 348.57 344.081 348.387C344.276 348.141 344.388 347.839 344.403 347.525C344.418 347.211 344.334 346.9 344.163 346.636Z" fill="white"/>
<path d="M360.314 349.963C359.078 350.779 357.697 351.349 356.245 351.642C355.927 351.706 355.636 351.871 355.418 352.112C355.199 352.353 355.063 352.658 355.03 352.981C355.008 353.217 355.041 353.455 355.127 353.677C355.213 353.898 355.35 354.095 355.526 354.254C355.702 354.413 355.913 354.529 356.141 354.592C356.37 354.656 356.61 354.665 356.843 354.619C358.681 354.241 360.429 353.513 361.993 352.476C362.19 352.346 362.354 352.17 362.471 351.964C362.588 351.759 362.655 351.529 362.667 351.292C362.679 351.056 362.636 350.82 362.54 350.604C362.444 350.387 362.299 350.196 362.116 350.046C361.865 349.84 361.553 349.721 361.229 349.707C360.904 349.692 360.583 349.782 360.314 349.963Z" fill="white"/>
</g>
<path d="M390.122 298.288H218.359V253.051L211.922 207.473H183.463V301.842L196.853 341.342H318.465C318.465 340.971 318.465 340.601 318.465 340.23C318.385 335.523 319.243 330.847 320.989 326.474C322.734 322.102 325.333 318.121 328.634 314.764C331.934 311.407 335.87 308.74 340.212 306.92C344.554 305.1 349.215 304.163 353.923 304.163C358.631 304.163 363.291 305.1 367.633 306.92C371.975 308.74 375.911 311.407 379.212 314.764C382.512 318.121 385.111 322.102 386.857 326.474C388.603 330.847 389.461 335.523 389.381 340.23C389.381 340.601 389.381 340.971 389.381 341.342H396.096L471.06 337.933V326.17L390.122 298.288Z" fill="#1C2CBC"/>
<g opacity="0.9">
<path d="M222.654 303.088H217.957V307.785H222.654V303.088Z" fill="white"/>
<path d="M227.351 307.64H222.654V312.337H227.351V307.64Z" fill="white"/>
<path d="M232.048 303.088H227.352V307.785H232.048V303.088Z" fill="white"/>
<path d="M236.744 307.64H232.047V312.337H236.744V307.64Z" fill="white"/>
<path d="M241.441 303.088H236.744V307.785H241.441V303.088Z" fill="white"/>
<path d="M246.138 307.64H241.441V312.337H246.138V307.64Z" fill="white"/>
<path d="M250.835 303.088H246.139V307.785H250.835V303.088Z" fill="white"/>
<path d="M255.531 307.64H250.834V312.337H255.531V307.64Z" fill="white"/>
<path d="M260.228 303.088H255.531V307.785H260.228V303.088Z" fill="white"/>
<path d="M264.925 307.64H260.229V312.337H264.925V307.64Z" fill="white"/>
<path d="M269.623 303.088H264.926V307.785H269.623V303.088Z" fill="white"/>
<path d="M274.318 307.64H269.621V312.337H274.318V307.64Z" fill="white"/>
<path d="M279.015 303.088H274.318V307.785H279.015V303.088Z" fill="white"/>
<path d="M283.712 307.64H279.016V312.337H283.712V307.64Z" fill="white"/>
<path d="M288.41 303.088H283.713V307.785H288.41V303.088Z" fill="white"/>
<path d="M293.105 307.64H288.408V312.337H293.105V307.64Z" fill="white"/>
<path d="M297.802 303.088H293.105V307.785H297.802V303.088Z" fill="white"/>
<path d="M302.5 307.64H297.803V312.337H302.5V307.64Z" fill="white"/>
<path d="M307.197 303.088H302.5V307.785H307.197V303.088Z" fill="white"/>
<path d="M311.892 307.64H307.195V312.337H311.892V307.64Z" fill="white"/>
<path d="M316.589 303.088H311.893V307.785H316.589V303.088Z" fill="white"/>
<path d="M321.277 307.64H316.58V312.337H321.277V307.64Z" fill="white"/>
<path d="M325.974 303.088H321.277V307.785H325.974V303.088Z" fill="white"/>
<path d="M379.976 303.088H375.279V307.785H379.976V303.088Z" fill="white"/>
<path d="M384.673 307.64H379.977V312.337H384.673V307.64Z" fill="white"/>
<path d="M389.371 303.088H384.674V307.785H389.371V303.088Z" fill="white"/>
<path d="M394.066 307.64H389.369V312.337H394.066V307.64Z" fill="white"/>
<path d="M398.763 303.088H394.066V307.785H398.763V303.088Z" fill="white"/>
<path d="M403.46 307.64H398.764V312.337H403.46V307.64Z" fill="white"/>
</g>
<path opacity="0.5" d="M252.658 316.808H262.494C263.194 316.808 263.864 317.085 264.359 317.58C264.853 318.074 265.131 318.745 265.131 319.444V328.817C265.131 329.517 264.853 330.187 264.359 330.682C263.864 331.176 263.194 331.454 262.494 331.454H252.658C252.372 331.454 252.09 331.398 251.826 331.289C251.562 331.18 251.323 331.02 251.121 330.818C250.919 330.616 250.759 330.376 250.65 330.113C250.541 329.849 250.484 329.566 250.484 329.281V318.981C250.484 318.696 250.541 318.413 250.65 318.149C250.759 317.886 250.919 317.646 251.121 317.444C251.323 317.242 251.562 317.082 251.826 316.973C252.09 316.864 252.372 316.808 252.658 316.808Z" fill="white"/>
<path opacity="0.2" d="M262.649 324.131C262.649 323.813 262.555 323.502 262.378 323.238C262.202 322.974 261.951 322.768 261.657 322.646C261.364 322.525 261.041 322.493 260.729 322.555C260.417 322.617 260.131 322.77 259.906 322.995C259.681 323.219 259.528 323.506 259.466 323.817C259.404 324.129 259.436 324.452 259.558 324.746C259.679 325.039 259.885 325.29 260.15 325.467C260.414 325.643 260.725 325.738 261.042 325.738C261.469 325.738 261.877 325.568 262.179 325.267C262.48 324.966 262.649 324.557 262.649 324.131Z" fill="black"/>
<path d="M153.439 371.325C170.613 371.325 184.535 357.403 184.535 340.229C184.535 323.056 170.613 309.134 153.439 309.134C136.266 309.134 122.344 323.056 122.344 340.229C122.344 357.403 136.266 371.325 153.439 371.325Z" fill="#263238"/>
<path opacity="0.5" d="M166.279 353.075C173.37 345.983 173.37 334.486 166.279 327.394C159.187 320.303 147.69 320.303 140.598 327.394C133.507 334.486 133.507 345.983 140.598 353.075C147.69 360.166 159.187 360.166 166.279 353.075Z" fill="white"/>
<g opacity="0.5">
<path d="M142.025 337.84C142.312 336.371 142.883 334.972 143.704 333.72C143.888 333.45 143.98 333.127 143.965 332.8C143.95 332.474 143.83 332.16 143.622 331.908C143.472 331.725 143.281 331.58 143.064 331.484C142.848 331.388 142.612 331.345 142.375 331.357C142.139 331.369 141.909 331.436 141.703 331.553C141.497 331.67 141.322 331.834 141.191 332.031C140.154 333.595 139.427 335.343 139.049 337.181C139.001 337.413 139.008 337.653 139.07 337.882C139.132 338.111 139.247 338.322 139.405 338.498C139.563 338.675 139.761 338.811 139.982 338.897C140.202 338.984 140.44 339.017 140.676 338.994C140.993 338.967 141.294 338.841 141.536 338.634C141.778 338.427 141.949 338.15 142.025 337.84Z" fill="white"/>
<path d="M147.031 330.496C148.266 329.676 149.647 329.102 151.1 328.807C151.419 328.743 151.709 328.578 151.928 328.337C152.146 328.096 152.282 327.792 152.315 327.468C152.336 327.232 152.302 326.994 152.214 326.773C152.127 326.552 151.989 326.355 151.812 326.197C151.635 326.039 151.423 325.925 151.194 325.863C150.965 325.801 150.725 325.793 150.492 325.841C148.655 326.214 146.906 326.938 145.342 327.973C145.145 328.104 144.981 328.279 144.864 328.485C144.747 328.691 144.68 328.921 144.668 329.157C144.656 329.394 144.7 329.629 144.795 329.846C144.891 330.062 145.036 330.253 145.219 330.404C145.472 330.61 145.784 330.73 146.11 330.747C146.436 330.763 146.759 330.676 147.031 330.496Z" fill="white"/>
<path d="M163.263 332C163.059 332.254 162.94 332.567 162.925 332.893C162.911 333.219 163 333.541 163.181 333.813C164.006 335.064 164.579 336.463 164.87 337.933C164.933 338.253 165.097 338.543 165.338 338.762C165.579 338.981 165.885 339.117 166.209 339.148C166.445 339.171 166.683 339.138 166.904 339.052C167.124 338.966 167.322 338.829 167.48 338.653C167.639 338.476 167.753 338.265 167.815 338.036C167.877 337.808 167.884 337.568 167.836 337.336C167.462 335.498 166.738 333.75 165.704 332.186C165.579 331.982 165.407 331.812 165.203 331.688C164.999 331.564 164.769 331.49 164.531 331.472C164.293 331.454 164.054 331.492 163.834 331.584C163.613 331.676 163.418 331.818 163.263 332Z" fill="white"/>
<path d="M155.786 328.807C157.238 329.104 158.619 329.678 159.855 330.496C160.126 330.677 160.449 330.767 160.775 330.752C161.101 330.737 161.413 330.619 161.668 330.414C161.85 330.264 161.995 330.073 162.091 329.856C162.187 329.64 162.23 329.404 162.218 329.167C162.206 328.931 162.139 328.701 162.022 328.495C161.905 328.289 161.741 328.114 161.544 327.983C159.98 326.949 158.231 326.225 156.394 325.851C156.162 325.803 155.922 325.81 155.693 325.872C155.464 325.934 155.253 326.049 155.077 326.207C154.901 326.366 154.764 326.563 154.678 326.784C154.592 327.005 154.559 327.243 154.581 327.478C154.614 327.799 154.749 328.101 154.966 328.34C155.183 328.579 155.47 328.743 155.786 328.807Z" fill="white"/>
<path d="M151.1 351.642C149.648 351.35 148.266 350.78 147.031 349.963C146.761 349.779 146.438 349.688 146.111 349.703C145.785 349.718 145.471 349.838 145.219 350.046C145.036 350.196 144.891 350.387 144.795 350.603C144.7 350.82 144.656 351.056 144.668 351.292C144.68 351.529 144.747 351.759 144.864 351.964C144.981 352.17 145.145 352.345 145.342 352.476C146.905 353.515 148.654 354.242 150.492 354.619C150.725 354.664 150.966 354.655 151.195 354.592C151.424 354.529 151.635 354.413 151.812 354.254C151.989 354.095 152.126 353.898 152.213 353.677C152.301 353.456 152.336 353.218 152.315 352.981C152.281 352.658 152.144 352.354 151.926 352.114C151.707 351.873 151.418 351.708 151.1 351.642Z" fill="white"/>
<path d="M164.86 342.568C164.572 344.038 163.998 345.438 163.171 346.688C162.99 346.959 162.901 347.282 162.916 347.608C162.93 347.934 163.049 348.246 163.253 348.501C163.404 348.683 163.595 348.828 163.811 348.924C164.028 349.02 164.264 349.063 164.5 349.051C164.736 349.039 164.967 348.972 165.172 348.855C165.378 348.738 165.553 348.574 165.684 348.377C166.719 346.813 167.443 345.065 167.816 343.227C167.864 342.994 167.856 342.754 167.794 342.525C167.733 342.296 167.618 342.084 167.46 341.907C167.302 341.73 167.105 341.592 166.884 341.505C166.663 341.418 166.425 341.383 166.189 341.404C165.874 341.434 165.576 341.563 165.337 341.772C165.099 341.981 164.932 342.259 164.86 342.568Z" fill="white"/>
<path d="M143.704 346.637C142.88 345.386 142.31 343.986 142.025 342.517C141.96 342.196 141.794 341.905 141.551 341.686C141.308 341.467 141.001 341.332 140.676 341.301C140.44 341.281 140.203 341.315 139.984 341.402C139.764 341.489 139.567 341.626 139.41 341.801C139.252 341.977 139.137 342.187 139.074 342.415C139.012 342.643 139.003 342.882 139.048 343.114C139.424 344.952 140.152 346.701 141.191 348.264C141.322 348.461 141.497 348.625 141.703 348.742C141.908 348.859 142.138 348.926 142.375 348.938C142.611 348.95 142.847 348.907 143.064 348.811C143.28 348.715 143.471 348.57 143.621 348.388C143.815 348.14 143.927 347.839 143.942 347.525C143.957 347.211 143.873 346.901 143.704 346.637Z" fill="white"/>
<path d="M159.855 349.963C158.619 350.779 157.238 351.349 155.786 351.642C155.468 351.706 155.177 351.871 154.959 352.112C154.74 352.353 154.604 352.658 154.571 352.981C154.549 353.217 154.582 353.455 154.668 353.677C154.754 353.898 154.891 354.095 155.067 354.254C155.243 354.413 155.454 354.529 155.682 354.592C155.911 354.656 156.151 354.665 156.384 354.619C158.222 354.241 159.97 353.513 161.534 352.476C161.731 352.346 161.895 352.17 162.012 351.964C162.129 351.759 162.196 351.529 162.208 351.292C162.22 351.056 162.177 350.82 162.081 350.604C161.985 350.387 161.84 350.196 161.657 350.046C161.406 349.84 161.094 349.721 160.77 349.707C160.445 349.692 160.125 349.782 159.855 349.963Z" fill="white"/>
</g>
<path d="M76.3023 262.3H74.4277V272.27H76.3023V262.3Z" fill="#263238"/>
<path opacity="0.6" d="M76.3023 262.3H74.4277V272.27H76.3023V262.3Z" fill="black"/>
<path d="M123.918 314.542L135.722 305.436L147.423 303.088H180.455V217.33C180.455 214.72 179.419 212.217 177.574 210.371C175.73 208.525 173.228 207.486 170.618 207.483H112.629C109.154 207.486 105.766 208.569 102.933 210.582C100.1 212.595 97.9636 215.439 96.8187 218.721L83.542 256.686C81.6587 262.087 80.6976 267.766 80.6992 273.486V337.057H108.417L123.918 314.542Z" fill="#1C2CBC"/>
<path d="M80.7416 284.414H81.3699C82.2768 284.414 83.1466 284.774 83.7879 285.416C84.4292 286.057 84.7895 286.927 84.7895 287.834V299.668C84.7895 300.575 84.4292 301.445 83.7879 302.086C83.1466 302.728 82.2768 303.088 81.3699 303.088H80.721C79.9507 303.088 79.2119 302.782 78.6671 302.237C78.1224 301.693 77.8164 300.954 77.8164 300.183V287.308C77.8164 286.538 78.1224 285.799 78.6671 285.255C79.2119 284.71 79.9507 284.404 80.721 284.404L80.7416 284.414Z" fill="#1C2CBC"/>
<path opacity="0.8" d="M80.7416 284.414H81.3699C82.2768 284.414 83.1466 284.774 83.7879 285.416C84.4292 286.057 84.7895 286.927 84.7895 287.834V299.668C84.7895 300.575 84.4292 301.445 83.7879 302.086C83.1466 302.728 82.2768 303.088 81.3699 303.088H80.721C79.9507 303.088 79.2119 302.782 78.6671 302.237C78.1224 301.693 77.8164 300.954 77.8164 300.183V287.308C77.8164 286.538 78.1224 285.799 78.6671 285.255C79.2119 284.71 79.9507 284.404 80.721 284.404L80.7416 284.414Z" fill="white"/>
<path d="M159.083 276.236H158.949C157.976 276.236 157.188 277.024 157.188 277.997V287.257C157.188 288.23 157.976 289.018 158.949 289.018H159.083C160.055 289.018 160.844 288.23 160.844 287.257V277.997C160.844 277.024 160.055 276.236 159.083 276.236Z" fill="#263238"/>
<path d="M80.5664 277.42L74.9014 274.897C74.5877 274.744 74.3242 274.505 74.1417 274.207C73.9593 273.91 73.8655 273.567 73.8714 273.218V271.776C73.8714 271.29 74.0645 270.823 74.4083 270.479C74.7522 270.136 75.2185 269.942 75.7048 269.942H81.3698C81.9161 269.942 82.4401 270.159 82.8264 270.546C83.2127 270.932 83.4298 271.456 83.4298 272.002V275.607C83.4163 275.94 83.3222 276.265 83.1556 276.554C82.989 276.842 82.7549 277.086 82.4734 277.265C82.1918 277.443 81.8712 277.55 81.539 277.577C81.2069 277.604 80.8731 277.55 80.5664 277.42Z" fill="#1C2CBC"/>
<path d="M155.942 254.122H158.218C159.857 254.122 161.429 253.471 162.588 252.312C163.747 251.153 164.398 249.581 164.398 247.942V217.33C164.4 217.024 164.34 216.72 164.224 216.436C164.108 216.153 163.936 215.895 163.72 215.678C163.504 215.46 163.247 215.288 162.964 215.17C162.68 215.053 162.377 214.992 162.07 214.992H112.63C110.713 214.991 108.842 215.585 107.275 216.692C105.709 217.799 104.525 219.364 103.886 221.172L90.6399 259.159C90.4407 259.719 90.2722 260.29 90.1352 260.868C89.791 262.233 89.8226 263.665 90.2267 265.014C90.6308 266.362 91.3922 267.576 92.4303 268.526C93.4683 269.476 94.7443 270.128 96.1228 270.412C97.5013 270.696 98.9309 270.601 100.26 270.138L136.495 257.428C142.745 255.237 149.32 254.119 155.942 254.122Z" fill="#263238"/>
<path opacity="0.5" d="M155.942 254.122H158.218C159.857 254.122 161.429 253.471 162.588 252.312C163.747 251.153 164.398 249.581 164.398 247.942V217.33C164.4 217.024 164.34 216.72 164.224 216.436C164.108 216.153 163.936 215.895 163.72 215.678C163.504 215.46 163.247 215.288 162.964 215.17C162.68 215.053 162.377 214.992 162.07 214.992H112.63C110.713 214.991 108.842 215.585 107.275 216.692C105.709 217.799 104.525 219.364 103.886 221.172L90.6399 259.159C90.4407 259.719 90.2722 260.29 90.1352 260.868C89.791 262.233 89.8226 263.665 90.2267 265.014C90.6308 266.362 91.3922 267.576 92.4303 268.526C93.4683 269.476 94.7443 270.128 96.1228 270.412C97.5013 270.696 98.9309 270.601 100.26 270.138L136.495 257.428C142.745 255.237 149.32 254.119 155.942 254.122Z" fill="white"/>
<path d="M179.272 298.803H147.805C141.947 298.811 136.195 300.365 131.131 303.31C126.066 306.254 121.87 310.484 118.965 315.572L106.688 337.057H116.565L126.412 319.825C128.573 316.048 131.694 312.909 135.457 310.724C139.221 308.539 143.495 307.387 147.846 307.383H179.313C179.911 307.383 180.485 307.145 180.908 306.722C181.331 306.299 181.568 305.726 181.568 305.127V301.059C181.569 300.759 181.509 300.462 181.393 300.186C181.277 299.91 181.107 299.659 180.893 299.449C180.679 299.239 180.426 299.074 180.147 298.963C179.869 298.852 179.571 298.798 179.272 298.803Z" fill="#1C2CBC"/>
<path opacity="0.4" d="M179.272 298.803H147.805C141.947 298.811 136.195 300.365 131.131 303.31C126.066 306.254 121.87 310.484 118.965 315.572L106.688 337.057H116.565L126.412 319.825C128.573 316.048 131.694 312.909 135.457 310.724C139.221 308.539 143.495 307.387 147.846 307.383H179.313C179.911 307.383 180.485 307.145 180.908 306.722C181.331 306.299 181.568 305.726 181.568 305.127V301.059C181.569 300.759 181.509 300.462 181.393 300.186C181.277 299.91 181.107 299.659 180.893 299.449C180.679 299.239 180.426 299.074 180.147 298.963C179.869 298.852 179.571 298.798 179.272 298.803Z" fill="white"/>
<path d="M86.4172 320.073H78.2905C77.1528 320.073 76.2305 320.995 76.2305 322.133V330.259C76.2305 331.397 77.1528 332.319 78.2905 332.319H86.4172C87.5549 332.319 88.4772 331.397 88.4772 330.259V322.133C88.4772 320.995 87.5549 320.073 86.4172 320.073Z" fill="#263238"/>
<path opacity="0.7" d="M86.4172 320.073H78.2905C77.1528 320.073 76.2305 320.995 76.2305 322.133V330.259C76.2305 331.397 77.1528 332.319 78.2905 332.319H86.4172C87.5549 332.319 88.4772 331.397 88.4772 330.259V322.133C88.4772 320.995 87.5549 320.073 86.4172 320.073Z" fill="white"/>
<path d="M111.878 341.342H76.8578C76.2568 341.342 75.6804 341.104 75.2555 340.679C74.8305 340.254 74.5918 339.677 74.5918 339.076V333.02C74.5918 332.419 74.8305 331.843 75.2555 331.418C75.6804 330.993 76.2568 330.754 76.8578 330.754H117.986C118.257 330.753 118.523 330.824 118.758 330.96C118.992 331.097 119.186 331.293 119.319 331.529C119.453 331.765 119.521 332.033 119.516 332.304C119.512 332.575 119.435 332.84 119.294 333.071L115.524 339.251C115.145 339.882 114.611 340.405 113.973 340.771C113.334 341.137 112.613 341.333 111.878 341.342Z" fill="#263238"/>
<path opacity="0.6" d="M111.878 341.342H76.8578C76.2568 341.342 75.6804 341.104 75.2555 340.679C74.8305 340.254 74.5918 339.677 74.5918 339.076V333.02C74.5918 332.419 74.8305 331.843 75.2555 331.418C75.6804 330.993 76.2568 330.754 76.8578 330.754H117.986C118.257 330.753 118.523 330.824 118.758 330.96C118.992 331.097 119.186 331.293 119.319 331.529C119.453 331.765 119.521 332.033 119.516 332.304C119.512 332.575 119.435 332.84 119.294 333.071L115.524 339.251C115.145 339.882 114.611 340.405 113.973 340.771C113.334 341.137 112.613 341.333 111.878 341.342Z" fill="white"/>
<path d="M75.1278 243.399H75.3647C75.8628 243.399 76.3407 243.597 76.6939 243.948C77.0471 244.299 77.2469 244.776 77.2496 245.274V262.959C77.2496 263.459 77.051 263.938 76.6975 264.292C76.3441 264.645 75.8646 264.844 75.3647 264.844H75.1278C74.1253 264.844 73.1638 264.446 72.4549 263.737C71.746 263.028 71.3477 262.066 71.3477 261.064V247.2C71.345 246.702 71.4408 246.208 71.6295 245.747C71.8183 245.286 72.0963 244.867 72.4476 244.514C72.7989 244.161 73.2165 243.88 73.6765 243.689C74.1364 243.498 74.6297 243.399 75.1278 243.399Z" fill="#263238"/>
<g opacity="0.3">
<path d="M89.084 272.703V318.682C89.084 318.895 89.1686 319.099 89.3193 319.25C89.47 319.401 89.6743 319.485 89.8874 319.485C90.1005 319.485 90.3048 319.401 90.4555 319.25C90.6061 319.099 90.6908 318.895 90.6908 318.682V272.703C90.6908 272.49 90.6061 272.285 90.4555 272.135C90.3048 271.984 90.1005 271.899 89.8874 271.899C89.6743 271.899 89.47 271.984 89.3193 272.135C89.1686 272.285 89.084 272.49 89.084 272.703Z" fill="black"/>
</g>
<g opacity="0.3">
<path d="M163.564 256.717V294.827C163.587 295.026 163.682 295.21 163.831 295.343C163.98 295.476 164.173 295.55 164.373 295.55C164.573 295.55 164.766 295.476 164.915 295.343C165.064 295.21 165.159 295.026 165.182 294.827V256.717C165.159 256.519 165.064 256.335 164.915 256.202C164.766 256.069 164.573 255.995 164.373 255.995C164.173 255.995 163.98 256.069 163.831 256.202C163.682 256.335 163.587 256.519 163.564 256.717Z" fill="black"/>
</g>
<g opacity="0.2">
<path d="M125.741 214.981H120.612L100.496 270.066L106.367 268.006L125.741 214.981Z" fill="white"/>
<path d="M145.363 214.981H129.779L111.002 266.378L128.883 260.106L145.363 214.981Z" fill="white"/>
</g>
<path d="M225.363 359.233L227.887 368.359H231.976L230.451 358.1L225.363 359.233Z" fill="#FFC3BD"/>
<path d="M232.079 367.515L227.455 367.607C227.357 367.612 227.263 367.649 227.189 367.712C227.114 367.776 227.063 367.862 227.043 367.958L226.146 372.325C226.11 372.51 226.148 372.703 226.252 372.861C226.356 373.019 226.518 373.13 226.703 373.169H226.857C228.783 373.097 230.493 372.963 232.893 372.922C235.725 372.871 235.015 373.221 238.342 373.211C240.35 373.211 240.68 370.914 239.825 370.811C237.331 370.735 234.969 369.676 233.253 367.865C232.92 367.604 232.501 367.479 232.079 367.515Z" fill="#263238"/>
<path opacity="0.2" d="M231.595 365.784L230.451 358.1L225.363 359.233L227.248 366.072L231.595 365.784Z" fill="black"/>
<path d="M220.923 279.068L231.975 362.735L225.795 363.322C225.795 363.322 218.358 336.81 216.999 327.756C216.741 326.129 216.267 322.812 215.969 321.195C215.629 319.331 214.753 315.798 214.197 313.985C213.167 310.525 210.18 300.08 210.18 300.08L205.73 282.024L220.923 279.068Z" fill="#263238"/>
<path opacity="0.5" d="M208.398 286.34L207.646 289.811L210.18 300.111C210.18 300.111 211.509 304.818 212.704 308.959C213.25 291.181 210.314 286.35 210.314 286.35L208.398 286.34Z" fill="black"/>
<path d="M224.416 361.55L225.24 364.682L232.759 363.847L232.574 360.551L224.416 361.55Z" fill="#1C2CBC"/>
<path d="M201.488 358.801L202.559 368.205L206.607 368.246L206.69 358.471L201.488 358.801Z" fill="#FFC3BD"/>
<path opacity="0.2" d="M206.69 358.471L201.488 358.801L202.323 366.145L206.628 366.114L206.69 358.471Z" fill="black"/>
<path d="M212.035 279.995L207.4 363.796L201.169 363.858C201.169 363.858 198.656 336.46 198.893 327.303C198.893 325.655 199.047 322.308 199.047 320.66C199.047 318.764 198.81 315.128 198.584 313.244C198.151 309.659 196.925 298.319 196.606 294.704C196.184 290.079 195.957 280.284 195.957 280.284L212.035 279.995Z" fill="#263238"/>
<path d="M199.963 361.231L200.498 364.424L208.048 364.311L208.378 361.015L199.963 361.231Z" fill="#1C2CBC"/>
<path d="M206.802 367.514L202.167 367.607C202.07 367.613 201.977 367.651 201.903 367.714C201.829 367.777 201.777 367.862 201.755 367.957L200.869 372.324C200.849 372.416 200.848 372.511 200.866 372.604C200.883 372.696 200.919 372.784 200.971 372.863C201.022 372.941 201.089 373.009 201.167 373.062C201.245 373.114 201.333 373.151 201.425 373.169H201.569C203.496 373.097 205.216 372.963 207.616 372.922C210.448 372.87 209.737 373.221 213.064 373.21C215.073 373.21 215.392 370.913 214.547 370.81C212.052 370.732 209.687 369.674 207.966 367.865C207.637 367.604 207.22 367.478 206.802 367.514Z" fill="#263238"/>
<path d="M203.301 257.263L212.839 256.171L212.118 242.534L198.625 244.697L203.301 257.263Z" fill="#1C2CBC"/>
<path opacity="0.4" d="M203.301 257.263L212.839 256.171L212.118 242.534L198.625 244.697L203.301 257.263Z" fill="black"/>
<path d="M215.053 242.05L208.945 243.08C209.429 246.112 209.242 249.212 208.399 252.164C207.276 248.683 202.755 245.665 200.633 244.398L193.742 245.5L195.452 282.652C195.472 283.117 195.656 283.56 195.971 283.903C196.285 284.246 196.711 284.467 197.172 284.527C201.292 285.052 212.426 285.918 220.481 281.519C220.809 281.338 221.08 281.068 221.262 280.74C221.444 280.412 221.531 280.04 221.511 279.665C221.192 273.454 219.533 245.49 215.053 242.05Z" fill="#1C2CBC"/>
<path opacity="0.5" d="M215.053 242.05L208.945 243.08C209.429 246.112 209.242 249.212 208.399 252.164C207.276 248.683 202.755 245.665 200.633 244.398L193.742 245.5L195.452 282.652C195.472 283.117 195.656 283.56 195.971 283.903C196.285 284.246 196.711 284.467 197.172 284.527C201.292 285.052 212.426 285.918 220.481 281.519C220.809 281.338 221.08 281.068 221.262 280.74C221.444 280.412 221.531 280.04 221.511 279.665C221.192 273.454 219.533 245.49 215.053 242.05Z" fill="white"/>
<path opacity="0.8" d="M194.217 255.728L194.392 259.653C202.86 259.698 211.27 258.251 219.236 255.378C218.999 253.843 218.741 252.36 218.453 250.98C210.722 253.995 202.514 255.603 194.217 255.728Z" fill="white"/>
<path opacity="0.2" d="M194.525 262.444C199.149 254.761 196.358 250.084 196.358 250.084L195.575 250.373L194.051 252.206L194.525 262.444Z" fill="black"/>
<path d="M202.198 245.027C203.382 245.913 205.226 246.963 207.039 246.603C207.338 246.565 207.626 246.466 207.885 246.311C208.144 246.156 208.368 245.949 208.542 245.703C208.716 245.457 208.838 245.177 208.898 244.882C208.958 244.586 208.957 244.281 208.893 243.987C207.245 243.152 206.833 241.298 206.895 239.547L200.529 236.056C201.508 238.394 202.847 242.462 202.198 245.027Z" fill="#FFC3BD"/>
<path opacity="0.2" d="M203.126 237.498L206.896 239.558C206.88 240.098 206.911 240.639 206.988 241.175C206.26 241.198 205.538 241.042 204.884 240.72C204.23 240.399 203.665 239.922 203.239 239.331C202.765 238.558 202.837 237.652 203.126 237.498Z" fill="black"/>
<path d="M206.246 231.864C203.362 230.37 201.621 227.033 201.806 226.25C201.992 225.467 206.287 223.871 206.905 224.19C209.995 225.519 208.368 229.762 208.368 229.762L209.49 231.06L206.246 231.864Z" fill="#263238"/>
<path d="M198.624 232.193C199.911 235.901 200.478 238.136 202.929 239.527C206.606 241.648 210.778 238.6 210.623 234.593C210.479 230.957 208.388 225.519 204.278 225.055C203.372 224.947 202.452 225.073 201.608 225.421C200.764 225.77 200.023 226.328 199.456 227.044C198.889 227.76 198.515 228.609 198.369 229.51C198.224 230.411 198.311 231.335 198.624 232.193Z" fill="#FFC3BD"/>
<path d="M198.573 234.902C195.853 233.141 193.629 230.195 193.927 229.463C194.72 227.517 197.852 225.941 199.973 226.816C203.063 228.083 200.9 232.996 200.9 232.996L201.93 234.418L198.573 234.902Z" fill="#263238"/>
<path d="M197.759 236.231C198.121 236.557 198.544 236.809 199.004 236.972C199.463 237.134 199.951 237.204 200.437 237.178C201.746 237.106 201.972 235.839 201.261 234.819C200.551 233.8 199.201 232.862 198.017 233.429C197.768 233.557 197.555 233.747 197.398 233.979C197.242 234.212 197.146 234.48 197.12 234.759C197.095 235.038 197.14 235.32 197.251 235.577C197.363 235.834 197.538 236.059 197.759 236.231Z" fill="#FFC3BD"/>
<path d="M204.825 231.626C204.917 231.935 205.144 232.141 205.35 232.08C205.556 232.018 205.638 231.729 205.556 231.42C205.473 231.111 205.237 230.916 205.031 230.967C204.825 231.019 204.742 231.317 204.825 231.626Z" fill="#263238"/>
<path d="M207.586 236.445C207.596 236.768 207.761 237.025 207.976 237.019C208.191 237.013 208.346 236.755 208.346 236.436C208.346 236.116 208.168 235.865 207.956 235.862C207.744 235.858 207.587 236.126 207.586 236.445Z" fill="#263238"/>
<path d="M208.295 230.659C208.388 230.957 208.615 231.163 208.821 231.101C209.027 231.04 209.109 230.751 209.027 230.453C208.944 230.154 208.707 229.938 208.501 229.999C208.295 230.061 208.213 230.35 208.295 230.659Z" fill="#263238"/>
<path d="M207.029 231.132C207.664 231.964 208.409 232.706 209.244 233.337C209.075 233.547 208.862 233.719 208.62 233.84C208.378 233.961 208.113 234.028 207.843 234.037L207.029 231.132Z" fill="#ED847E"/>
<path d="M203.229 230.524H203.136C203.093 230.504 203.059 230.469 203.04 230.425C203.021 230.382 203.018 230.333 203.033 230.288C203.136 230.009 203.304 229.758 203.522 229.556C203.74 229.353 204.003 229.205 204.289 229.124C204.339 229.113 204.39 229.122 204.433 229.149C204.475 229.176 204.505 229.219 204.516 229.268C204.527 229.317 204.518 229.369 204.491 229.411C204.464 229.454 204.421 229.484 204.372 229.494C204.137 229.552 203.92 229.666 203.74 229.828C203.56 229.99 203.423 230.194 203.342 230.421C203.318 230.468 203.278 230.505 203.229 230.524Z" fill="#263238"/>
<path d="M209.254 228.876C209.224 228.88 209.193 228.876 209.165 228.865C209.136 228.854 209.11 228.837 209.09 228.815C208.941 228.633 208.751 228.49 208.536 228.397C208.321 228.304 208.087 228.263 207.854 228.279C207.829 228.283 207.804 228.283 207.78 228.277C207.756 228.272 207.733 228.262 207.713 228.247C207.693 228.233 207.676 228.215 207.663 228.194C207.65 228.172 207.641 228.149 207.637 228.124C207.634 228.075 207.649 228.025 207.679 227.985C207.709 227.945 207.753 227.918 207.802 227.908C208.098 227.883 208.397 227.929 208.671 228.044C208.945 228.159 209.188 228.338 209.378 228.567C209.396 228.584 209.41 228.604 209.42 228.626C209.429 228.648 209.434 228.672 209.434 228.696C209.434 228.72 209.429 228.744 209.42 228.766C209.41 228.789 209.396 228.808 209.378 228.825C209.362 228.842 209.343 228.855 209.322 228.864C209.3 228.873 209.277 228.877 209.254 228.876Z" fill="#263238"/>
<path d="M196.976 233.81C196.976 233.81 193.835 231.75 193.639 229.69C193.631 228.321 193.938 226.967 194.536 225.735C195.135 224.503 196.008 223.425 197.089 222.583C199.438 220.997 204.207 219.669 208.358 225.076L201.621 227.136L198.943 229.907L196.976 233.81Z" fill="#1C2CBC"/>
<path opacity="0.3" d="M196.976 233.81C196.976 233.81 193.835 231.75 193.639 229.69C193.631 228.321 193.938 226.967 194.536 225.735C195.135 224.503 196.008 223.425 197.089 222.583C199.438 220.997 204.207 219.669 208.358 225.076L201.621 227.136L198.943 229.907L196.976 233.81Z" fill="black"/>
<path d="M197.131 234.057C197.131 234.057 200.221 225.591 208.595 225.694C208.595 225.694 210.871 219.462 206.432 220.09C201.993 220.719 199.397 228.845 199.397 228.845C199.397 228.845 195.359 233.213 197.131 234.057Z" fill="#1C2CBC"/>
<path opacity="0.5" d="M197.131 234.057C197.131 234.057 200.221 225.591 208.595 225.694C208.595 225.694 210.871 219.462 206.432 220.09C201.993 220.719 199.397 228.845 199.397 228.845C199.397 228.845 195.359 233.213 197.131 234.057Z" fill="white"/>
<path opacity="0.8" d="M221.346 276.658C221.264 275.381 221.161 273.867 221.037 272.198C208.029 275.793 198.377 275.144 195.092 274.742L195.267 278.718C208.492 279.913 217.783 277.719 221.346 276.658Z" fill="white"/>
<path d="M198.326 262.083L208.904 263.34C208.904 263.34 206.762 273.424 210.315 277.657L201.921 277.75L198.326 262.083Z" fill="#263238"/>
<path opacity="0.7" d="M198.326 262.083L208.904 263.34C208.904 263.34 206.762 273.424 210.315 277.657L201.921 277.75L198.326 262.083Z" fill="white"/>
<path d="M207.824 262.359L198.71 261.282C197.817 261.176 197.008 261.814 196.903 262.707L195.287 276.383C195.181 277.275 195.819 278.085 196.712 278.19L205.826 279.267C206.718 279.373 207.527 278.735 207.633 277.842L209.249 264.166C209.354 263.273 208.716 262.464 207.824 262.359Z" fill="#263238"/>
<path opacity="0.5" d="M207.824 262.359L198.71 261.282C197.817 261.176 197.008 261.814 196.903 262.707L195.287 276.383C195.181 277.275 195.819 278.085 196.712 278.19L205.826 279.267C206.718 279.373 207.527 278.735 207.633 277.842L209.249 264.166C209.354 263.273 208.716 262.464 207.824 262.359Z" fill="white"/>
<path d="M203.661 261.085L204.598 260.055C204.648 260 204.682 259.932 204.696 259.859C204.709 259.785 204.702 259.71 204.676 259.641C204.649 259.571 204.604 259.511 204.544 259.465C204.485 259.42 204.415 259.393 204.341 259.385L202.847 259.21C202.773 259.2 202.698 259.211 202.629 259.242C202.561 259.273 202.503 259.322 202.461 259.384C202.419 259.446 202.396 259.519 202.393 259.594C202.39 259.668 202.409 259.742 202.446 259.807L203.115 261.043L200.427 260.724L200.272 262.053C200.24 262.341 200.323 262.63 200.502 262.857C200.681 263.084 200.943 263.232 201.23 263.268L204.969 263.68C205.257 263.712 205.546 263.63 205.773 263.45C206.001 263.271 206.148 263.01 206.185 262.722L206.339 261.394L203.661 261.085Z" fill="#263238"/>
<path d="M187.273 265.153L195.06 269.788L199.88 268.531C200.179 268.451 200.495 268.477 200.777 268.603C201.093 268.752 201.34 269.017 201.465 269.344C201.59 269.67 201.583 270.033 201.446 270.354L200.509 272.497C200.39 272.767 200.185 272.99 199.926 273.131C199.667 273.273 199.369 273.325 199.077 273.28L194.277 272.507L184.904 268.562L187.273 265.153Z" fill="#FFC3BD"/>
<path d="M193.742 245.47C193.742 245.47 180.867 261.898 181.063 264.957C181.258 268.016 187.088 269.891 187.088 269.891L189.653 266.245L187.459 264.072C187.459 264.072 192.609 258.705 194.319 256.862C196.204 254.771 198.727 251.835 193.742 245.47Z" fill="#1C2CBC"/>
<path opacity="0.5" d="M193.742 245.47C193.742 245.47 180.867 261.898 181.063 264.957C181.258 268.016 187.088 269.891 187.088 269.891L189.653 266.245L187.459 264.072C187.459 264.072 192.609 258.705 194.319 256.862C196.204 254.771 198.727 251.835 193.742 245.47Z" fill="black"/>
<path d="M189.51 265.102L186.049 270.241L187.779 270.828L190.643 266.636L189.51 265.102Z" fill="#1C2CBC"/>
<path opacity="0.5" d="M189.51 265.102L186.049 270.241L187.779 270.828L190.643 266.636L189.51 265.102Z" fill="white"/>
<path d="M212.632 284.177L209.46 253.092C209.441 252.831 209.325 252.587 209.134 252.41C208.942 252.232 208.691 252.133 208.43 252.134L211.787 284.342L212.632 284.177Z" fill="#1C2CBC"/>
<path d="M250.896 176H227.162C224.997 176 222.921 176.86 221.391 178.391C219.86 179.921 219 181.997 219 184.162V207.222C219 209.387 219.86 211.463 221.391 212.994C222.921 214.524 224.997 215.384 227.162 215.384H230.388V224L235.856 215.384H250.875C253.039 215.384 255.115 214.524 256.646 212.994C258.177 211.463 259.037 209.387 259.037 207.222V184.162C259.037 182.001 258.18 179.928 256.654 178.398C255.128 176.868 253.057 176.006 250.896 176Z" fill="#1C2CBC"/>
<path d="M242.954 191.92C242.954 190.182 241.472 189.012 239.089 189.012C238.118 188.957 237.149 189.145 236.27 189.56C235.39 189.975 234.629 190.603 234.054 191.388L231.055 189.445C232.785 187.091 235.565 185.672 239.429 185.672C243.975 185.672 247.01 187.743 247.01 191.296C247.01 196.337 241.72 196.798 241.72 200.45H237.791C237.791 195.877 242.954 195.011 242.954 191.92ZM237.281 205.428C237.271 204.94 237.407 204.46 237.671 204.049C237.935 203.638 238.315 203.315 238.763 203.121C239.211 202.927 239.707 202.87 240.188 202.959C240.668 203.048 241.111 203.277 241.46 203.619C241.81 203.96 242.05 204.398 242.15 204.876C242.249 205.354 242.205 205.851 242.021 206.304C241.837 206.756 241.523 207.144 241.119 207.417C240.714 207.691 240.237 207.838 239.748 207.839C239.427 207.851 239.107 207.797 238.807 207.68C238.507 207.564 238.234 207.387 238.005 207.161C237.776 206.936 237.596 206.665 237.475 206.367C237.354 206.069 237.295 205.75 237.302 205.428H237.281Z" fill="white"/>
<path d="M217.001 243.5C220.595 243.898 222.561 243.501 226.049 243.103C225.599 243.406 225.276 243.869 225.145 244.402C225.013 244.935 225.081 245.5 225.336 245.984C225.485 246.215 225.504 246.19 225.495 246.18C224.625 245.457 223.68 244.832 222.677 244.317C220.595 243.128 215.301 240.483 213.1 239.343L214.029 236.737C217.639 237.621 221.181 238.771 224.628 240.178C226.555 241.103 229.614 242.061 229.994 244.632C230.225 248.747 224.31 248.589 221.617 248.624C219.092 248.58 221.492 248.424 219.001 248L217.001 243V243.5Z" fill="#FFC3BD"/>
<path d="M222.175 249.459L219.708 249.749L218 250C218 250 217.438 247.807 217 246.5C216.395 244.695 215 242 215 242L219.732 242.685L216.302 241C216.923 240.152 217.74 237.303 218.5 238C219.901 238.233 225.051 239.246 228 241.5C231.364 244.071 231.941 247.987 222.175 249.459Z" fill="#0E165E"/>
<path d="M214.057 236.757L210.439 236L211.427 240.056C211.427 240.056 214.693 240.547 214.862 238.802L214.057 236.757Z" fill="#FFC3BD"/>
<path d="M207 237.263L209.009 240.454L211.427 240.056L210.44 236L207 237.263Z" fill="#FFC3BD"/>
</svg>
