<svg width="32" height="32" viewBox="0 0 32 32" fill="none" xmlns="http://www.w3.org/2000/svg">
<path d="M6 7.3335H26V9.3335H6V7.3335Z" fill="#424242"/>
<path d="M2.66669 16.6668H29.3334V12.0002C29.3334 10.5335 28.1334 9.3335 26.6667 9.3335H5.33335C3.86669 9.3335 2.66669 10.5335 2.66669 12.0002V16.6668Z" fill="#616161"/>
<path d="M5.33335 24H26.6667C28.1334 24 29.3334 22.8 29.3334 21.3333V16H2.66669V21.3333C2.66669 22.8 3.86669 24 5.33335 24Z" fill="#424242"/>
<path d="M26.6667 12.6668C27.0349 12.6668 27.3333 12.3684 27.3333 12.0002C27.3333 11.632 27.0349 11.3335 26.6667 11.3335C26.2985 11.3335 26 11.632 26 12.0002C26 12.3684 26.2985 12.6668 26.6667 12.6668Z" fill="#00E676"/>
<path d="M7.33331 2.6665H24.6666V9.33317H7.33331V2.6665Z" fill="#90CAF9"/>
<path d="M25 20.6665H7C6.46667 20.6665 6 20.1998 6 19.6665C6 19.1332 6.46667 18.6665 7 18.6665H25C25.5333 18.6665 26 19.1332 26 19.6665C26 20.1998 25.5333 20.6665 25 20.6665Z" fill="#242424"/>
<path d="M7.33331 20.6665H24.6666V27.9998H7.33331V20.6665Z" fill="#90CAF9"/>
<path d="M7.33331 19.3335H24.6666V20.6668H7.33331V19.3335Z" fill="#42A5F5"/>
<path d="M10.6667 22H22V23.3333H10.6667V22ZM10.6667 24.6667H19.3334V26H10.6667V24.6667Z" fill="#1976D2"/>
</svg>
