<svg width="24" height="24" viewBox="0 0 24 24" fill="none" xmlns="http://www.w3.org/2000/svg">
<path opacity="0.5" d="M20 12C20 14.1217 19.1571 16.1566 17.6569 17.6569C16.1566 19.1571 14.1217 20 12 20C9.87827 20 7.84344 19.1571 6.34315 17.6569C4.84285 16.1566 4 14.1217 4 12C4 9.87827 4.84285 7.84344 6.34315 6.34315C7.84344 4.84285 9.87827 4 12 4C14.1217 4 16.1566 4.84285 17.6569 6.34315C19.1571 7.84344 20 9.87827 20 12Z" fill="#1C2CBC"/>
<path d="M12 8.512C11.0749 8.512 10.1877 8.87948 9.53361 9.53361C8.87948 10.1877 8.512 11.0749 8.512 12C8.512 12.9251 8.87948 13.8123 9.53361 14.4664C10.1877 15.1205 11.0749 15.488 12 15.488C12.9251 15.488 13.8123 15.1205 14.4664 14.4664C15.1205 13.8123 15.488 12.9251 15.488 12C15.488 11.0749 15.1205 10.1877 14.4664 9.53361C13.8123 8.87948 12.9251 8.512 12 8.512ZM12.75 2C12.75 1.80109 12.671 1.61032 12.5303 1.46967C12.3897 1.32902 12.1989 1.25 12 1.25C11.8011 1.25 11.6103 1.32902 11.4697 1.46967C11.329 1.61032 11.25 1.80109 11.25 2V4.035C11.7489 3.98862 12.2511 3.98862 12.75 4.035V2ZM19.965 12.75C20.0115 12.2511 20.0115 11.7489 19.965 11.25H22C22.1989 11.25 22.3897 11.329 22.5303 11.4697C22.671 11.6103 22.75 11.8011 22.75 12C22.75 12.1989 22.671 12.3897 22.5303 12.5303C22.3897 12.671 22.1989 12.75 22 12.75H19.965ZM11.25 19.965C11.7489 20.0115 12.2511 20.0115 12.75 19.965V22C12.75 22.1989 12.671 22.3897 12.5303 22.5303C12.3897 22.671 12.1989 22.75 12 22.75C11.8011 22.75 11.6103 22.671 11.4697 22.5303C11.329 22.3897 11.25 22.1989 11.25 22V19.965ZM4.035 11.25C3.98862 11.7489 3.98862 12.2511 4.035 12.75H2C1.80109 12.75 1.61032 12.671 1.46967 12.5303C1.32902 12.3897 1.25 12.1989 1.25 12C1.25 11.8011 1.32902 11.6103 1.46967 11.4697C1.61032 11.329 1.80109 11.25 2 11.25H4.035Z" fill="#1C2CBC"/>
</svg>
