<svg width="32" height="32" viewBox="0 0 32 32" fill="none" xmlns="http://www.w3.org/2000/svg">
<g clip-path="url(#clip0_148_7728)">
<path opacity="0.5" d="M3.28009 3.55458C3.79743 3.02525 4.46143 2.66125 5.18676 2.51458C5.90497 2.34327 6.6583 2.39442 7.34676 2.66125L27.1601 9.52791C27.722 9.70724 28.2306 10.0234 28.6401 10.4479C28.8208 10.6171 28.9778 10.81 29.1068 11.0212C29.4552 11.5412 29.6726 12.1376 29.7406 12.7598C29.8086 13.3819 29.725 14.0113 29.4971 14.5941C29.2692 15.177 28.9037 15.6961 28.4317 16.1071C27.9598 16.5181 27.3954 16.8089 26.7868 16.9546L19.0401 18.2212C18.7846 18.3239 18.5531 18.4783 18.3601 18.6746C18.1456 18.8814 17.9853 19.1378 17.8934 19.4212L16.6534 26.6612C16.4493 27.4821 15.9808 28.2131 15.3201 28.7412C14.6792 29.2478 13.896 29.5415 13.0801 29.5812C12.2674 29.6144 11.4649 29.3905 10.7868 28.9412C10.1033 28.4843 9.57717 27.8279 9.2801 27.0612L2.40009 7.60791C2.15638 6.91879 2.11019 6.17524 2.26676 5.46125C2.41522 4.74186 2.76691 4.08014 3.28009 3.55458Z" fill="#FFFAFA"/>
<path d="M3.28009 3.55458C5.74257 5.99481 17.8934 19.4212 17.8934 19.4212L16.6534 26.6612C16.4493 27.4821 15.9808 28.2131 15.3201 28.7412C14.6792 29.2478 13.896 29.5415 13.0801 29.5812C12.2674 29.6144 11.4649 29.3905 10.7868 28.9412C10.1033 28.4843 9.57717 27.8279 9.2801 27.0612L2.40009 7.60791C2.15638 6.91879 2.11019 6.17524 2.26676 5.46125C2.41522 4.74186 3.28009 3.55458 3.28009 3.55458Z" fill="#FFFAFA"/>
</g>
<defs>
<clipPath id="clip0_148_7728">
<rect width="32" height="32" fill="white" transform="translate(0 32) rotate(-90)"/>
</clipPath>
</defs>
</svg>
